<?xml version="1.0" standalone="no"?>
<!DOCTYPE svg PUBLIC "-//W3C//DTD SVG 1.1//EN" "http://www.w3.org/Graphics/SVG/1.1/DTD/svg11.dtd" >
<svg>
<metadata>
Created by FontForge 20090622 at Sat Feb  9 04:48:11 2013
 By ffonts
Copyright (c) 2012, Pablo Impallari (www.impallari.com|impallari@gmail.com),Copyright (c) 2012, Rodrigo Fuenzalida (www.rfuenzalida.com|hello@rfuenzalida.com),Copyright (c) 2012, Brenda Gallo (gbrenda1987@gmail.com), with Reserved Font Name Domine.
</metadata>
<defs>
<font id="Domine-Regular" horiz-adv-x="544" >
  <font-face 
    font-family="Domine"
    font-weight="400"
    font-stretch="normal"
    units-per-em="1000"
    panose-1="2 4 5 3 4 4 3 6 2 4"
    ascent="800"
    descent="-200"
    x-height="540"
    cap-height="720"
    bbox="-200 -240 1366 900"
    underline-thickness="50"
    underline-position="-50"
    unicode-range="U+0020-U+FB04"
  />
<missing-glyph horiz-adv-x="640" 
d="M80 900h480v-1140h-480v1140zM177 -170h286v1000h-286v-1000z" />
    <glyph glyph-name="f_f" unicode="ff" horiz-adv-x="677" 
d="M18 526l97 14v10q0 102 53.5 156t151.5 54q48 0 88 -12t63 -32q49 74 143 74q60 0 95 -28.5t35 -72.5q0 -28 -14 -42.5t-38 -14.5q-23 0 -37 13t-14 37q0 26 16 52q-17 18 -46 18q-23 0 -40 -10t-26 -26.5t-13.5 -36.5t-5 -43t-0.5 -46v-50h128v-50h-128v-430l108 -19
v-41h-262v41l57 19v430h-217v-430l68 -19v-41h-242v41l77 19v430h-97v36zM429 563q0 85 -24 122t-81 37t-84.5 -33.5t-27.5 -98.5v-50h217v23z" />
    <glyph glyph-name="f_i" unicode="fi" horiz-adv-x="628" 
d="M18 526l97 14v10q0 55 17 99.5t48 76t75.5 48t100.5 16.5q78 0 124.5 -30.5t46.5 -81.5q0 -56 -53 -56q-50 0 -50 50q0 24 16 52q-34 28 -88 28q-37 0 -65 -10q-42 -14 -58.5 -48.5t-16.5 -103.5v-50h314v-480l77 -19v-41h-241v41l67 19v430h-217v-430l78 -19v-41h-252
v41l77 19v430h-97v36z" />
    <glyph glyph-name="f_l" unicode="fl" horiz-adv-x="632" 
d="M342 790q45 0 80 -12.5t56 -37.5l18 40h30v-720l77 -19v-41h-241v41l67 19v430h-217v-430l78 -19v-41h-252v41l77 19v430h-97v36l97 14v10q0 55 15.5 99.5t45 76t71.5 48t95 16.5zM212 540h217v105q0 51 -27 79t-76 28q-114 0 -114 -162v-50z" />
    <glyph glyph-name="f_f_i" unicode="ffi" horiz-adv-x="941" 
d="M18 526l97 14v10q0 100 53.5 155t150.5 55q51 0 89 -14t66 -48q31 46 75 69t116 23q81 0 128 -30.5t47 -81.5q0 -56 -54 -56q-49 0 -49 50q0 24 16 52q-16 14 -39 21t-49 7q-18 0 -36 -3.5t-33 -8.5q-38 -14 -54 -49t-16 -101v-50h313v-480l77 -19v-41h-241v41l67 19v430
h-216v-430l78 -19v-41h-242v41l67 19v430h-217v-430l78 -19v-41h-252v41l77 19v430h-97v36zM429 563q0 86 -24 122.5t-80 36.5q-113 0 -113 -132v-50h217v23z" />
    <glyph glyph-name="f_f_l" unicode="ffl" horiz-adv-x="945" 
d="M657 790q90 0 134 -50l18 40h30v-720l77 -19v-41h-241v41l67 19v430h-216v-430l78 -19v-41h-242v41l67 19v430h-217v-430l78 -19v-41h-252v41l77 19v430h-97v36l97 14v10q0 101 54.5 155.5t154.5 54.5q50 0 86 -15t64 -47q57 92 183 92zM526 540h216v105q0 51 -26.5 79
t-74.5 28q-115 0 -115 -162v-50zM212 540h217v23q0 85 -24 122t-80 37t-84.5 -33.5t-28.5 -98.5v-50z" />
    <glyph glyph-name="f_b" unicode="fb" horiz-adv-x="947" 
d="M901 275q0 -66 -19 -123.5t-53 -96.5q-56 -65 -161 -65q-51 0 -91 23.5t-71 87.5l-30 -101h-47v490h-217v-430l78 -19v-41h-252v41l77 19v430h-97v36l97 14v10q0 55 15.5 99.5t45 76t71.5 48t95 16.5q45 0 80 -12.5t56 -37.5l18 40h30v-298q30 38 67 53t83 15
q51 0 92.5 -15t67.5 -48q31 -38 48 -93t17 -119zM526 274q0 -123 35 -179q16 -26 39 -39.5t61 -13.5q68 0 101 47q18 26 26 72t8 106q0 120 -35 178q-17 26 -40 39.5t-61 13.5q-35 0 -60 -11.5t-39 -34.5q-17 -28 -26 -72.5t-9 -105.5zM212 540h217v105q0 51 -27 79t-76 28
q-114 0 -114 -162v-50z" />
    <glyph glyph-name="f_f_b" unicode="ffb" horiz-adv-x="1261" 
d="M1215 275q0 -66 -19 -123.5t-53 -96.5q-56 -65 -161 -65q-51 0 -91 23.5t-71 87.5l-30 -101h-47v490h-217v-430l78 -19v-41h-252v41l77 19v430h-217v-430l78 -19v-41h-252v41l77 19v430h-97v36l97 14v10q0 101 54.5 155.5t154.5 54.5q48 0 83.5 -14t62.5 -44q29 42 76 65
t110 23q45 0 80 -12.5t56 -37.5l18 40h30v-298q30 38 67 53t83 15q51 0 92.5 -15t67.5 -48q31 -38 48 -93t17 -119zM840 274q0 -123 35 -179q16 -26 39 -39.5t61 -13.5q68 0 101 47q18 26 26 72t8 106q0 120 -35 178q-17 26 -40 39.5t-61 13.5q-35 0 -60 -11.5t-39 -34.5
q-17 -28 -26 -72.5t-9 -105.5zM526 540h217v105q0 51 -27 79t-76 28q-114 0 -114 -162v-50zM212 540h217v23q0 85 -24 122t-80 37t-84.5 -33.5t-28.5 -98.5v-50z" />
    <glyph glyph-name="f_h" unicode="fh" horiz-adv-x="971" 
d="M775 283q0 64 -3.5 96.5t-12.5 50.5q-25 49 -88 49q-28 0 -54 -10t-46 -27q-45 -39 -45 -107v-275l67 -19v-41h-241v41l77 19v430h-217v-430l78 -19v-41h-252v41l77 19v430h-97v36l97 14v10q0 56 16 100.5t45 75.5t71 47.5t95 16.5q94 0 136 -50l18 40h30v-334
q30 49 79.5 76.5t106.5 27.5q40 0 72 -14t51 -40q20 -28 28.5 -78.5t8.5 -136.5v-221l77 -19v-41h-241v41l67 19v223zM212 540h217v110q0 48 -27.5 75t-75.5 27q-114 0 -114 -162v-50z" />
    <glyph glyph-name="f_f_h" unicode="ffh" horiz-adv-x="1284" 
d="M1088 283q0 64 -3.5 96.5t-12.5 50.5q-25 49 -88 49q-28 0 -54 -10t-46 -27q-45 -39 -45 -111v-271l67 -19v-41h-241v41l77 19v430h-216v-430l78 -19v-41h-242v41l67 19v430h-217v-430l78 -19v-41h-252v41l77 19v430h-97v36l97 14v10q0 101 54.5 155.5t154.5 54.5
q50 0 86 -15t64 -47q57 92 183 92q90 0 134 -50l18 40h30v-334q30 49 79.5 76.5t106.5 27.5q40 0 72 -14t51 -40q20 -28 28.5 -78.5t8.5 -136.5v-221l77 -19v-41h-241v41l67 19v223zM526 540h216v105q0 51 -26.5 79t-74.5 28q-115 0 -115 -162v-50zM212 540h217v23
q0 85 -24 122t-80 37t-84.5 -33.5t-28.5 -98.5v-50z" />
    <glyph glyph-name="f_j" unicode="fj" horiz-adv-x="609" 
d="M526 85q0 -74 -5 -116.5t-17 -69.5q-19 -43 -55 -66t-84 -23q-54 0 -88.5 26.5t-34.5 68.5q0 26 14.5 41.5t38.5 15.5q49 0 49 -55q0 -29 -16 -45q2 -7 12.5 -11t26.5 -4q35 0 48.5 28t13.5 101v514h-217v-430l78 -19v-41h-252v41l77 19v430h-97v36l97 14v10
q0 55 17 99.5t48 76t75.5 48t100.5 16.5q78 0 124.5 -30.5t46.5 -81.5q0 -56 -53 -56q-50 0 -50 50q0 24 16 52q-34 28 -88 28q-37 0 -65 -10q-42 -14 -58.5 -48.5t-16.5 -103.5v-50h314v-455z" />
    <glyph glyph-name="f_f_j" unicode="ffj" horiz-adv-x="922" 
d="M18 526l97 14v10q0 100 53.5 155t150.5 55q51 0 89 -14t66 -48q31 46 75 69t116 23q81 0 128 -30.5t47 -81.5q0 -56 -54 -56q-49 0 -49 50q0 24 16 52q-16 14 -39 21t-49 7q-18 0 -36 -3.5t-33 -8.5q-38 -14 -54 -49t-16 -101v-50h313v-455q0 -74 -4.5 -116.5
t-16.5 -69.5q-19 -43 -55 -66t-84 -23q-54 0 -88.5 26.5t-34.5 68.5q0 26 14.5 41.5t38.5 15.5q49 0 49 -55q0 -29 -16 -45q2 -7 12.5 -11t26.5 -4q35 0 48.5 28t13.5 101v514h-217v-430l78 -19v-41h-242v41l67 19v430h-217v-430l78 -19v-41h-252v41l77 19v430h-97v36z
M429 563q0 86 -24 122.5t-80 36.5q-113 0 -113 -132v-50h217v23z" />
    <glyph glyph-name="f_k" unicode="fk" horiz-adv-x="923" 
d="M756 60l-154 208l-76 -64v-144l77 -19v-41h-251v41l77 19v430h-217v-430l78 -19v-41h-252v41l77 19v430h-97v36l97 14v10q0 56 16 100.5t45 75.5t71 47.5t95 16.5q94 0 136 -50l18 40h30v-529l213 229l-66 19v41h215v-41l-73 -19l-151 -155l199 -267l53 -17v-41h-219v41z
M212 540h217v110q0 48 -27.5 75t-75.5 27q-114 0 -114 -162v-50z" />
    <glyph glyph-name="f_f_k" unicode="ffk" horiz-adv-x="1236" 
d="M1069 60l-154 208l-76 -64v-144l77 -19v-41h-251v41l77 19v430h-216v-430l78 -19v-41h-242v41l67 19v430h-217v-430l78 -19v-41h-252v41l77 19v430h-97v36l97 14v10q0 101 54.5 155.5t154.5 54.5q50 0 86 -15t64 -47q57 92 183 92q90 0 134 -50l18 40h30v-529l213 229
l-66 19v41h215v-41l-73 -19l-151 -155l199 -267l53 -17v-41h-219v41zM526 540h216v110q0 48 -26.5 75t-74.5 27q-115 0 -115 -162v-50zM212 540h217v23q0 85 -24 122t-80 37t-84.5 -33.5t-28.5 -98.5v-50z" />
    <glyph glyph-name=".notdef" horiz-adv-x="640" 
d="M80 900h480v-1140h-480v1140zM177 -170h286v1000h-286v-1000z" />
    <glyph glyph-name="NULL" horiz-adv-x="0" 
 />
    <glyph glyph-name="nonmarkingreturn" horiz-adv-x="270" 
 />
    <glyph glyph-name="space" unicode=" " horiz-adv-x="254" 
 />
    <glyph glyph-name="c" unicode="c" horiz-adv-x="536" 
d="M302 550q87 0 138.5 -42.5t51.5 -113.5q0 -77 -62 -77q-29 0 -45 16t-16 43q0 25 13.5 43t36.5 25q-29 55 -111 55t-119.5 -53t-37.5 -167q0 -95 26 -145q40 -77 131 -77q46 0 88 20t72 57l30 -24q-40 -62 -92 -91t-122 -29t-121.5 28.5t-80.5 83.5q-17 32 -26.5 73.5
t-9.5 88.5q0 65 18 117.5t51.5 90t81 58t105.5 20.5z" />
    <glyph glyph-name="d" unicode="d" horiz-adv-x="620" 
d="M46 265q0 66 17 124t51 96q29 32 68.5 48.5t92.5 16.5q45 0 81 -17t65 -61v248l-77 19v41h174v-720l77 -19v-41l-155 -10l-8 82q-31 -47 -70 -64.5t-87 -17.5q-51 0 -92 15t-68 48q-32 39 -50.5 93.5t-18.5 118.5zM421 266q0 123 -35 179q-16 26 -39 39.5t-61 13.5
q-68 0 -101 -47q-18 -26 -26 -72t-8 -106q0 -120 35 -178q17 -26 40 -39.5t61 -13.5q35 0 60 11.5t39 34.5q17 28 26 72.5t9 105.5z" />
    <glyph glyph-name="e" unicode="e" 
d="M148 264q0 -73 20 -121q20 -47 56.5 -66.5t80.5 -19.5q48 0 86.5 19.5t69.5 53.5l32 -24q-18 -24 -38.5 -45t-46.5 -37t-58 -25t-71 -9q-69 0 -122 29.5t-81 86.5q-15 31 -22 68.5t-7 81.5q0 141 64 217.5t176 76.5q103 0 158 -63.5t55 -175.5q0 -10 -0.5 -18.5
t-2.5 -28.5h-349zM281 496q-120 0 -132 -183h250v33q0 72 -30.5 111t-87.5 39z" />
    <glyph glyph-name="f" unicode="f" horiz-adv-x="363" 
d="M18 526l97 14v10q0 115 50 177.5t135 62.5q60 0 95 -28.5t35 -72.5q0 -28 -14 -42.5t-38 -14.5q-23 0 -37 13t-14 37q0 26 16 52q-17 18 -46 18q-23 0 -40 -10t-26 -26t-13.5 -36.5t-5 -43t-0.5 -46.5v-50h128v-50h-128v-430l108 -19v-41h-282v41l77 19v430h-97v36z" />
    <glyph glyph-name="h" unicode="h" horiz-adv-x="644" 
d="M448 283q0 64 -3.5 96.5t-12.5 50.5q-25 49 -88 49q-28 0 -54 -10t-46 -27q-22 -20 -32.5 -46t-12.5 -65v-271l67 -19v-41h-241v41l77 19v660l-77 19v41h174v-334q30 48 79.5 76t106.5 28q40 0 72 -14t51 -40q20 -28 28.5 -78.5t8.5 -136.5v-221l77 -19v-41h-241v41
l67 19v223z" />
    <glyph glyph-name="i" unicode="i" horiz-adv-x="312" 
d="M36 499v41h174v-480l77 -19v-41h-251v41l77 19v420zM99 701q0 29 16.5 46t45.5 17t46 -17t17 -46t-17 -45.5t-46 -16.5t-45.5 16.5t-16.5 45.5z" />
    <glyph glyph-name="j" unicode="j" horiz-adv-x="284" 
d="M201 85q0 -74 -5 -116.5t-17 -69.5q-19 -43 -55 -66t-84 -23q-54 0 -88.5 26.5t-34.5 68.5q0 26 14.5 41.5t38.5 15.5q49 0 49 -55q0 -29 -16 -45q2 -7 12.5 -11t26.5 -4q35 0 48.5 28t13.5 101v504l-77 19v41h174v-455zM90 701q0 29 16.5 46t45.5 17t46 -17t17 -46
t-17 -45.5t-46 -16.5t-45.5 16.5t-16.5 45.5z" />
    <glyph glyph-name="k" unicode="k" horiz-adv-x="596" 
d="M429 60l-154 208l-76 -64v-144l77 -19v-41h-251v41l77 19v660l-77 19v41h174v-529l213 229l-66 19v41h215v-41l-73 -19l-151 -155l199 -267l53 -17v-41h-219v41z" />
    <glyph glyph-name="l" unicode="l" horiz-adv-x="308" 
d="M105 720l-77 19v41h174v-720l77 -19v-41h-251v41l77 19v660z" />
    <glyph glyph-name="m" unicode="m" horiz-adv-x="975" 
d="M113 480l-77 19v41h144l22 -100h4q29 51 77.5 80.5t103.5 29.5q42 0 73.5 -15.5t46.5 -38.5q16 -25 26 -66q32 57 83 88.5t109 31.5q40 0 72 -15.5t49 -42.5q9 -14 15 -34t10 -49.5t5.5 -69.5t1.5 -94v-185l77 -19v-41h-241v41l67 19v223q0 64 -3.5 96.5t-12.5 50.5
q-25 49 -84 49q-26 0 -49.5 -10t-42.5 -27q-22 -20 -32.5 -46.5t-12.5 -68.5v-267l67 -19v-41h-231v41l67 19v223q0 64 -3.5 96.5t-12.5 50.5q-25 49 -84 49q-26 0 -49.5 -10t-42.5 -27q-22 -20 -32.5 -46.5t-12.5 -68.5v-267l67 -19v-41h-241v41l77 19v420z" />
    <glyph glyph-name="n" unicode="n" horiz-adv-x="655" 
d="M113 480l-77 19v41h144l22 -100h4q30 51 80.5 80.5t109.5 29.5q40 0 72 -14t51 -40q20 -28 28.5 -78.5t8.5 -136.5v-221l77 -19v-41h-241v41l67 19v223q0 64 -3.5 96.5t-12.5 50.5q-25 49 -88 49q-28 0 -54 -10t-46 -27q-22 -20 -32.5 -46.5t-12.5 -68.5v-267l67 -19v-41
h-241v41l77 19v420z" />
    <glyph glyph-name="o" unicode="o" horiz-adv-x="582" 
d="M536 275q0 -66 -19.5 -124t-54.5 -96q-59 -65 -174 -65q-112 0 -171 63q-34 37 -52.5 91.5t-18.5 118.5q0 66 19 125t55 97q32 34 74 49.5t98 15.5q55 0 99 -15.5t74 -47.5q35 -37 53 -92.5t18 -119.5zM153 274q0 -120 36 -179q17 -26 40.5 -39.5t61.5 -13.5q69 0 103 47
q18 26 26.5 72t8.5 106q0 119 -36 178q-17 26 -41 39.5t-62 13.5q-70 0 -101 -46q-36 -56 -36 -178z" />
    <glyph glyph-name="oe" unicode="&#x153;" horiz-adv-x="920" 
d="M292 550q29 0 58 -6t54 -18.5t44.5 -31.5t28.5 -45h4q25 49 70.5 75t111.5 26q103 0 158 -63.5t55 -175.5q0 -10 -0.5 -18.5t-2.5 -28.5h-349q0 -73 20 -121q20 -47 56.5 -66.5t80.5 -19.5q48 0 86.5 19.5t69.5 53.5l32 -24q-18 -24 -38.5 -45t-46.5 -37t-58 -25t-71 -9
q-27 0 -55 6t-52 18t-42 29.5t-25 41.5h-4q-12 -23 -32 -41t-45 -30t-54 -18t-58 -6q-112 0 -171 63q-34 37 -52.5 91.5t-18.5 118.5q0 66 19 125t55 97q32 34 74 49.5t98 15.5zM153 274q0 -120 36 -179q17 -26 40.5 -39.5t61.5 -13.5q69 0 103 47q18 26 26.5 72t8.5 106
q0 119 -36 178q-17 26 -41 39.5t-62 13.5q-70 0 -101 -46q-36 -56 -36 -178zM657 496q-120 0 -132 -183h250v33q0 72 -30.5 111t-87.5 39z" />
    <glyph glyph-name="p" unicode="p" horiz-adv-x="619" 
d="M296 -139v-41h-271v41l77 19v600l-77 19v41h144l15 -77q32 50 72.5 68.5t91.5 18.5t92.5 -15t67.5 -48q30 -38 47.5 -91t17.5 -116q0 -64 -19.5 -120.5t-52.5 -94.5q-56 -65 -161 -65q-43 0 -77.5 16t-63.5 58v-194zM198 279q0 -119 35 -174q16 -26 39 -39.5t61 -13.5
q68 0 101 47q18 25 26 69.5t8 103.5q0 117 -35 173q-17 26 -40 39.5t-61 13.5q-35 0 -60 -11.5t-39 -34.5q-17 -27 -26 -70t-9 -103z" />
    <glyph glyph-name="q" unicode="q" horiz-adv-x="601" 
d="M421 67q-29 -38 -65 -52.5t-81 -14.5q-51 0 -92 15t-68 48q-32 38 -50.5 91t-18.5 116q0 64 18 120.5t50 94.5q26 32 67 48.5t94 16.5t93.5 -24.5t72.5 -88.5l30 103h47v-660l77 -19v-41h-271v41l97 19v187zM421 271q0 119 -35 174q-16 26 -39 39.5t-61 13.5
q-68 0 -101 -47q-18 -25 -26 -69.5t-8 -103.5q0 -117 35 -173q17 -26 40 -39.5t61 -13.5q35 0 60 11.5t39 34.5q17 27 26 70t9 103z" />
    <glyph glyph-name="r" unicode="r" horiz-adv-x="458" 
d="M337 482q-9 6 -20 6q-19 0 -40 -23.5t-37 -59.5q-14 -34 -22 -74.5t-8 -83.5v-187l108 -19v-41h-282v41l77 19v420l-77 19v41h144l22 -132h4q23 68 61.5 105t86.5 37q39 0 65 -24.5t26 -65.5q0 -30 -15.5 -47.5t-41.5 -17.5t-41 16.5t-15 43.5q0 6 1 11t4 16z" />
    <glyph glyph-name="s" unicode="s" horiz-adv-x="503" 
d="M244 36q57 0 92 22.5t35 64.5q0 25 -13 42t-33.5 29t-46 20.5t-49.5 15.5q-31 9 -60.5 21t-53 30.5t-37.5 45t-14 64.5q0 72 52.5 115.5t146.5 43.5q80 0 126.5 -33.5t46.5 -91.5q0 -32 -14 -50t-40 -18q-23 0 -38 14t-15 36q0 19 10 34.5t26 22.5q-15 21 -38.5 30.5
t-60.5 9.5q-120 0 -120 -85q0 -23 8 -38t24 -26t39.5 -19.5t54.5 -18.5q34 -11 67 -23t59.5 -30t43 -45t16.5 -67q0 -39 -16 -69t-45 -50.5t-69 -31.5t-88 -11q-89 0 -142.5 35.5t-53.5 97.5q0 32 14.5 50.5t41.5 18.5q24 0 40.5 -14t16.5 -37q0 -19 -10.5 -36t-25.5 -25
q13 -20 46.5 -32t76.5 -12z" />
    <glyph glyph-name="b" unicode="b" horiz-adv-x="601" 
d="M555 275q0 -66 -19 -123.5t-53 -96.5q-56 -65 -161 -65q-51 0 -91 23.5t-71 87.5l-30 -101h-47v720l-77 19v41h174v-298q30 38 67 53t83 15q51 0 92.5 -15t67.5 -48q31 -38 48 -93t17 -119zM180 274q0 -123 35 -179q16 -26 39 -39.5t61 -13.5q68 0 101 47q18 26 26 72
t8 106q0 120 -35 178q-17 26 -40 39.5t-61 13.5q-35 0 -60 -11.5t-39 -34.5q-17 -28 -26 -72.5t-9 -105.5z" />
    <glyph glyph-name="t" unicode="t" horiz-adv-x="341" 
d="M9 526l97 14l13 126l84 12v-138h128v-50h-128v-357q0 -34 1 -46.5t4 -20.5t11 -10t26 -2h70v-29q-48 -18 -84.5 -26.5t-58.5 -8.5q-45 0 -58 37q-5 12 -6.5 30.5t-1.5 56.5v376h-97v36z" />
    <glyph glyph-name="u" unicode="u" horiz-adv-x="633" 
d="M193 257q0 -32 1 -56t2.5 -41t4.5 -29t8 -21q23 -49 84 -49q27 0 52 10t44 27q22 20 32.5 46.5t12.5 68.5v267l-87 19v41h184v-480l77 -19v-41l-155 -10l-11 110h-4q-29 -51 -79 -80.5t-107 -29.5q-38 0 -69.5 14t-49.5 40q-20 28 -28.5 78.5t-8.5 136.5v221l-67 19v41
h164v-283z" />
    <glyph glyph-name="v" unicode="v" horiz-adv-x="593" 
d="M245 -10l-178 490l-56 19v41h224v-41l-66 -19l141 -419h4l141 419l-62 19v41h190v-41l-58 -19l-177 -490h-103z" />
    <glyph glyph-name="w" unicode="w" horiz-adv-x="877" 
d="M271 120l12 -59h5l12 59l117 430h72l121 -430l12 -59h4l12 59l100 360l-65 19v41h190v-41l-54 -19l-149 -490h-103l-119 390l-116 -390h-103l-153 490l-53 19v41h224v-41l-69 -19z" />
    <glyph glyph-name="x" unicode="x" horiz-adv-x="573" 
d="M303 321l117 159l-60 19v41h188v-41l-57 -19l-162 -193l177 -228l55 -18v-41h-219v41l57 19l-129 166l-124 -166l60 -19v-41h-188v41l56 19l170 200l-170 220l-56 19v41h207v-41l-44 -19z" />
    <glyph glyph-name="y" unicode="y" horiz-adv-x="590" 
d="M348 24q-21 -58 -38.5 -99t-36.5 -66.5t-42.5 -37t-56.5 -11.5q-24 0 -44.5 6.5t-36 18.5t-24.5 28t-9 35q0 28 16 46.5t42 18.5q23 0 36.5 -12.5t13.5 -34.5q0 -14 -5.5 -27t-14.5 -23q2 -11 11.5 -14t17.5 -3q10 0 19.5 3t19 14.5t20 32.5t22.5 57l12 37l-207 487
l-60 19v41h224l8 -41l-71 -19l149 -392h4l126 392l-58 19v41h190v-41l-61 -19z" />
    <glyph glyph-name="z" unicode="z" horiz-adv-x="538" 
d="M430 192h57v-192h-443v56l328 428h-234l-24 -131h-57v187h426v-56l-328 -428h255z" />
    <glyph glyph-name="g" unicode="g" horiz-adv-x="560" 
d="M507 -10q0 -38 -16.5 -70t-48 -55t-77 -36t-102.5 -13q-115 0 -174 32.5t-59 92.5q0 47 28 72t77 33v4q-66 19 -66 78q0 31 22.5 57.5t70.5 43.5q-50 18 -76.5 56t-26.5 93q0 40 14.5 71.5t41 54t64 34.5t84.5 12q93 0 147 -46l34 12l92 44h17v-88h-17l-70 8h-34
q29 -40 29 -96q0 -79 -54 -124.5t-151 -45.5q-11 0 -20.5 0.5t-19.5 1.5q-79 -12 -79 -59q0 -23 18 -31.5t70 -8.5h116q82 0 124 -30.5t42 -96.5zM232 40q-67 0 -97 -23t-30 -60q0 -91 156 -91q85 0 129.5 25.5t44.5 76.5q0 40 -30.5 56t-107.5 16h-65zM147 382
q0 -60 27 -91t86 -31t86 31t27 91t-27 91t-86 31t-86 -31t-27 -91z" />
    <glyph glyph-name="I" unicode="I" horiz-adv-x="374" 
d="M237 64l94 -21v-43h-288v43l94 21v592l-94 21v43h288v-43l-94 -21v-592z" />
    <glyph glyph-name="H" unicode="H" horiz-adv-x="803" 
d="M671 64l84 -21v-43h-268v43l84 21v277h-339v-277l84 -21v-43h-268v43l84 21v592l-84 21v43h268v-43l-84 -21v-257h339v257l-84 21v43h268v-43l-84 -21v-592z" />
    <glyph glyph-name="O" unicode="O" horiz-adv-x="764" 
d="M711 368q0 -88 -26 -164t-74 -127q-81 -87 -231 -87q-153 0 -231 84q-46 48 -71 120.5t-25 157.5q0 88 26 164t74 127q42 45 97.5 66t131.5 21q151 0 232 -84q47 -48 72 -120.5t25 -157.5zM168 372q0 -84 14 -148t40 -105q50 -74 163 -74q106 0 156 66q55 75 55 243
q0 83 -14 146t-41 102q-52 74 -162 74q-105 0 -156 -66q-55 -73 -55 -238z" />
    <glyph glyph-name="D" unicode="D" horiz-adv-x="766" 
d="M387 60q106 0 156 66q55 70 55 228q0 156 -55 232q-52 74 -166 74h-145v-600h155zM384 720q149 0 232 -84q47 -48 72 -118t25 -150q0 -85 -26 -158t-74 -123q-42 -45 -100 -66t-138 -21h-327v43l84 21v592l-84 21v43h336z" />
    <glyph glyph-name="E" unicode="E" horiz-adv-x="685" 
d="M421 238l-18 102h-166v-280h302l31 163h58v-223h-585v43l94 21v592l-94 21v43h563v-212h-52l-32 154h-285v-262h166l18 102h51v-264h-51z" />
    <glyph glyph-name="P" unicode="P" horiz-adv-x="631" 
d="M356 341q28 0 52.5 8.5t38.5 22.5q20 21 34 55t14 73q0 38 -13.5 69.5t-34.5 56.5q-17 17 -41.5 26.5t-53.5 9.5h-120v-321h124zM232 283v-219l95 -21v-43h-279v43l84 21v592l-84 21v43h331q47 0 85.5 -12.5t64.5 -35.5q35 -32 55.5 -75t20.5 -91q0 -50 -21.5 -96.5
t-56.5 -77.5q-26 -23 -65 -36t-84 -13h-146z" />
    <glyph glyph-name="T" unicode="T" horiz-adv-x="658" 
d="M627 720v-210h-52l-32 150h-164v-593l106 -24v-43h-312v43l106 24v593h-165l-31 -150h-52v210h596z" />
    <glyph glyph-name="R" unicode="R" horiz-adv-x="706" 
d="M543 382q-18 -14 -42 -24t-59 -17q18 -18 40 -54l133 -225l89 -19v-43h-206v43l-144 280h-122v-259l95 -21v-43h-279v43l84 21v592l-84 21v43h344q48 0 84 -9t65 -29q37 -24 57.5 -66t20.5 -84t-20.5 -82.5t-55.5 -67.5zM375 381q55 0 91 31q20 18 31.5 48.5t11.5 65.5
t-11.5 63.5t-32.5 46.5q-17 14 -39.5 20t-54.5 6h-139v-281h143z" />
    <glyph glyph-name="F" unicode="F" horiz-adv-x="636" 
d="M421 227l-17 102h-167v-262l117 -19v-48h-311v43l94 24v589l-94 21v43h563v-214h-54l-32 156h-283v-273h167l17 102h51v-264h-51z" />
    <glyph glyph-name="L" unicode="L" horiz-adv-x="629" 
d="M237 60h272l34 173h55v-233h-555v43l94 21v592l-94 21v43h298v-43l-104 -21v-596z" />
    <glyph glyph-name="Q" unicode="Q" horiz-adv-x="764" 
d="M711 368q0 -88 -26 -164t-74 -127q-37 -40 -86 -60.5t-112 -25.5v-4l127 -81q38 -24 81 -24q16 0 27.5 4t26.5 15l16 -27q-20 -32 -51 -45.5t-76 -13.5q-56 0 -98 19t-65 57l-60 101q-122 9 -192 82q-46 48 -71 120.5t-25 157.5q0 88 26 164t74 127q42 45 97 66t132 21
q151 0 232 -84q47 -48 72 -120.5t25 -157.5zM168 374q0 -85 14 -150.5t40 -104.5q49 -74 162 -74q107 0 157 66q55 75 55 243q0 83 -14 146t-41 102q-52 74 -162 74q-105 0 -156 -66q-55 -71 -55 -236z" />
    <glyph glyph-name="C" unicode="C" horiz-adv-x="684" 
d="M371 676q-95 0 -142 -62q-30 -39 -47 -102.5t-17 -139.5q0 -72 15 -133.5t42 -103.5t65.5 -61.5t96.5 -19.5q89 0 142 42.5t67 126.5h55q-23 -118 -90 -175.5t-184 -57.5q-138 0 -220 80q-49 48 -75 120.5t-26 162.5q0 101 33 182.5t93 131.5q76 63 201 63
q31 0 55.5 -3.5t45.5 -12t39.5 -22.5t37.5 -35l20 63h55v-221h-61q-29 177 -201 177z" />
    <glyph glyph-name="G" unicode="G" horiz-adv-x="753" 
d="M375 55q170 0 170 168v70l-84 21v45h268v-45l-84 -21v-293h-52l-25 79q-44 -48 -90 -68.5t-109 -20.5q-137 0 -219 84q-47 48 -72 119t-25 159q0 89 26.5 165t74.5 127q81 86 219 86q60 0 102.5 -18.5t80.5 -60.5l22 69h55v-221h-61q-29 177 -203 177q-51 0 -85 -16.5
t-59 -51.5q-29 -42 -45 -106t-16 -136q0 -75 17.5 -137.5t49.5 -106.5q26 -35 59.5 -51t84.5 -16z" />
    <glyph glyph-name="B" unicode="B" horiz-adv-x="684" 
d="M601 547q0 -29 -10 -55t-28 -46.5t-42.5 -34t-53.5 -17.5v-4q78 -17 123 -66.5t45 -122.5q0 -57 -29.5 -104t-74.5 -70q-14 -7 -30.5 -12t-38.5 -8.5t-50 -5t-65 -1.5h-299v43l84 21v592l-84 21v43h336q105 0 162 -51q26 -24 40.5 -56t14.5 -66zM232 347v-287h110
q46 0 74 5t47 16q27 16 44 48t17 77q0 38 -13 66.5t-33 45.5q-18 15 -46 22t-72 7h-128zM232 405h125q70 0 103 35q15 16 26 40.5t11 56.5q0 31 -11 55.5t-26 39.5q-30 30 -99 30h-129v-257z" />
    <glyph glyph-name="Z" unicode="Z" horiz-adv-x="647" 
d="M543 223h57v-223h-563v61l426 599h-311l-32 -152h-52v212h509v-61l-426 -599h360z" />
    <glyph glyph-name="J" unicode="J" horiz-adv-x="583" 
d="M365 656l-99 21v43h278v-43l-79 -21v-438q0 -52 -17 -94t-48 -72t-74.5 -46.5t-96.5 -16.5q-47 0 -86 13.5t-66.5 38t-43 59t-15.5 75.5q0 84 66 84q29 0 46 -16t17 -42q0 -23 -13 -46.5t-30 -31.5q0 -32 34.5 -54t89.5 -22q71 0 104 39.5t33 120.5v449z" />
    <glyph glyph-name="U" unicode="U" horiz-adv-x="772" 
d="M592 656l-84 21v43h231v-43l-84 -21v-413q0 -125 -66.5 -189.5t-196.5 -64.5q-134 0 -205 66t-71 189v412l-84 21v43h268v-43l-84 -21v-395q0 -217 198 -217q94 0 136 50.5t42 164.5v397z" />
    <glyph glyph-name="N" unicode="N" horiz-adv-x="801" 
d="M132 656l-84 21v43h191l374 -553v489l-84 21v43h233v-43l-84 -21v-656h-71l-410 599v-535l84 -21v-43h-233v43l84 21v592z" />
    <glyph glyph-name="A" unicode="A" horiz-adv-x="721" 
d="M473 242h-268l-61 -178l83 -21v-43h-234v43l82 21l240 666h93l237 -666l80 -21v-43h-275v43l82 21zM225 300h229l-108 341h-4z" />
    <glyph glyph-name="V" unicode="V" horiz-adv-x="716" 
d="M377 83h4l186 573l-83 21v43h234v-43l-82 -21l-224 -656h-98l-243 656l-80 21v43h270v-43l-82 -21z" />
    <glyph glyph-name="W" unicode="W" horiz-adv-x="1041" 
d="M892 657l-79 20v43h229v-43l-83 -21l-190 -656h-104l-147 481l-133 -481h-104l-208 656l-78 21v43h284v-43l-96 -21l165 -562h4l136 502l-13 60l-78 21v43h264v-43l-92 -21l164 -562h4z" />
    <glyph glyph-name="K" unicode="K" horiz-adv-x="741" 
d="M237 366l280 290l-91 21v43h263v-43l-88 -21l-234 -232l299 -362l84 -19v-43h-279v43l66 20l-237 293l-63 -60v-232l84 -21v-43h-278v43l94 21v592l-94 21v43h278v-43l-84 -21v-290z" />
    <glyph glyph-name="Y" unicode="Y" horiz-adv-x="678" 
d="M533 656l-81 21v43h227v-43l-82 -21l-204 -374v-218l94 -21v-43h-288v43l94 21v202l-215 390l-83 21v43h276v-43l-84 -21l172 -320z" />
    <glyph glyph-name="S" unicode="S" horiz-adv-x="599" 
d="M321 -11q-60 0 -108 18t-80 51l-11 -58h-56v227h61q6 -96 47.5 -139.5t127.5 -43.5q143 0 143 109q0 32 -12.5 56t-35.5 43.5t-56.5 36t-75.5 33.5q-48 19 -84.5 37.5t-61 42t-37.5 54t-13 74.5q0 95 59.5 148t159.5 53q99 0 161 -56l8 45h56v-227h-57q0 97 -35.5 140.5
t-113.5 43.5q-137 0 -137 -125q0 -25 6 -42.5t22.5 -32.5t44.5 -29t72 -33q62 -27 106 -51.5t71.5 -51.5t40.5 -58t13 -70q0 -46 -16.5 -82.5t-46 -61.5t-71 -38t-91.5 -13z" />
    <glyph glyph-name="X" unicode="X" horiz-adv-x="740" 
d="M237 656l141 -224l168 224l-91 21v43h263v-43l-98 -21l-206 -270l214 -322l106 -21v-43h-327l-2 43l103 21l-157 251l-177 -251l109 -21v-43h-272v43l93 21l211 294l-195 298l-106 21v43h317v-43z" />
    <glyph glyph-name="M" unicode="M" horiz-adv-x="961" 
d="M679 720h234v-43l-84 -21v-592l84 -21v-43h-257v43l73 21v591l-206 -655h-118l-208 655v-591l73 -21v-43h-222v43l84 21v592l-84 21v43h238l196 -629h4z" />
    <glyph glyph-name="zero" unicode="0" horiz-adv-x="674" 
d="M57 360q0 97 21 170t62 122q36 44 82.5 61t114.5 17t114.5 -17t82.5 -61q41 -49 62 -122t21 -170t-21 -170t-62 -122q-36 -44 -82.5 -61t-114.5 -17t-114.5 17t-82.5 61q-41 49 -62 122t-21 170zM505 360q0 88 -11 151t-34 102q-19 32 -47 47.5t-76 15.5t-76 -15.5
t-47 -47.5q-23 -39 -34 -102t-11 -151t11 -151t34 -102q19 -32 47 -47.5t76 -15.5t76 15.5t47 47.5q23 39 34 102t11 151z" />
    <glyph glyph-name="one" unicode="1" horiz-adv-x="400" 
d="M172 633h-127v51q18 0 41.5 3t46 9t41 14.5t27.5 19.5h68v-670l107 -19v-41h-331v41l127 19v573z" />
    <glyph glyph-name="two" unicode="2" horiz-adv-x="589" 
d="M447 95l24 128h55v-223h-475v66q0 52 27 95.5t67.5 82t88 74.5t88 73.5t67.5 79t27 91.5q0 56 -37 85.5t-107 29.5q-121 0 -142 -97q32 0 49 -16t17 -45t-17 -45t-48 -16q-67 0 -67 83q0 43 16.5 78t46.5 60t72 38.5t93 13.5t92.5 -13.5t71 -39t45.5 -61.5t16 -80
q0 -61 -28.5 -108t-71.5 -84t-92.5 -67l-92.5 -58.5t-71.5 -58.5t-28.5 -66h315z" />
    <glyph glyph-name="four" unicode="4" horiz-adv-x="559" 
d="M321 213h-292l-11 44l321 473h79v-460h109l-10 -57h-99v-153l77 -19v-41h-271v41l97 19v153zM87 270h234v348z" />
    <glyph glyph-name="three" unicode="3" horiz-adv-x="580" 
d="M511 543q0 -66 -38 -111t-104 -56v-4q153 -33 153 -177q0 -46 -17.5 -83.5t-49.5 -64.5t-77 -42t-100 -15q-50 0 -91.5 14t-71 38.5t-46 59t-16.5 76.5q0 85 70 85q29 0 45.5 -16.5t16.5 -45.5q0 -27 -18 -43.5t-48 -16.5q18 -97 147 -97q74 0 111 35t37 103
q0 77 -48.5 122t-133.5 45v48q40 0 73 11.5t56.5 32.5t36.5 50.5t13 65.5q0 58 -34.5 89t-99.5 31q-128 0 -144 -87q31 0 48.5 -15.5t17.5 -44.5t-17.5 -45.5t-46.5 -16.5q-35 0 -54.5 23.5t-19.5 65.5q0 39 16.5 71t46.5 55t72 35.5t92 12.5q49 0 90.5 -13.5t70.5 -38.5
t45.5 -59.5t16.5 -76.5z" />
    <glyph glyph-name="eight" unicode="8" horiz-adv-x="572" 
d="M486 571q0 -57 -28.5 -104t-80.5 -78q75 -41 108.5 -86t33.5 -105q0 -47 -18 -85.5t-51 -65.5t-79 -42t-102 -15q-103 0 -159.5 49.5t-56.5 138.5q0 64 32.5 112t102.5 88q-28 20 -47.5 39t-31.5 39t-17.5 42t-5.5 48q0 87 55 136t153 49q91 0 141.5 -42.5t50.5 -117.5z
M229 352q-55 -32 -80.5 -74t-25.5 -99q0 -135 147 -135q151 0 151 123q0 24 -9 44.5t-31.5 42t-59.5 45t-92 53.5zM334 415q43 21 67.5 62t24.5 90q0 110 -130 110q-125 0 -125 -103q0 -24 8.5 -44t28 -39t50.5 -37.5t76 -38.5z" />
    <glyph glyph-name="nine" unicode="9" horiz-adv-x="603" 
d="M445 370q-28 -37 -75 -58t-102 -21q-48 0 -87 16t-67 44.5t-43.5 69t-15.5 90.5q0 103 64 161.5t175 58.5q128 0 189 -85.5t61 -265.5q0 -193 -67.5 -291.5t-200.5 -98.5q-90 0 -143.5 44.5t-53.5 119.5q0 85 68 85q29 0 46.5 -16t17.5 -45q0 -28 -17.5 -44.5
t-48.5 -16.5q11 -72 119 -72q50 0 85.5 15.5t58 49t33 86t10.5 127.5v27t-2 20h-4zM162 511q0 -163 133 -163t133 163q0 165 -133 165t-133 -165z" />
    <glyph glyph-name="seven" unicode="7" horiz-adv-x="513" 
d="M262 54q0 -29 -12 -46.5t-39 -17.5q-29 0 -40.5 16.5t-11.5 48.5q0 35 9 80t25.5 96t39.5 104.5t50.5 105t58.5 99t64 85.5h-295l-19 -117h-52v212h459v-61q-50 -59 -93.5 -133t-75.5 -154t-50 -162t-18 -156z" />
    <glyph glyph-name="five" unicode="5" horiz-adv-x="550" 
d="M441 625h-275l-33 -218q29 22 63 33t78 11q52 0 94.5 -15.5t73 -45t47 -71t16.5 -92.5q0 -53 -18 -97t-50 -75t-78 -48t-101 -17q-48 0 -87.5 13t-67 35.5t-43 52t-15.5 62.5q0 45 22 70.5t52 25.5t45 -18t15 -42t-17.5 -43t-49.5 -19q8 -37 48 -61t98 -24q40 0 66.5 13
t42.5 36.5t23 56.5t7 74q0 40 -6.5 72t-22.5 54.5t-42.5 35t-65.5 12.5q-40 0 -78 -12.5t-58 -37.5l-48 20l57 354h288l18 32h42z" />
    <glyph glyph-name="section" unicode="&#xa7;" horiz-adv-x="530" 
d="M482 250q0 -52 -25 -91.5t-70 -62.5q29 -26 42 -55t13 -66q0 -78 -52 -121.5t-144 -43.5q-82 0 -129 33.5t-47 91.5q0 32 14 50t40 18q23 0 38 -14t15 -36q0 -19 -10 -34.5t-26 -22.5q15 -21 38.5 -30.5t62.5 -9.5q61 0 89.5 22.5t28.5 70.5q0 26 -7.5 44t-23.5 32.5
t-39.5 27.5t-55.5 29q-35 17 -68 36t-59.5 43.5t-42.5 55.5t-16 73q0 52 25 91.5t69 62.5q-29 25 -41.5 54t-12.5 66q0 79 51.5 122.5t144.5 43.5q82 0 129 -33.5t47 -91.5q0 -32 -14 -50t-40 -18q-23 0 -38 14t-15 36q0 18 10 33.5t26 23.5q-16 21 -39.5 30.5t-62.5 9.5
q-60 0 -88.5 -22t-28.5 -70q0 -27 8.5 -45.5t25 -33.5t39.5 -27.5l53 -27.5q35 -17 68.5 -36t59.5 -43.5t42 -55.5t16 -73zM253 377q-11 5 -30 15t-44 25q-20 -12 -32 -40.5t-12 -58.5q0 -49 34 -84t108 -72l28 -14t50 -27q20 15 30 43t10 57q0 25 -8 45.5t-25.5 39
t-44.5 35.5t-64 36z" />
    <glyph glyph-name="cent" unicode="&#xa2;" horiz-adv-x="551" 
d="M266 -9q-62 5 -107.5 32.5t-71.5 78.5q-17 32 -26.5 73.5t-9.5 88.5q0 58 14.5 107t42.5 86t68 60t90 30v105h47v-102q43 0 79 -11.5t61.5 -32t39.5 -49.5t14 -64q0 -76 -62 -76q-29 0 -45 16t-16 43q0 25 13.5 43t36.5 25q-32 55 -121 55v-442q46 0 88 20t72 57l30 -24
q-37 -57 -83 -85.5t-107 -33.5v-99h-47v99zM182 134q26 -54 84 -71v430q-58 -14 -84 -66t-26 -148q0 -95 26 -145z" />
    <glyph glyph-name="schwa" unicode="&#x259;" 
d="M396 276q0 73 -20 121q-20 47 -56.5 66.5t-80.5 19.5q-48 0 -86.5 -19.5t-69.5 -53.5l-32 24q18 24 38.5 45t46.5 37t58 25t71 9q69 0 122 -29.5t81 -86.5q15 -31 22 -68.5t7 -81.5q0 -141 -64 -217.5t-176 -76.5q-103 0 -158 63.5t-55 175.5q0 10 0.5 18.5t2.5 28.5h349
zM263 44q120 0 132 183h-250v-33q0 -72 30.5 -111t87.5 -39z" />
    <glyph glyph-name="mu" unicode="&#xb5;" horiz-adv-x="668" 
d="M113 480l-67 19v41h164v-283q0 -32 1 -56t2.5 -41t4.5 -29t8 -21q23 -49 84 -49q26 0 51 10t45 27q21 20 31.5 46.5t13.5 68.5v267l-87 19v41h184v-480l77 -19v-41l-155 -10l-11 110h-4q-32 -53 -74.5 -81.5t-88.5 -28.5q-72 0 -88 69h-4l10 -238h-97v659z" />
    <glyph glyph-name="uni03BC" unicode="&#x3bc;" horiz-adv-x="639" 
d="M99 480l-67 19v41h164v-283q0 -32 1 -56t2.5 -41t4.5 -29t8 -21q23 -49 84 -49q26 0 51 10t45 27q21 20 31.5 46.5t13.5 68.5v267l-87 19v41h184v-480l77 -19v-41l-155 -10l-11 110h-4q-32 -53 -74.5 -81.5t-88.5 -28.5q-72 0 -88 69h-4l10 -238h-97v659z" />
    <glyph glyph-name="kgreenlandic" unicode="&#x138;" horiz-adv-x="607" 
d="M440 60l-154 208l-76 -64v-144l77 -19v-41h-251v41l77 19v420l-77 19v41h174v-289l213 229l-66 19v41h215v-41l-73 -19l-151 -155l199 -267l53 -17v-41h-219v41z" />
    <glyph glyph-name="eng" unicode="&#x14b;" horiz-adv-x="629" 
d="M459 283q0 64 -3.5 96.5t-12.5 50.5q-25 49 -88 49q-28 0 -54 -10t-46 -27q-22 -20 -32.5 -46.5t-12.5 -68.5v-267l67 -19v-41h-241v41l77 19v420l-77 19v41h144l22 -100h4q30 51 80.5 80.5t109.5 29.5q40 0 72 -14t51 -40q20 -28 28.5 -78.5t8.5 -136.5v-196
q0 -74 -5 -116.5t-17 -69.5q-19 -43 -55 -66t-84 -23q-54 0 -88.5 26.5t-34.5 68.5q0 26 14.5 41.5t38.5 15.5q49 0 49 -55q0 -29 -16 -45q2 -7 12.5 -11t26.5 -4q35 0 48.5 28t13.5 101v307z" />
    <glyph glyph-name="thorn" unicode="&#xfe;" horiz-adv-x="600" 
d="M554 275q0 -60 -19 -116t-52 -94q-56 -65 -161 -65q-48 0 -82 18t-60 57v-195l97 -19v-41h-271v41l77 19v840l-77 19v41h174v-298q28 35 63.5 51.5t86.5 16.5q109 0 160 -63q31 -38 47.5 -93t16.5 -119zM180 274q0 -59 8.5 -99.5t26.5 -69.5q32 -53 100 -53q33 0 59 12
t42 35t24.5 66.5t8.5 101.5q0 60 -8 104.5t-26 73.5q-17 28 -41.5 40.5t-59.5 12.5q-73 0 -99 -46q-35 -59 -35 -178z" />
    <glyph glyph-name="AE" unicode="&#xc6;" horiz-adv-x="1057" 
d="M793 238l-18 102h-166v-280h302l31 163h58v-223h-585v43l94 21v178h-252l-98 -178l79 -21v-43h-247v43l94 21l337 602l-84 11v43h640v-212h-52l-32 154h-285v-262h166l18 102h51v-264h-51zM486 659l-197 -359h220v356z" />
    <glyph glyph-name="ij" unicode="&#x133;" horiz-adv-x="596" 
d="M36 499v41h174v-480l77 -19v-41h-251v41l77 19v420zM99 701q0 29 16.5 46t45.5 17t46 -17t17 -46t-17 -45.5t-46 -16.5t-45.5 16.5t-16.5 45.5zM513 85q0 -74 -5 -116.5t-17 -69.5q-19 -43 -55 -66t-84 -23q-54 0 -88.5 26.5t-34.5 68.5q0 26 14.5 41.5t38.5 15.5
q49 0 49 -55q0 -29 -16 -45q2 -7 12.5 -11t26.5 -4q35 0 48.5 28t13.5 101v504l-77 19v41h174v-455zM402 701q0 29 16.5 46t45.5 17t46 -17t17 -46t-17 -45.5t-46 -16.5t-45.5 16.5t-16.5 45.5z" />
    <glyph glyph-name="uni01F3" unicode="&#x1f3;" horiz-adv-x="1158" 
d="M46 265q0 66 17 124t51 96q29 32 68.5 48.5t92.5 16.5q45 0 81 -17t65 -61v248l-77 19v41h174v-720l77 -19v-41l-155 -10l-8 82q-31 -47 -70 -64.5t-87 -17.5q-51 0 -92 15t-68 48q-32 39 -50.5 93.5t-18.5 118.5zM421 266q0 123 -35 179q-16 26 -39 39.5t-61 13.5
q-68 0 -101 -47q-18 -26 -26 -72t-8 -106q0 -120 35 -178q17 -26 40 -39.5t61 -13.5q35 0 60 11.5t39 34.5q17 28 26 72.5t9 105.5zM1050 192h57v-192h-443v56l328 428h-234l-24 -131h-57v187h426v-56l-328 -428h255z" />
    <glyph glyph-name="uni01CC" unicode="&#x1cc;" horiz-adv-x="939" 
d="M113 480l-77 19v41h144l22 -100h4q30 51 80.5 80.5t109.5 29.5q40 0 72 -14t51 -40q20 -28 28.5 -78.5t8.5 -136.5v-221l77 -19v-41h-241v41l67 19v223q0 64 -3.5 96.5t-12.5 50.5q-25 49 -88 49q-28 0 -54 -10t-46 -27q-22 -20 -32.5 -46.5t-12.5 -68.5v-267l67 -19v-41
h-241v41l77 19v420zM856 85q0 -74 -5 -116.5t-17 -69.5q-19 -43 -55 -66t-84 -23q-54 0 -88.5 26.5t-34.5 68.5q0 26 14.5 41.5t38.5 15.5q49 0 49 -55q0 -29 -16 -45q2 -7 12.5 -11t26.5 -4q35 0 48.5 28t13.5 101v504l-77 19v41h174v-455zM745 701q0 29 16.5 46t45.5 17
t46 -17t17 -46t-17 -45.5t-46 -16.5t-45.5 16.5t-16.5 45.5z" />
    <glyph glyph-name="uni01C9" unicode="&#x1c9;" horiz-adv-x="592" 
d="M105 720l-77 19v41h174v-720l77 -19v-41h-251v41l77 19v660zM509 85q0 -74 -5 -116.5t-17 -69.5q-19 -43 -55 -66t-84 -23q-54 0 -88.5 26.5t-34.5 68.5q0 26 14.5 41.5t38.5 15.5q49 0 49 -55q0 -29 -16 -45q2 -7 12.5 -11t26.5 -4q35 0 48.5 28t13.5 101v504l-77 19v41
h174v-455zM398 701q0 29 16.5 46t45.5 17t46 -17t17 -46t-17 -45.5t-46 -16.5t-45.5 16.5t-16.5 45.5z" />
    <glyph glyph-name="uni01C8" unicode="&#x1c8;" horiz-adv-x="907" 
d="M237 60h272l34 173h55v-233h-555v43l94 21v592l-94 21v43h298v-43l-104 -21v-596zM824 85q0 -74 -5 -116.5t-17 -69.5q-19 -43 -55 -66t-84 -23q-54 0 -88.5 26.5t-34.5 68.5q0 26 14.5 41.5t38.5 15.5q49 0 49 -55q0 -29 -16 -45q2 -7 12.5 -11t26.5 -4q35 0 48.5 28
t13.5 101v504l-77 19v41h174v-455zM713 701q0 29 16.5 46t45.5 17t46 -17t17 -46t-17 -45.5t-46 -16.5t-45.5 16.5t-16.5 45.5z" />
    <glyph glyph-name="uni01CB" unicode="&#x1cb;" horiz-adv-x="1074" 
d="M132 656l-84 21v43h191l374 -553v489l-84 21v43h233v-43l-84 -21v-656h-71l-410 599v-535l84 -21v-43h-233v43l84 21v592zM991 85q0 -74 -5 -116.5t-17 -69.5q-19 -43 -55 -66t-84 -23q-54 0 -88.5 26.5t-34.5 68.5q0 26 14.5 41.5t38.5 15.5q49 0 49 -55q0 -29 -16 -45
q2 -7 12.5 -11t26.5 -4q35 0 48.5 28t13.5 101v504l-77 19v41h174v-455zM880 701q0 29 16.5 46t45.5 17t46 -17t17 -46t-17 -45.5t-46 -16.5t-45.5 16.5t-16.5 45.5z" />
    <glyph glyph-name="uni01F1" unicode="&#x1f1;" horiz-adv-x="1407" 
d="M387 60q106 0 156 66q55 70 55 228q0 156 -55 232q-52 74 -166 74h-145v-600h155zM384 720q149 0 232 -84q47 -48 72 -118t25 -150q0 -85 -26 -158t-74 -123q-42 -45 -100 -66t-138 -21h-327v43l84 21v592l-84 21v43h336zM1303 223h57v-223h-563v61l426 599h-311
l-32 -152h-52v212h509v-61l-426 -599h360z" />
    <glyph glyph-name="uni01F2" unicode="&#x1f2;" horiz-adv-x="1304" 
d="M387 60q106 0 156 66q55 70 55 228q0 156 -55 232q-52 74 -166 74h-145v-600h155zM384 720q149 0 232 -84q47 -48 72 -118t25 -150q0 -85 -26 -158t-74 -123q-42 -45 -100 -66t-138 -21h-327v43l84 21v592l-84 21v43h336zM1196 192h57v-192h-443v56l328 428h-234
l-24 -131h-57v187h426v-56l-328 -428h255z" />
    <glyph glyph-name="IJ" unicode="&#x132;" horiz-adv-x="957" 
d="M237 64l94 -21v-43h-288v43l94 21v592l-94 21v43h288v-43l-94 -21v-592zM739 656l-99 21v43h278v-43l-79 -21v-438q0 -52 -17 -94t-48 -72t-74.5 -46.5t-96.5 -16.5q-47 0 -86 13.5t-66.5 38t-43 59t-15.5 75.5q0 84 66 84q29 0 46 -16t17 -42q0 -23 -13 -46.5t-30 -31.5
q0 -32 34.5 -54t89.5 -22q71 0 104 39.5t33 120.5v449z" />
    <glyph glyph-name="uni01C7" unicode="&#x1c7;" horiz-adv-x="1212" 
d="M237 60h272l34 173h55v-233h-555v43l94 21v592l-94 21v43h298v-43l-104 -21v-596zM994 656l-99 21v43h278v-43l-79 -21v-438q0 -52 -17 -94t-48 -72t-74.5 -46.5t-96.5 -16.5q-47 0 -86 13.5t-66.5 38t-43 59t-15.5 75.5q0 84 66 84q29 0 46 -16t17 -42q0 -23 -13 -46.5
t-30 -31.5q0 -32 34.5 -54t89.5 -22q71 0 104 39.5t33 120.5v449z" />
    <glyph glyph-name="uni01CA" unicode="&#x1ca;" horiz-adv-x="1376" 
d="M132 656l-84 21v43h191l374 -553v489l-84 21v43h233v-43l-84 -21v-656h-71l-410 599v-535l84 -21v-43h-233v43l84 21v592zM1158 656l-99 21v43h278v-43l-79 -21v-438q0 -52 -17 -94t-48 -72t-74.5 -46.5t-96.5 -16.5q-47 0 -86 13.5t-66.5 38t-43 59t-15.5 75.5
q0 84 66 84q29 0 46 -16t17 -42q0 -23 -13 -46.5t-30 -31.5q0 -32 34.5 -54t89.5 -22q71 0 104 39.5t33 120.5v449z" />
    <glyph glyph-name="Eng" unicode="&#x14a;" horiz-adv-x="801" 
d="M132 656l-84 21v43h191l373 -553v489l-83 21v43h233v-43l-84 -21v-571q0 -74 -5 -116.5t-17 -69.5q-19 -43 -48.5 -66t-77.5 -23q-27 0 -51.5 7t-43 20t-30 30t-11.5 38q0 26 14.5 41.5t38.5 15.5q49 0 49 -55q0 -29 -16 -45q2 -7 15.5 -11t34.5 -4q37 0 59.5 31.5
t22.5 97.5v17l-415 606v-535l84 -21v-43h-233v43l84 21v592z" />
    <glyph glyph-name="Thorn" unicode="&#xde;" horiz-adv-x="643" 
d="M235 148v-84l95 -21v-43h-279v43l84 21v592l-95 21v43h279v-43l-84 -21v-81h152q55 0 96 -17t69 -46t42 -67t14 -79q0 -44 -14.5 -83.5t-43 -69.5t-69.5 -47.5t-95 -17.5h-151zM364 206q35 0 60 11.5t41.5 32t24.5 48.5t8 62q0 31 -9 59.5t-26 50.5t-43 34.5t-60 12.5
h-125v-311h129z" />
    <glyph glyph-name="germandbls" unicode="&#xdf;" horiz-adv-x="630" 
d="M353 424q0 -12 4 -21t14.5 -19t29 -21t48.5 -26q47 -24 77.5 -43.5t48 -39t24 -40.5t6.5 -47q0 -39 -13.5 -71.5t-38 -56t-58.5 -36.5t-75 -13q-35 0 -64 9.5t-50 26t-33 40t-12 50.5q0 31 15 48.5t41 17.5q25 0 41 -14.5t16 -36.5q0 -18 -10.5 -35.5t-25.5 -25.5
q9 -15 32 -24.5t52 -9.5q45 0 70.5 24t25.5 69q0 17 -4 30t-16 26t-34 28t-58 37q-41 24 -67.5 42.5t-41.5 35.5t-20.5 34t-5.5 39q0 18 3.5 32t14 28t28 29.5t46.5 36.5q33 25 47 50.5t14 61.5q0 54 -28 82.5t-79 28.5q-118 0 -118 -160v-590h-174v41l77 19v490
q0 56 15.5 100.5t44.5 75.5t70.5 47.5t94.5 16.5q85 0 133.5 -41t48.5 -111q0 -40 -17.5 -67.5t-59.5 -53.5q-44 -29 -61.5 -49.5t-17.5 -43.5z" />
    <glyph glyph-name="equal" unicode="=" horiz-adv-x="576" 
d="M74 481h428v-58h-428v58zM74 294h428v-59h-428v59z" />
    <glyph glyph-name="yen" unicode="&#xa5;" horiz-adv-x="744" 
d="M157 341h129l-173 315l-83 21v43h276v-43l-84 -21l169 -315h5l172 315l-81 21v43h227v-43l-82 -21l-172 -315h125v-58h-157v-79h157v-59h-157v-81l94 -21v-43h-288v43l94 21v81h-171v59h171v62l-10 17h-161v58z" />
    <glyph glyph-name="dollar" unicode="$" horiz-adv-x="568" 
d="M263 -10q-52 4 -93.5 19.5t-70 39.5t-43.5 53t-15 60q0 32 16.5 51.5t47.5 19.5q27 0 42.5 -15.5t15.5 -38.5t-13 -39.5t-29 -24.5q21 -29 55.5 -48.5t86.5 -22.5v267l-8.5 3.5t-7.5 3.5q-36 15 -71 32.5t-62 41.5t-44 58t-17 82q0 44 15 80t42.5 62t66 40.5t86.5 16.5
v120h47v-122q45 -5 81 -20.5t61.5 -38t39 -50.5t13.5 -56q0 -32 -16 -51.5t-44 -19.5q-25 0 -41 15t-16 40q0 20 10 35t26 23q-37 62 -114 69v-265q55 -25 96.5 -46t69 -45t41.5 -53.5t14 -72.5q0 -94 -60 -146t-161 -57v-120h-47v120zM423 155q0 25 -8.5 45.5t-24 36.5
t-36 29t-44.5 24v-245q54 7 83.5 35t29.5 75zM154 557q0 -25 6.5 -42.5t20 -32t34 -26.5t48.5 -25v244q-56 -5 -82.5 -35.5t-26.5 -82.5z" />
    <glyph glyph-name="OE" unicode="&#x152;" horiz-adv-x="1072" 
d="M808 238l-18 102h-166v-280h302l31 163h58v-223h-624q-80 0 -138 21t-100 66q-48 50 -74 123t-26 158q0 80 25 150t72 118q83 84 232 84h611v-212h-52l-32 154h-285v-262h166l18 102h51v-264h-51zM524 660h-135q-114 0 -166 -74q-55 -76 -55 -232q0 -158 55 -228
q50 -66 156 -66h145v600z" />
    <glyph glyph-name="period" unicode="." horiz-adv-x="240" 
d="M57 53q0 30 17 47.5t46 17.5t46.5 -18t17.5 -47t-17.5 -46t-46.5 -17q-30 0 -46.5 16.5t-16.5 46.5z" />
    <glyph glyph-name="comma" unicode="," horiz-adv-x="247" 
d="M121 118q32 0 50.5 -22.5t18.5 -60.5q0 -54 -30 -98.5t-94 -85.5l-22 25q43 35 67 66t26 55l-4 3q-2 -4 -9.5 -6.5t-15.5 -2.5q-23 0 -37.5 17.5t-14.5 44.5q0 29 18 47t47 18z" />
    <glyph glyph-name="colon" unicode=":" horiz-adv-x="265" 
d="M69 53q0 30 17 47.5t46 17.5t46.5 -18t17.5 -47t-17.5 -46t-46.5 -17q-30 0 -46.5 16.5t-16.5 46.5zM69 404q0 30 17 47.5t46 17.5t46.5 -18t17.5 -47t-17.5 -46t-46.5 -17q-30 0 -46.5 16.5t-16.5 46.5z" />
    <glyph glyph-name="semicolon" unicode=";" horiz-adv-x="287" 
d="M144 118q32 0 50.5 -22.5t18.5 -60.5q0 -54 -30 -98.5t-94 -85.5l-22 25q43 35 67 66t26 55l-4 3q-2 -4 -9.5 -6.5t-15.5 -2.5q-23 0 -37.5 17.5t-14.5 44.5q0 29 18 47t47 18zM81 404q0 30 17 47.5t46 17.5t46.5 -18t17.5 -47t-17.5 -46t-46.5 -17q-30 0 -46.5 16.5
t-16.5 46.5z" />
    <glyph glyph-name="exclam" unicode="!" horiz-adv-x="285" 
d="M114 205q0 39 -2 83t-4.5 85t-5.5 75t-4 52q-3 37 -8 72.5t-5 77.5q0 35 14.5 57.5t44.5 22.5q31 0 43 -23.5t12 -55.5q0 -42 -5 -78t-8 -73q-2 -18 -4.5 -52t-5 -75t-4.5 -85t-2 -83h-56zM204 52q0 -30 -16 -46t-45 -16t-46 16.5t-17 45.5t16.5 46t45.5 17t45.5 -17
t16.5 -46z" />
    <glyph glyph-name="exclamdown" unicode="&#xa1;" horiz-adv-x="265" 
d="M160 335q0 -39 2 -83t4.5 -85t5 -75t4.5 -52q3 -37 8 -73t5 -78q0 -32 -12 -55.5t-43 -23.5q-30 0 -44.5 22.5t-14.5 57.5q0 42 5 77.5t8 72.5q1 18 4 52t5.5 75t4.5 85t2 83h56zM194 488q0 -29 -16.5 -46t-45.5 -17t-45.5 17t-16.5 46t17 45.5t46 16.5t45 -16t16 -46z
" />
    <glyph glyph-name="question" unicode="?" horiz-adv-x="481" 
d="M182 205q0 30 5 55t16.5 49t31.5 48.5t50 54.5q35 35 50 67t15 72q0 60 -30 92.5t-87 32.5q-20 0 -39 -4t-33 -11t-22.5 -15.5t-8.5 -18.5q20 -11 31.5 -30.5t11.5 -41.5q0 -28 -18.5 -46t-47.5 -18q-32 0 -52.5 24.5t-20.5 62.5q0 32 16 60t44 48.5t66 32.5t82 12
q46 0 84.5 -13t66 -36t43 -55t15.5 -70q0 -45 -21.5 -84t-73.5 -86q-35 -32 -58 -56.5t-36.5 -45t-18.5 -39.5t-5 -41h-56zM272 52q0 -29 -16 -45.5t-45 -16.5t-46 16.5t-17 45.5t16.5 46t45.5 17t45.5 -17t16.5 -46z" />
    <glyph glyph-name="questiondown" unicode="&#xbf;" horiz-adv-x="476" 
d="M297 336q0 -30 -5 -55t-16.5 -49t-31.5 -48.5t-50 -54.5q-35 -35 -50 -67t-15 -72q0 -60 30 -92.5t87 -32.5q20 0 38.5 4t33 10.5t23 15.5t8.5 19q-20 11 -31.5 30.5t-11.5 41.5q0 28 18.5 46t47.5 18q32 0 52.5 -24.5t20.5 -62.5q0 -32 -16 -60t-44 -48.5t-66 -32.5
t-82 -12q-46 0 -84.5 13t-66 36t-43 55t-15.5 70q0 45 21.5 84t73.5 86q35 32 58 56.5t36.5 45t18.5 39.5t5 41h56zM207 489q0 29 16 45.5t45 16.5t46 -16.5t17 -45.5t-16.5 -46t-45.5 -17t-45.5 17t-16.5 46z" />
    <glyph glyph-name="hyphen" unicode="-" horiz-adv-x="389" 
d="M69 311h251v-67h-251v67z" />
    <glyph glyph-name="endash" unicode="&#x2013;" horiz-adv-x="618" 
d="M62 307h494v-58h-494v58z" />
    <glyph glyph-name="emdash" unicode="&#x2014;" horiz-adv-x="927" 
d="M63 307h801v-58h-801v58z" />
    <glyph glyph-name="underscore" unicode="_" horiz-adv-x="632" 
d="M69 0h494v-58h-494v58z" />
    <glyph glyph-name="bar" unicode="|" horiz-adv-x="245" 
d="M94 770h57v-940h-57v940z" />
    <glyph glyph-name="dotaccent" unicode="&#x2d9;" horiz-adv-x="185" 
d="M30 701q0 29 16.5 46t45.5 17t46 -17t17 -46t-17 -45.5t-46 -16.5t-45.5 16.5t-16.5 45.5z" />
    <glyph glyph-name="dieresis" unicode="&#xa8;" horiz-adv-x="407" 
d="M30 705q0 28 15.5 43.5t42.5 15.5t43 -16t16 -43t-15.5 -42.5t-43.5 -15.5q-27 0 -42.5 15.5t-15.5 42.5zM260 705q0 28 15.5 43.5t42.5 15.5t43 -16t16 -43t-15.5 -42.5t-43.5 -15.5q-27 0 -42.5 15.5t-15.5 42.5z" />
    <glyph glyph-name="parenleft" unicode="(" horiz-adv-x="371" 
d="M44 353q0 99 21 185t60 153t93.5 112t120.5 62l21 -49q-48 -11 -88 -50t-68 -100t-43.5 -141.5t-15.5 -173.5q0 -95 15 -174t42.5 -138.5t66.5 -96t86 -46.5l-26 -55q-63 13 -115 55.5t-90 109t-59 155t-21 192.5z" />
    <glyph glyph-name="parenright" unicode=")" horiz-adv-x="371" 
d="M327 353q0 -104 -21 -192.5t-59 -155t-90 -109t-115 -55.5l-26 55q47 10 86 46.5t66.5 96t42.5 138.5t15 174q0 93 -15.5 173.5t-43.5 141.5t-68 100t-88 50l21 49q66 -17 120.5 -62t93.5 -112t60 -153t21 -185z" />
    <glyph glyph-name="bracketleft" unicode="[" horiz-adv-x="368" 
d="M93 855h251v-60h-162v-884h162v-60h-251v1004z" />
    <glyph glyph-name="bracketright" unicode="]" horiz-adv-x="368" 
d="M275 -149h-251v60h162v884h-162v60h251v-1004z" />
    <glyph glyph-name="brokenbar" unicode="&#xa6;" horiz-adv-x="249" 
d="M96 248h57v-418h-57v418zM96 770h57v-402h-57v402z" />
    <glyph glyph-name="logicalnot" unicode="&#xac;" horiz-adv-x="576" 
d="M74 398h424v-209h-60v139h-364v70z" />
    <glyph glyph-name="Schwa" unicode="&#x18f;" horiz-adv-x="698" 
d="M530 368q0 55 -9.5 106t-26.5 90q-26 58 -69.5 85t-111.5 27t-118.5 -26.5t-88.5 -82.5l-33 29q49 71 106.5 102.5t141.5 31.5q97 0 167 -38.5t110 -114.5q23 -45 35 -99t12 -116q0 -85 -22.5 -154t-64 -117.5t-100.5 -74.5t-132 -26q-66 0 -118 21.5t-88 62t-55 99.5
t-19 133q0 14 1 26.5t3 35.5h480zM335 44q85 0 135 66t59 193h-369v-43q0 -100 47 -158t128 -58z" />
    <glyph glyph-name="Euro" unicode="&#x20ac;" horiz-adv-x="727" 
d="M43 463h107q21 131 92 199t189 68q52 0 96.5 -12.5t77.5 -35t52 -52.5t19 -65q0 -33 -16 -52.5t-44 -19.5q-26 0 -41.5 15.5t-15.5 39.5q0 19 9.5 34.5t26.5 23.5q-20 32 -62 50.5t-92 18.5q-157 0 -184 -212h194v-60h-199q-1 -11 -1 -22.5v-23.5v-25.5t1 -23.5h199v-61
h-193q14 -98 58.5 -143.5t122.5 -45.5q75 0 121.5 38.5t56.5 108.5h55q-20 -110 -80.5 -162.5t-166.5 -52.5q-238 0 -276 257h-106v61h100q-1 11 -1 21.5v21.5v26.5t1 25.5h-100v60z" />
    <glyph glyph-name="braceleft" unicode="{" horiz-adv-x="404" 
d="M6 386h34q55 0 80 26.5t25 85.5q0 14 -1 37t-2.5 47.5t-2.5 47.5t-1 37q0 91 58 136.5t184 51.5v-60q-81 -5 -114.5 -31.5t-33.5 -84.5q0 -9 0.5 -29t1.5 -42.5t1.5 -44.5t0.5 -34q0 -69 -25.5 -108t-83.5 -59v-5q58 -14 83.5 -53.5t25.5 -118.5q0 -14 -0.5 -37t-1.5 -47
t-1.5 -45t-0.5 -30q0 -59 34 -85.5t114 -30.5v-60q-126 6 -184 51t-58 138q0 14 1 38t2.5 49.5t2.5 49.5t1 38q0 60 -24.5 86.5t-80.5 26.5h-34v59z" />
    <glyph glyph-name="braceright" unicode="}" horiz-adv-x="404" 
d="M398 327h-34q-56 0 -80.5 -26.5t-24.5 -86.5q0 -14 1 -38t2.5 -49.5t2.5 -49.5t1 -38q0 -93 -58 -138t-184 -51v60q80 4 114 30.5t34 85.5q0 9 -0.5 30t-1.5 45t-1.5 47t-0.5 37q0 40 6 69t19 50t34 33.5t50 19.5v5q-58 20 -83.5 59t-25.5 108q0 12 0.5 34t1.5 44.5
t1.5 42.5t0.5 29q0 58 -33.5 84.5t-114.5 31.5v60q126 -6 184 -51.5t58 -136.5q0 -14 -1 -37t-2.5 -47.5t-2.5 -47.5t-1 -37q0 -59 25 -85.5t80 -26.5h34v-59z" />
    <glyph glyph-name="dotlessi" unicode="&#x131;" horiz-adv-x="312" 
d="M36 499v41h174v-480l77 -19v-41h-251v41l77 19v420z" />
    <glyph glyph-name="dotlessj" unicode="&#x237;" horiz-adv-x="284" 
d="M201 85q0 -74 -5 -116.5t-17 -69.5q-19 -43 -55 -66t-84 -23q-54 0 -88.5 26.5t-34.5 68.5q0 26 14.5 41.5t38.5 15.5q49 0 49 -55q0 -29 -16 -45q2 -7 12.5 -11t26.5 -4q35 0 48.5 28t13.5 101v504l-77 19v41h174v-455z" />
    <glyph glyph-name="periodcentered" unicode="&#xb7;" horiz-adv-x="260" 
d="M67 298q0 30 17 47.5t46 17.5t46.5 -18t17.5 -47t-17.5 -46t-46.5 -17q-30 0 -46.5 16.5t-16.5 46.5z" />
    <glyph glyph-name="uni2219" unicode="&#x2219;" horiz-adv-x="260" 
d="M67 298q0 30 17 47.5t46 17.5t46.5 -18t17.5 -47t-17.5 -46t-46.5 -17q-30 0 -46.5 16.5t-16.5 46.5z" />
    <glyph glyph-name="quotesinglbase" unicode="&#x201a;" horiz-adv-x="247" 
d="M121 118q32 0 50.5 -22.5t18.5 -60.5q0 -54 -30 -98.5t-94 -85.5l-22 25q43 35 67 66t26 55l-4 3q-2 -4 -9.5 -6.5t-15.5 -2.5q-23 0 -37.5 17.5t-14.5 44.5q0 29 18 47t47 18z" />
    <glyph glyph-name="quotedblbase" unicode="&#x201e;" horiz-adv-x="447" 
d="M121 118q32 0 50.5 -22.5t18.5 -60.5q0 -54 -30 -98.5t-94 -85.5l-22 25q43 35 67 66t26 55l-4 3q-2 -4 -9.5 -6.5t-15.5 -2.5q-23 0 -37.5 17.5t-14.5 44.5q0 29 18 47t47 18zM321 118q32 0 50.5 -22.5t18.5 -60.5q0 -54 -30 -98.5t-94 -85.5l-22 25q43 35 67 66t26 55
l-4 3q-2 -4 -9.5 -6.5t-15.5 -2.5q-23 0 -37.5 17.5t-14.5 44.5q0 29 18 47t47 18z" />
    <glyph glyph-name="quotedblright" unicode="&#x201d;" horiz-adv-x="440" 
d="M129 760q32 0 50.5 -22.5t18.5 -60.5q0 -54 -30 -98.5t-94 -85.5l-22 25q43 35 67 66t26 55l-4 3q-2 -4 -9.5 -6.5t-15.5 -2.5q-23 0 -37.5 17.5t-14.5 44.5q0 29 18 47t47 18zM329 760q32 0 50.5 -22.5t18.5 -60.5q0 -54 -30 -98.5t-94 -85.5l-22 25q43 35 67 66t26 55
l-4 3q-2 -4 -9.5 -6.5t-15.5 -2.5q-23 0 -37.5 17.5t-14.5 44.5q0 29 18 47t47 18z" />
    <glyph glyph-name="quotedblleft" unicode="&#x201c;" horiz-adv-x="442" 
d="M317 493q-32 0 -50.5 22.5t-18.5 60.5q0 54 30 98.5t94 85.5l22 -25q-43 -35 -67 -66t-26 -55l4 -3q2 4 9.5 6.5t15.5 2.5q23 0 37.5 -17.5t14.5 -44.5q0 -29 -18 -47t-47 -18zM117 493q-32 0 -50.5 22.5t-18.5 60.5q0 54 30 98.5t94 85.5l22 -25q-43 -35 -67 -66
t-26 -55l4 -3q2 4 9.5 6.5t15.5 2.5q23 0 37.5 -17.5t14.5 -44.5q0 -29 -18 -47t-47 -18z" />
    <glyph glyph-name="quoteleft" unicode="&#x2018;" horiz-adv-x="242" 
d="M117 493q-32 0 -50.5 22.5t-18.5 60.5q0 54 30 98.5t94 85.5l22 -25q-43 -35 -67 -66t-26 -55l4 -3q2 4 9.5 6.5t15.5 2.5q23 0 37.5 -17.5t14.5 -44.5q0 -29 -18 -47t-47 -18z" />
    <glyph glyph-name="quoteright" unicode="&#x2019;" horiz-adv-x="240" 
d="M129 760q32 0 50.5 -22.5t18.5 -60.5q0 -54 -30 -98.5t-94 -85.5l-22 25q43 35 67 66t26 55l-4 3q-2 -4 -9.5 -6.5t-15.5 -2.5q-23 0 -37.5 17.5t-14.5 44.5q0 29 18 47t47 18z" />
    <glyph glyph-name="minus" unicode="&#x2212;" horiz-adv-x="546" 
d="M74 396h398v-68h-398v68z" />
    <glyph glyph-name="plus" unicode="+" horiz-adv-x="488" 
d="M45 396h165v165h68v-165h165v-68h-165v-165h-68v165h-165v68z" />
    <glyph glyph-name="plusminus" unicode="&#xb1;" horiz-adv-x="522" 
d="M72 425h160v155h58v-155h160v-58h-160v-155h-58v155h-160v58zM72 125h378v-58h-378v58z" />
    <glyph glyph-name="divide" unicode="&#xf7;" horiz-adv-x="555" 
d="M59 379h438v-54h-438v54zM222 174q0 29 15.5 45t43.5 16t44 -16.5t16 -44.5t-16 -43.5t-44 -15.5q-59 0 -59 59zM222 528q0 29 15.5 45t43.5 16t44 -16.5t16 -44.5t-16 -43.5t-44 -15.5q-59 0 -59 59z" />
    <glyph glyph-name="multiply" unicode="&#xd7;" horiz-adv-x="506" 
d="M108 545l145 -145l145 145l48 -48l-145 -145l145 -145l-48 -48l-145 145l-145 -145l-48 48l145 145l-145 145z" />
    <glyph glyph-name="paragraph" unicode="&#xb6;" horiz-adv-x="678" 
d="M484 606h-70v-702h-70v299h-66q-122 0 -184.5 58t-62.5 171q0 115 63.5 176.5t182.5 61.5h361v-43l-84 -21v-702h-70v702z" />
    <glyph glyph-name="uni00A0" unicode="&#xa0;" horiz-adv-x="254" 
 />
    <glyph glyph-name="a" unicode="a" horiz-adv-x="537" 
d="M38 117q0 39 17.5 69t55.5 53.5t98 40.5t144 30q-5 59 -11.5 92t-17.5 53q-14 26 -39 38.5t-54 12.5q-28 0 -50.5 -10t-30.5 -27q14 -11 20.5 -26.5t6.5 -29.5q0 -25 -16.5 -39.5t-40.5 -14.5t-39.5 16t-15.5 45q0 31 17 55.5t44.5 41t62 25t68.5 8.5q85 0 134 -49
q62 -62 62 -220v-145q0 -50 6.5 -68.5t28.5 -18.5h45v-30q-72 -29 -112 -29q-15 0 -25 5t-16 17.5t-8.5 33.5t-2.5 53h-4q-31 -51 -82 -80t-110 -29q-63 0 -99 33.5t-36 93.5zM215 48q28 0 58.5 14.5t51.5 40.5q31 38 31 112q0 17 -1 33.5t-3 31.5q-61 -12 -101.5 -25
t-65 -29.5t-34.5 -38t-10 -49.5q0 -43 19.5 -66.5t54.5 -23.5z" />
    <glyph glyph-name="ae" unicode="&#xe6;" horiz-adv-x="836" 
d="M38 117q0 39 17.5 69t55.5 53.5t98 40.5t144 30q-5 59 -11.5 92t-17.5 53q-14 26 -39 38.5t-54 12.5q-28 0 -50.5 -10t-30.5 -27q14 -11 20.5 -26.5t6.5 -29.5q0 -25 -16.5 -39.5t-40.5 -14.5t-39.5 16t-15.5 45q0 31 17 55.5t44.5 41t62 25t68.5 8.5q25 0 48.5 -6.5
t43 -19t34.5 -32t22 -45.5h5q20 51 66 77t103 26q103 0 158 -63.5t55 -175.5q0 -10 -0.5 -18.5t-2.5 -28.5h-349q0 -73 20 -121q20 -47 56.5 -66.5t80.5 -19.5q48 0 86.5 19.5t69.5 53.5l32 -24q-18 -24 -38.5 -45t-46.5 -37t-58 -25t-71 -9q-67 0 -118.5 27.5t-80.5 81.5
h-7q-31 -51 -82 -80t-110 -29q-63 0 -99 33.5t-36 93.5zM573 496q-120 0 -132 -183h250v33q0 72 -30.5 111t-87.5 39zM215 48q28 0 58.5 14.5t51.5 40.5q31 38 31 112q0 17 -1 33.5t-3 31.5q-61 -12 -101.5 -25t-65 -29.5t-34.5 -38t-10 -49.5q0 -43 19.5 -66.5t54.5 -23.5z
" />
    <glyph glyph-name="guilsinglleft" unicode="&#x2039;" horiz-adv-x="324" 
d="M274 54l-34 -33l-199 215v34l199 215l33 -27l-132 -203z" />
    <glyph glyph-name="guilsinglright" unicode="&#x203a;" horiz-adv-x="324" 
d="M183 255l-132 203l33 27l199 -215v-34l-199 -215l-34 33z" />
    <glyph glyph-name="guillemotleft" unicode="&#xab;" horiz-adv-x="535" 
d="M274 54l-34 -33l-199 215v34l199 215l33 -27l-132 -203zM485 54l-34 -33l-199 215v34l199 215l33 -27l-132 -203z" />
    <glyph glyph-name="guillemotright" unicode="&#xbb;" horiz-adv-x="535" 
d="M394 255l-132 203l33 27l199 -215v-34l-199 -215l-34 33zM183 255l-132 203l33 27l199 -215v-34l-199 -215l-34 33z" />
    <glyph glyph-name="numbersign" unicode="#" horiz-adv-x="736" 
d="M440 202h-203l-42 -212h-57l42 212h-145v53h155l41 206h-147v53h157l43 216h57l-43 -216h203l43 216h57l-43 -216h143v-53h-153l-41 -206h145v-53h-155l-42 -212h-57zM247 255h203l41 206h-203z" />
    <glyph glyph-name="asterisk" unicode="*" horiz-adv-x="470" 
d="M274 743q0 -24 -8.5 -57t-13.5 -62l35 19.5l34.5 20t31.5 15.5t27 6q13 0 26 -9t13 -32q0 -21 -15 -30t-38.5 -12t-51 -3.5t-52.5 -4.5q16 -16 34 -32l33.5 -31t25.5 -30t10 -28t-12 -25t-28 -12q-17 0 -29 13.5t-22 34t-19 45t-20 45.5q-11 -23 -20 -47.5t-19 -44.5
t-21.5 -33.5t-28.5 -13.5q-15 0 -27.5 11.5t-12.5 25.5q0 12 9.5 26.5t24.5 30.5t32.5 32l34.5 33q-25 4 -52.5 4.5t-50.5 3.5t-38 11.5t-15 28.5q0 23 12 32.5t26 9.5q10 0 25 -6t32.5 -15t35 -19.5t34.5 -18.5q-5 31 -13.5 62.5t-8.5 55.5q0 21 10 34t30 13t30 -12.5
t10 -34.5z" />
    <glyph glyph-name="bullet" unicode="&#x2022;" horiz-adv-x="400" 
d="M82 343q0 57 31.5 89t86.5 32t87 -33t32 -88t-32 -86t-87 -31q-57 0 -87.5 30t-30.5 87z" />
    <glyph glyph-name="dagger" unicode="&#x2020;" horiz-adv-x="436" 
d="M195 525q-11 0 -26 -2.5t-31.5 -6t-32 -6t-27.5 -2.5q-22 0 -34.5 9t-12.5 26q0 18 13 26.5t34 8.5q12 0 27.5 -2.5t32 -6t31.5 -6t26 -2.5l5 5q0 15 -3.5 40.5t-7.5 51.5l-7.5 49.5t-3.5 35.5q0 21 10 34t30 13t30 -12.5t10 -34.5q0 -12 -3.5 -35.5l-7.5 -49.5
t-7.5 -51.5t-3.5 -40.5l5 -5q10 0 25 2.5t31.5 6t32.5 6t28 2.5q21 0 34 -8.5t13 -26.5q0 -17 -12.5 -26t-34.5 -9q-12 0 -28 2.5t-32.5 6t-31.5 6t-25 2.5l-5 -5v-237q0 -64 3.5 -114t7.5 -87.5t7.5 -63t3.5 -41.5q0 -22 -10 -34.5t-30 -12.5t-30 13t-10 34q0 16 3.5 41.5
t7.5 63t7.5 87.5t3.5 114v237z" />
    <glyph glyph-name="daggerdbl" unicode="&#x2021;" horiz-adv-x="460" 
d="M248 371q0 -43 1 -85.5t4 -85.5l5 -5q10 0 24.5 2.5t30 6t30.5 6t27 2.5q22 0 34.5 -9t12.5 -26q0 -18 -13 -26.5t-34 -8.5q-12 0 -28 2.5t-32.5 6t-31.5 6t-25 2.5l-5 -5q0 -15 3.5 -40.5t7.5 -51.5l7.5 -49.5t3.5 -35.5q0 -22 -10 -34.5t-30 -12.5t-30 13t-10 34
q0 12 3.5 35.5l7.5 49.5t7.5 51.5t3.5 40.5l-5 5q-11 0 -26 -2.5t-31.5 -6t-32 -6t-27.5 -2.5q-21 0 -34 8.5t-13 26.5q0 17 12.5 26t34.5 9q12 0 26.5 -2.5t30 -6t30 -6t25.5 -2.5l5 5q3 43 4 85.5t1 85.5q0 38 -1 74.5t-4 74.5l-5 5q-11 0 -25.5 -2.5t-30 -6t-30 -6
t-26.5 -2.5q-22 0 -34.5 9t-12.5 26q0 18 13 26.5t34 8.5q12 0 27.5 -2.5t32 -6t31.5 -6t26 -2.5l5 5q0 15 -3.5 40.5t-7.5 51.5l-7.5 49.5t-3.5 35.5q0 21 10 34t30 13t30 -12.5t10 -34.5q0 -12 -3.5 -35.5l-7.5 -49.5t-7.5 -51.5t-3.5 -40.5l5 -5q10 0 25 2.5t31.5 6
t32.5 6t28 2.5q21 0 34 -8.5t13 -26.5q0 -17 -12.5 -26t-34.5 -9q-12 0 -27 2.5t-30.5 6t-30 6t-24.5 2.5l-5 -5q-3 -38 -4 -74.5t-1 -74.5z" />
    <glyph glyph-name="acute" unicode="&#xb4;" horiz-adv-x="259" 
d="M89 715q29 45 46.5 62.5t38.5 17.5t33 -8.5t12 -26.5q0 -15 -20 -36.5t-68 -56.5l-38 -28h-53z" />
    <glyph glyph-name="grave" unicode="`" horiz-adv-x="259" 
d="M219 639h-53l-38 28q-48 35 -68 56.5t-20 36.5q0 18 12 26.5t33 8.5t38.5 -17.5t46.5 -62.5z" />
    <glyph glyph-name="hungarumlaut" unicode="&#x2dd;" horiz-adv-x="425" 
d="M89 715q29 45 46.5 62.5t38.5 17.5t33 -8.5t12 -26.5q0 -15 -20 -36.5t-68 -56.5l-38 -28h-53zM255 715q29 45 46.5 62.5t38.5 17.5t33 -8.5t12 -26.5q0 -15 -20 -36.5t-68 -56.5l-38 -28h-53z" />
    <glyph glyph-name="tilde" unicode="&#x2dc;" horiz-adv-x="398" 
d="M15 639q16 115 112 115q25 0 44 -8.5t35 -19t31.5 -19t35.5 -8.5q30 0 45 13t20 37h45q-18 -121 -112 -121q-25 0 -43.5 8.5t-35 19t-32.5 19.5t-35 9q-30 0 -45 -12t-20 -33h-45z" />
    <glyph glyph-name="asciitilde" unicode="~" horiz-adv-x="485" 
d="M76 304q15 115 97 115q25 0 44 -8.5t34.5 -19t30.5 -19t33 -8.5q43 0 54 50h45q-16 -121 -97 -121q-25 0 -43.5 8.5t-34.5 19l-31 19.5t-33 9q-21 0 -35 -12t-19 -33h-45z" />
    <glyph glyph-name="cdotaccent" unicode="&#x10b;" horiz-adv-x="536" 
d="M302 550q87 0 138.5 -42.5t51.5 -113.5q0 -77 -62 -77q-29 0 -45 16t-16 43q0 25 13.5 43t36.5 25q-29 55 -111 55t-119.5 -53t-37.5 -167q0 -95 26 -145q40 -77 131 -77q46 0 88 20t72 57l30 -24q-40 -62 -92 -91t-122 -29t-121.5 28.5t-80.5 83.5q-17 32 -26.5 73.5
t-9.5 88.5q0 65 18 117.5t51.5 90t81 58t105.5 20.5zM240 701q0 29 16.5 46t45.5 17t46 -17t17 -46t-17 -45.5t-46 -16.5t-45.5 16.5t-16.5 45.5z" />
    <glyph glyph-name="edotaccent" unicode="&#x117;" 
d="M148 264q0 -73 20 -121q20 -47 56.5 -66.5t80.5 -19.5q48 0 86.5 19.5t69.5 53.5l32 -24q-18 -24 -38.5 -45t-46.5 -37t-58 -25t-71 -9q-69 0 -122 29.5t-81 86.5q-15 31 -22 68.5t-7 81.5q0 141 64 217.5t176 76.5q103 0 158 -63.5t55 -175.5q0 -10 -0.5 -18.5
t-2.5 -28.5h-349zM281 496q-120 0 -132 -183h250v33q0 72 -30.5 111t-87.5 39zM223 701q0 29 16.5 46t45.5 17t46 -17t17 -46t-17 -45.5t-46 -16.5t-45.5 16.5t-16.5 45.5z" />
    <glyph glyph-name="ndotaccent" unicode="&#x1e45;" horiz-adv-x="655" 
d="M113 480l-77 19v41h144l22 -100h4q30 51 80.5 80.5t109.5 29.5q40 0 72 -14t51 -40q20 -28 28.5 -78.5t8.5 -136.5v-221l77 -19v-41h-241v41l67 19v223q0 64 -3.5 96.5t-12.5 50.5q-25 49 -88 49q-28 0 -54 -10t-46 -27q-22 -20 -32.5 -46.5t-12.5 -68.5v-267l67 -19v-41
h-241v41l77 19v420zM267 701q0 29 16.5 46t45.5 17t46 -17t17 -46t-17 -45.5t-46 -16.5t-45.5 16.5t-16.5 45.5z" />
    <glyph glyph-name="zdotaccent" unicode="&#x17c;" horiz-adv-x="538" 
d="M430 192h57v-192h-443v56l328 428h-234l-24 -131h-57v187h426v-56l-328 -428h255zM208 701q0 29 16.5 46t45.5 17t46 -17t17 -46t-17 -45.5t-46 -16.5t-45.5 16.5t-16.5 45.5z" />
    <glyph glyph-name="gdotaccent" unicode="&#x121;" horiz-adv-x="560" 
d="M507 -10q0 -38 -16.5 -70t-48 -55t-77 -36t-102.5 -13q-115 0 -174 32.5t-59 92.5q0 47 28 72t77 33v4q-66 19 -66 78q0 31 22.5 57.5t70.5 43.5q-50 18 -76.5 56t-26.5 93q0 40 14.5 71.5t41 54t64 34.5t84.5 12q93 0 147 -46l34 12l92 44h17v-88h-17l-70 8h-34
q29 -40 29 -96q0 -79 -54 -124.5t-151 -45.5q-11 0 -20.5 0.5t-19.5 1.5q-79 -12 -79 -59q0 -23 18 -31.5t70 -8.5h116q82 0 124 -30.5t42 -96.5zM232 40q-67 0 -97 -23t-30 -60q0 -91 156 -91q85 0 129.5 25.5t44.5 76.5q0 40 -30.5 56t-107.5 16h-65zM147 382
q0 -60 27 -91t86 -31t86 31t27 91t-27 91t-86 31t-86 -31t-27 -91zM199 701q0 29 16.5 46t45.5 17t46 -17t17 -46t-17 -45.5t-46 -16.5t-45.5 16.5t-16.5 45.5z" />
    <glyph glyph-name="adieresis" unicode="&#xe4;" horiz-adv-x="537" 
d="M38 117q0 39 17.5 69t55.5 53.5t98 40.5t144 30q-5 59 -11.5 92t-17.5 53q-14 26 -39 38.5t-54 12.5q-28 0 -50.5 -10t-30.5 -27q14 -11 20.5 -26.5t6.5 -29.5q0 -25 -16.5 -39.5t-40.5 -14.5t-39.5 16t-15.5 45q0 31 17 55.5t44.5 41t62 25t68.5 8.5q85 0 134 -49
q62 -62 62 -220v-145q0 -50 6.5 -68.5t28.5 -18.5h45v-30q-72 -29 -112 -29q-15 0 -25 5t-16 17.5t-8.5 33.5t-2.5 53h-4q-31 -51 -82 -80t-110 -29q-63 0 -99 33.5t-36 93.5zM215 48q28 0 58.5 14.5t51.5 40.5q31 38 31 112q0 17 -1 33.5t-3 31.5q-61 -12 -101.5 -25
t-65 -29.5t-34.5 -38t-10 -49.5q0 -43 19.5 -66.5t54.5 -23.5zM91 705q0 28 15.5 43.5t42.5 15.5t43 -16t16 -43t-15.5 -42.5t-43.5 -15.5q-27 0 -42.5 15.5t-15.5 42.5zM321 705q0 28 15.5 43.5t42.5 15.5t43 -16t16 -43t-15.5 -42.5t-43.5 -15.5q-27 0 -42.5 15.5
t-15.5 42.5z" />
    <glyph glyph-name="edieresis" unicode="&#xeb;" 
d="M148 264q0 -73 20 -121q20 -47 56.5 -66.5t80.5 -19.5q48 0 86.5 19.5t69.5 53.5l32 -24q-18 -24 -38.5 -45t-46.5 -37t-58 -25t-71 -9q-69 0 -122 29.5t-81 86.5q-15 31 -22 68.5t-7 81.5q0 141 64 217.5t176 76.5q103 0 158 -63.5t55 -175.5q0 -10 -0.5 -18.5
t-2.5 -28.5h-349zM281 496q-120 0 -132 -183h250v33q0 72 -30.5 111t-87.5 39zM114 705q0 28 15.5 43.5t42.5 15.5t43 -16t16 -43t-15.5 -42.5t-43.5 -15.5q-27 0 -42.5 15.5t-15.5 42.5zM344 705q0 28 15.5 43.5t42.5 15.5t43 -16t16 -43t-15.5 -42.5t-43.5 -15.5
q-27 0 -42.5 15.5t-15.5 42.5z" />
    <glyph glyph-name="odieresis" unicode="&#xf6;" horiz-adv-x="582" 
d="M536 275q0 -66 -19.5 -124t-54.5 -96q-59 -65 -174 -65q-112 0 -171 63q-34 37 -52.5 91.5t-18.5 118.5q0 66 19 125t55 97q32 34 74 49.5t98 15.5q55 0 99 -15.5t74 -47.5q35 -37 53 -92.5t18 -119.5zM153 274q0 -120 36 -179q17 -26 40.5 -39.5t61.5 -13.5q69 0 103 47
q18 26 26.5 72t8.5 106q0 119 -36 178q-17 26 -41 39.5t-62 13.5q-70 0 -101 -46q-36 -56 -36 -178zM118 705q0 28 15.5 43.5t42.5 15.5t43 -16t16 -43t-15.5 -42.5t-43.5 -15.5q-27 0 -42.5 15.5t-15.5 42.5zM348 705q0 28 15.5 43.5t42.5 15.5t43 -16t16 -43t-15.5 -42.5
t-43.5 -15.5q-27 0 -42.5 15.5t-15.5 42.5z" />
    <glyph glyph-name="udieresis" unicode="&#xfc;" horiz-adv-x="633" 
d="M193 257q0 -32 1 -56t2.5 -41t4.5 -29t8 -21q23 -49 84 -49q27 0 52 10t44 27q22 20 32.5 46.5t12.5 68.5v267l-87 19v41h184v-480l77 -19v-41l-155 -10l-11 110h-4q-29 -51 -79 -80.5t-107 -29.5q-38 0 -69.5 14t-49.5 40q-20 28 -28.5 78.5t-8.5 136.5v221l-67 19v41
h164v-283zM138 705q0 28 15.5 43.5t42.5 15.5t43 -16t16 -43t-15.5 -42.5t-43.5 -15.5q-27 0 -42.5 15.5t-15.5 42.5zM368 705q0 28 15.5 43.5t42.5 15.5t43 -16t16 -43t-15.5 -42.5t-43.5 -15.5q-27 0 -42.5 15.5t-15.5 42.5z" />
    <glyph glyph-name="wdieresis" unicode="&#x1e85;" horiz-adv-x="877" 
d="M271 120l12 -59h5l12 59l117 430h72l121 -430l12 -59h4l12 59l100 360l-65 19v41h190v-41l-54 -19l-149 -490h-103l-119 390l-116 -390h-103l-153 490l-53 19v41h224v-41l-69 -19zM280 705q0 28 15.5 43.5t42.5 15.5t43 -16t16 -43t-15.5 -42.5t-43.5 -15.5
q-27 0 -42.5 15.5t-15.5 42.5zM510 705q0 28 15.5 43.5t42.5 15.5t43 -16t16 -43t-15.5 -42.5t-43.5 -15.5q-27 0 -42.5 15.5t-15.5 42.5z" />
    <glyph glyph-name="ydieresis" unicode="&#xff;" horiz-adv-x="590" 
d="M348 24q-21 -58 -38.5 -99t-36.5 -66.5t-42.5 -37t-56.5 -11.5q-24 0 -44.5 6.5t-36 18.5t-24.5 28t-9 35q0 28 16 46.5t42 18.5q23 0 36.5 -12.5t13.5 -34.5q0 -14 -5.5 -27t-14.5 -23q2 -11 11.5 -14t17.5 -3q10 0 19.5 3t19 14.5t20 32.5t22.5 57l12 37l-207 487
l-60 19v41h224l8 -41l-71 -19l149 -392h4l126 392l-58 19v41h190v-41l-61 -19zM140 705q0 28 15.5 43.5t42.5 15.5t43 -16t16 -43t-15.5 -42.5t-43.5 -15.5q-27 0 -42.5 15.5t-15.5 42.5zM370 705q0 28 15.5 43.5t42.5 15.5t43 -16t16 -43t-15.5 -42.5t-43.5 -15.5
q-27 0 -42.5 15.5t-15.5 42.5z" />
    <glyph glyph-name="idieresis" unicode="&#xef;" horiz-adv-x="312" 
d="M36 499v41h174v-480l77 -19v-41h-251v41l77 19v420zM-12 705q0 28 15.5 43.5t42.5 15.5t43 -16t16 -43t-15.5 -42.5t-43.5 -15.5q-27 0 -42.5 15.5t-15.5 42.5zM218 705q0 28 15.5 43.5t42.5 15.5t43 -16t16 -43t-15.5 -42.5t-43.5 -15.5q-27 0 -42.5 15.5t-15.5 42.5z
" />
    <glyph glyph-name="aacute" unicode="&#xe1;" horiz-adv-x="537" 
d="M38 117q0 39 17.5 69t55.5 53.5t98 40.5t144 30q-5 59 -11.5 92t-17.5 53q-14 26 -39 38.5t-54 12.5q-28 0 -50.5 -10t-30.5 -27q14 -11 20.5 -26.5t6.5 -29.5q0 -25 -16.5 -39.5t-40.5 -14.5t-39.5 16t-15.5 45q0 31 17 55.5t44.5 41t62 25t68.5 8.5q85 0 134 -49
q62 -62 62 -220v-145q0 -50 6.5 -68.5t28.5 -18.5h45v-30q-72 -29 -112 -29q-15 0 -25 5t-16 17.5t-8.5 33.5t-2.5 53h-4q-31 -51 -82 -80t-110 -29q-63 0 -99 33.5t-36 93.5zM215 48q28 0 58.5 14.5t51.5 40.5q31 38 31 112q0 17 -1 33.5t-3 31.5q-61 -12 -101.5 -25
t-65 -29.5t-34.5 -38t-10 -49.5q0 -43 19.5 -66.5t54.5 -23.5zM266 715q29 45 46.5 62.5t38.5 17.5t33 -8.5t12 -26.5q0 -15 -20 -36.5t-68 -56.5l-38 -28h-53z" />
    <glyph glyph-name="cacute" unicode="&#x107;" horiz-adv-x="536" 
d="M302 550q87 0 138.5 -42.5t51.5 -113.5q0 -77 -62 -77q-29 0 -45 16t-16 43q0 25 13.5 43t36.5 25q-29 55 -111 55t-119.5 -53t-37.5 -167q0 -95 26 -145q40 -77 131 -77q46 0 88 20t72 57l30 -24q-40 -62 -92 -91t-122 -29t-121.5 28.5t-80.5 83.5q-17 32 -26.5 73.5
t-9.5 88.5q0 65 18 117.5t51.5 90t81 58t105.5 20.5zM324 715q29 45 46.5 62.5t38.5 17.5t33 -8.5t12 -26.5q0 -15 -20 -36.5t-68 -56.5l-38 -28h-53z" />
    <glyph glyph-name="eacute" unicode="&#xe9;" 
d="M148 264q0 -73 20 -121q20 -47 56.5 -66.5t80.5 -19.5q48 0 86.5 19.5t69.5 53.5l32 -24q-18 -24 -38.5 -45t-46.5 -37t-58 -25t-71 -9q-69 0 -122 29.5t-81 86.5q-15 31 -22 68.5t-7 81.5q0 141 64 217.5t176 76.5q103 0 158 -63.5t55 -175.5q0 -10 -0.5 -18.5
t-2.5 -28.5h-349zM281 496q-120 0 -132 -183h250v33q0 72 -30.5 111t-87.5 39zM307 715q29 45 46.5 62.5t38.5 17.5t33 -8.5t12 -26.5q0 -15 -20 -36.5t-68 -56.5l-38 -28h-53z" />
    <glyph glyph-name="nacute" unicode="&#x144;" horiz-adv-x="655" 
d="M113 480l-77 19v41h144l22 -100h4q30 51 80.5 80.5t109.5 29.5q40 0 72 -14t51 -40q20 -28 28.5 -78.5t8.5 -136.5v-221l77 -19v-41h-241v41l67 19v223q0 64 -3.5 96.5t-12.5 50.5q-25 49 -88 49q-28 0 -54 -10t-46 -27q-22 -20 -32.5 -46.5t-12.5 -68.5v-267l67 -19v-41
h-241v41l77 19v420zM344 715q29 45 46.5 62.5t38.5 17.5t33 -8.5t12 -26.5q0 -15 -20 -36.5t-68 -56.5l-38 -28h-53z" />
    <glyph glyph-name="oacute" unicode="&#xf3;" horiz-adv-x="582" 
d="M536 275q0 -66 -19.5 -124t-54.5 -96q-59 -65 -174 -65q-112 0 -171 63q-34 37 -52.5 91.5t-18.5 118.5q0 66 19 125t55 97q32 34 74 49.5t98 15.5q55 0 99 -15.5t74 -47.5q35 -37 53 -92.5t18 -119.5zM153 274q0 -120 36 -179q17 -26 40.5 -39.5t61.5 -13.5q69 0 103 47
q18 26 26.5 72t8.5 106q0 119 -36 178q-17 26 -41 39.5t-62 13.5q-70 0 -101 -46q-36 -56 -36 -178zM313 715q29 45 46.5 62.5t38.5 17.5t33 -8.5t12 -26.5q0 -15 -20 -36.5t-68 -56.5l-38 -28h-53z" />
    <glyph glyph-name="racute" unicode="&#x155;" horiz-adv-x="458" 
d="M337 482q-9 6 -20 6q-19 0 -40 -23.5t-37 -59.5q-14 -34 -22 -74.5t-8 -83.5v-187l108 -19v-41h-282v41l77 19v420l-77 19v41h144l22 -132h4q23 68 61.5 105t86.5 37q39 0 65 -24.5t26 -65.5q0 -30 -15.5 -47.5t-41.5 -17.5t-41 16.5t-15 43.5q0 6 1 11t4 16zM266 715
q29 45 46.5 62.5t38.5 17.5t33 -8.5t12 -26.5q0 -15 -20 -36.5t-68 -56.5l-38 -28h-53z" />
    <glyph glyph-name="sacute" unicode="&#x15b;" horiz-adv-x="503" 
d="M244 36q57 0 92 22.5t35 64.5q0 25 -13 42t-33.5 29t-46 20.5t-49.5 15.5q-31 9 -60.5 21t-53 30.5t-37.5 45t-14 64.5q0 72 52.5 115.5t146.5 43.5q80 0 126.5 -33.5t46.5 -91.5q0 -32 -14 -50t-40 -18q-23 0 -38 14t-15 36q0 19 10 34.5t26 22.5q-15 21 -38.5 30.5
t-60.5 9.5q-120 0 -120 -85q0 -23 8 -38t24 -26t39.5 -19.5t54.5 -18.5q34 -11 67 -23t59.5 -30t43 -45t16.5 -67q0 -39 -16 -69t-45 -50.5t-69 -31.5t-88 -11q-89 0 -142.5 35.5t-53.5 97.5q0 32 14.5 50.5t41.5 18.5q24 0 40.5 -14t16.5 -37q0 -19 -10.5 -36t-25.5 -25
q13 -20 46.5 -32t76.5 -12zM284 715q29 45 46.5 62.5t38.5 17.5t33 -8.5t12 -26.5q0 -15 -20 -36.5t-68 -56.5l-38 -28h-53z" />
    <glyph glyph-name="uacute" unicode="&#xfa;" horiz-adv-x="633" 
d="M193 257q0 -32 1 -56t2.5 -41t4.5 -29t8 -21q23 -49 84 -49q27 0 52 10t44 27q22 20 32.5 46.5t12.5 68.5v267l-87 19v41h184v-480l77 -19v-41l-155 -10l-11 110h-4q-29 -51 -79 -80.5t-107 -29.5q-38 0 -69.5 14t-49.5 40q-20 28 -28.5 78.5t-8.5 136.5v221l-67 19v41
h164v-283zM333 715q29 45 46.5 62.5t38.5 17.5t33 -8.5t12 -26.5q0 -15 -20 -36.5t-68 -56.5l-38 -28h-53z" />
    <glyph glyph-name="wacute" unicode="&#x1e83;" horiz-adv-x="877" 
d="M271 120l12 -59h5l12 59l117 430h72l121 -430l12 -59h4l12 59l100 360l-65 19v41h190v-41l-54 -19l-149 -490h-103l-119 390l-116 -390h-103l-153 490l-53 19v41h224v-41l-69 -19zM475 715q29 45 46.5 62.5t38.5 17.5t33 -8.5t12 -26.5q0 -15 -20 -36.5t-68 -56.5
l-38 -28h-53z" />
    <glyph glyph-name="yacute" unicode="&#xfd;" horiz-adv-x="590" 
d="M348 24q-21 -58 -38.5 -99t-36.5 -66.5t-42.5 -37t-56.5 -11.5q-24 0 -44.5 6.5t-36 18.5t-24.5 28t-9 35q0 28 16 46.5t42 18.5q23 0 36.5 -12.5t13.5 -34.5q0 -14 -5.5 -27t-14.5 -23q2 -11 11.5 -14t17.5 -3q10 0 19.5 3t19 14.5t20 32.5t22.5 57l12 37l-207 487
l-60 19v41h224l8 -41l-71 -19l149 -392h4l126 392l-58 19v41h190v-41l-61 -19zM307 715q29 45 46.5 62.5t38.5 17.5t33 -8.5t12 -26.5q0 -15 -20 -36.5t-68 -56.5l-38 -28h-53z" />
    <glyph glyph-name="zacute" unicode="&#x17a;" horiz-adv-x="538" 
d="M430 192h57v-192h-443v56l328 428h-234l-24 -131h-57v187h426v-56l-328 -428h255zM292 715q29 45 46.5 62.5t38.5 17.5t33 -8.5t12 -26.5q0 -15 -20 -36.5t-68 -56.5l-38 -28h-53z" />
    <glyph glyph-name="iacute" unicode="&#xed;" horiz-adv-x="312" 
d="M36 499v41h174v-480l77 -19v-41h-251v41l77 19v420zM183 715q29 45 46.5 62.5t38.5 17.5t33 -8.5t12 -26.5q0 -15 -20 -36.5t-68 -56.5l-38 -28h-53z" />
    <glyph glyph-name="agrave" unicode="&#xe0;" horiz-adv-x="537" 
d="M38 117q0 39 17.5 69t55.5 53.5t98 40.5t144 30q-5 59 -11.5 92t-17.5 53q-14 26 -39 38.5t-54 12.5q-28 0 -50.5 -10t-30.5 -27q14 -11 20.5 -26.5t6.5 -29.5q0 -25 -16.5 -39.5t-40.5 -14.5t-39.5 16t-15.5 45q0 31 17 55.5t44.5 41t62 25t68.5 8.5q85 0 134 -49
q62 -62 62 -220v-145q0 -50 6.5 -68.5t28.5 -18.5h45v-30q-72 -29 -112 -29q-15 0 -25 5t-16 17.5t-8.5 33.5t-2.5 53h-4q-31 -51 -82 -80t-110 -29q-63 0 -99 33.5t-36 93.5zM215 48q28 0 58.5 14.5t51.5 40.5q31 38 31 112q0 17 -1 33.5t-3 31.5q-61 -12 -101.5 -25
t-65 -29.5t-34.5 -38t-10 -49.5q0 -43 19.5 -66.5t54.5 -23.5zM304 639h-53l-38 28q-48 35 -68 56.5t-20 36.5q0 18 12 26.5t33 8.5t38.5 -17.5t46.5 -62.5z" />
    <glyph glyph-name="egrave" unicode="&#xe8;" 
d="M148 264q0 -73 20 -121q20 -47 56.5 -66.5t80.5 -19.5q48 0 86.5 19.5t69.5 53.5l32 -24q-18 -24 -38.5 -45t-46.5 -37t-58 -25t-71 -9q-69 0 -122 29.5t-81 86.5q-15 31 -22 68.5t-7 81.5q0 141 64 217.5t176 76.5q103 0 158 -63.5t55 -175.5q0 -10 -0.5 -18.5
t-2.5 -28.5h-349zM281 496q-120 0 -132 -183h250v33q0 72 -30.5 111t-87.5 39zM340 639h-53l-38 28q-48 35 -68 56.5t-20 36.5q0 18 12 26.5t33 8.5t38.5 -17.5t46.5 -62.5z" />
    <glyph glyph-name="ograve" unicode="&#xf2;" horiz-adv-x="582" 
d="M536 275q0 -66 -19.5 -124t-54.5 -96q-59 -65 -174 -65q-112 0 -171 63q-34 37 -52.5 91.5t-18.5 118.5q0 66 19 125t55 97q32 34 74 49.5t98 15.5q55 0 99 -15.5t74 -47.5q35 -37 53 -92.5t18 -119.5zM153 274q0 -120 36 -179q17 -26 40.5 -39.5t61.5 -13.5q69 0 103 47
q18 26 26.5 72t8.5 106q0 119 -36 178q-17 26 -41 39.5t-62 13.5q-70 0 -101 -46q-36 -56 -36 -178zM319 639h-53l-38 28q-48 35 -68 56.5t-20 36.5q0 18 12 26.5t33 8.5t38.5 -17.5t46.5 -62.5z" />
    <glyph glyph-name="ugrave" unicode="&#xf9;" horiz-adv-x="633" 
d="M193 257q0 -32 1 -56t2.5 -41t4.5 -29t8 -21q23 -49 84 -49q27 0 52 10t44 27q22 20 32.5 46.5t12.5 68.5v267l-87 19v41h184v-480l77 -19v-41l-155 -10l-11 110h-4q-29 -51 -79 -80.5t-107 -29.5q-38 0 -69.5 14t-49.5 40q-20 28 -28.5 78.5t-8.5 136.5v221l-67 19v41
h164v-283zM339 639h-53l-38 28q-48 35 -68 56.5t-20 36.5q0 18 12 26.5t33 8.5t38.5 -17.5t46.5 -62.5z" />
    <glyph glyph-name="wgrave" unicode="&#x1e81;" horiz-adv-x="877" 
d="M271 120l12 -59h5l12 59l117 430h72l121 -430l12 -59h4l12 59l100 360l-65 19v41h190v-41l-54 -19l-149 -490h-103l-119 390l-116 -390h-103l-153 490l-53 19v41h224v-41l-69 -19zM497 639h-53l-38 28q-48 35 -68 56.5t-20 36.5q0 18 12 26.5t33 8.5t38.5 -17.5
t46.5 -62.5z" />
    <glyph glyph-name="ygrave" unicode="&#x1ef3;" horiz-adv-x="590" 
d="M348 24q-21 -58 -38.5 -99t-36.5 -66.5t-42.5 -37t-56.5 -11.5q-24 0 -44.5 6.5t-36 18.5t-24.5 28t-9 35q0 28 16 46.5t42 18.5q23 0 36.5 -12.5t13.5 -34.5q0 -14 -5.5 -27t-14.5 -23q2 -11 11.5 -14t17.5 -3q10 0 19.5 3t19 14.5t20 32.5t22.5 57l12 37l-207 487
l-60 19v41h224l8 -41l-71 -19l149 -392h4l126 392l-58 19v41h190v-41l-61 -19zM363 639h-53l-38 28q-48 35 -68 56.5t-20 36.5q0 18 12 26.5t33 8.5t38.5 -17.5t46.5 -62.5z" />
    <glyph glyph-name="igrave" unicode="&#xec;" horiz-adv-x="312" 
d="M36 499v41h174v-480l77 -19v-41h-251v41l77 19v420zM189 639h-53l-38 28q-48 35 -68 56.5t-20 36.5q0 18 12 26.5t33 8.5t38.5 -17.5t46.5 -62.5z" />
    <glyph glyph-name="ohungarumlaut" unicode="&#x151;" horiz-adv-x="582" 
d="M536 275q0 -66 -19.5 -124t-54.5 -96q-59 -65 -174 -65q-112 0 -171 63q-34 37 -52.5 91.5t-18.5 118.5q0 66 19 125t55 97q32 34 74 49.5t98 15.5q55 0 99 -15.5t74 -47.5q35 -37 53 -92.5t18 -119.5zM153 274q0 -120 36 -179q17 -26 40.5 -39.5t61.5 -13.5q69 0 103 47
q18 26 26.5 72t8.5 106q0 119 -36 178q-17 26 -41 39.5t-62 13.5q-70 0 -101 -46q-36 -56 -36 -178zM226 715q29 45 46.5 62.5t38.5 17.5t33 -8.5t12 -26.5q0 -15 -20 -36.5t-68 -56.5l-38 -28h-53zM392 715q29 45 46.5 62.5t38.5 17.5t33 -8.5t12 -26.5q0 -15 -20 -36.5
t-68 -56.5l-38 -28h-53z" />
    <glyph glyph-name="uhungarumlaut" unicode="&#x171;" horiz-adv-x="633" 
d="M193 257q0 -32 1 -56t2.5 -41t4.5 -29t8 -21q23 -49 84 -49q27 0 52 10t44 27q22 20 32.5 46.5t12.5 68.5v267l-87 19v41h184v-480l77 -19v-41l-155 -10l-11 110h-4q-29 -51 -79 -80.5t-107 -29.5q-38 0 -69.5 14t-49.5 40q-20 28 -28.5 78.5t-8.5 136.5v221l-67 19v41
h164v-283zM246 715q29 45 46.5 62.5t38.5 17.5t33 -8.5t12 -26.5q0 -15 -20 -36.5t-68 -56.5l-38 -28h-53zM412 715q29 45 46.5 62.5t38.5 17.5t33 -8.5t12 -26.5q0 -15 -20 -36.5t-68 -56.5l-38 -28h-53z" />
    <glyph glyph-name="atilde" unicode="&#xe3;" horiz-adv-x="537" 
d="M38 117q0 39 17.5 69t55.5 53.5t98 40.5t144 30q-5 59 -11.5 92t-17.5 53q-14 26 -39 38.5t-54 12.5q-28 0 -50.5 -10t-30.5 -27q14 -11 20.5 -26.5t6.5 -29.5q0 -25 -16.5 -39.5t-40.5 -14.5t-39.5 16t-15.5 45q0 31 17 55.5t44.5 41t62 25t68.5 8.5q85 0 134 -49
q62 -62 62 -220v-145q0 -50 6.5 -68.5t28.5 -18.5h45v-30q-72 -29 -112 -29q-15 0 -25 5t-16 17.5t-8.5 33.5t-2.5 53h-4q-31 -51 -82 -80t-110 -29q-63 0 -99 33.5t-36 93.5zM215 48q28 0 58.5 14.5t51.5 40.5q31 38 31 112q0 17 -1 33.5t-3 31.5q-61 -12 -101.5 -25
t-65 -29.5t-34.5 -38t-10 -49.5q0 -43 19.5 -66.5t54.5 -23.5zM60 639q16 115 112 115q25 0 44 -8.5t35 -19t31.5 -19t35.5 -8.5q30 0 45 13t20 37h45q-18 -121 -112 -121q-25 0 -43.5 8.5t-35 19t-32.5 19.5t-35 9q-30 0 -45 -12t-20 -33h-45z" />
    <glyph glyph-name="etilde" unicode="&#x1ebd;" 
d="M148 264q0 -73 20 -121q20 -47 56.5 -66.5t80.5 -19.5q48 0 86.5 19.5t69.5 53.5l32 -24q-18 -24 -38.5 -45t-46.5 -37t-58 -25t-71 -9q-69 0 -122 29.5t-81 86.5q-15 31 -22 68.5t-7 81.5q0 141 64 217.5t176 76.5q103 0 158 -63.5t55 -175.5q0 -10 -0.5 -18.5
t-2.5 -28.5h-349zM281 496q-120 0 -132 -183h250v33q0 72 -30.5 111t-87.5 39zM101 639q16 115 112 115q25 0 44 -8.5t35 -19t31.5 -19t35.5 -8.5q30 0 45 13t20 37h45q-18 -121 -112 -121q-25 0 -43.5 8.5t-35 19t-32.5 19.5t-35 9q-30 0 -45 -12t-20 -33h-45z" />
    <glyph glyph-name="ntilde" unicode="&#xf1;" horiz-adv-x="655" 
d="M113 480l-77 19v41h144l22 -100h4q30 51 80.5 80.5t109.5 29.5q40 0 72 -14t51 -40q20 -28 28.5 -78.5t8.5 -136.5v-221l77 -19v-41h-241v41l67 19v223q0 64 -3.5 96.5t-12.5 50.5q-25 49 -88 49q-28 0 -54 -10t-46 -27q-22 -20 -32.5 -46.5t-12.5 -68.5v-267l67 -19v-41
h-241v41l77 19v420zM163 639q16 115 112 115q25 0 44 -8.5t35 -19t31.5 -19t35.5 -8.5q30 0 45 13t20 37h45q-18 -121 -112 -121q-25 0 -43.5 8.5t-35 19t-32.5 19.5t-35 9q-30 0 -45 -12t-20 -33h-45z" />
    <glyph glyph-name="otilde" unicode="&#xf5;" horiz-adv-x="582" 
d="M536 275q0 -66 -19.5 -124t-54.5 -96q-59 -65 -174 -65q-112 0 -171 63q-34 37 -52.5 91.5t-18.5 118.5q0 66 19 125t55 97q32 34 74 49.5t98 15.5q55 0 99 -15.5t74 -47.5q35 -37 53 -92.5t18 -119.5zM153 274q0 -120 36 -179q17 -26 40.5 -39.5t61.5 -13.5q69 0 103 47
q18 26 26.5 72t8.5 106q0 119 -36 178q-17 26 -41 39.5t-62 13.5q-70 0 -101 -46q-36 -56 -36 -178zM107 639q16 115 112 115q25 0 44 -8.5t35 -19t31.5 -19t35.5 -8.5q30 0 45 13t20 37h45q-18 -121 -112 -121q-25 0 -43.5 8.5t-35 19t-32.5 19.5t-35 9q-30 0 -45 -12
t-20 -33h-45z" />
    <glyph glyph-name="utilde" unicode="&#x169;" horiz-adv-x="633" 
d="M193 257q0 -32 1 -56t2.5 -41t4.5 -29t8 -21q23 -49 84 -49q27 0 52 10t44 27q22 20 32.5 46.5t12.5 68.5v267l-87 19v41h184v-480l77 -19v-41l-155 -10l-11 110h-4q-29 -51 -79 -80.5t-107 -29.5q-38 0 -69.5 14t-49.5 40q-20 28 -28.5 78.5t-8.5 136.5v221l-67 19v41
h164v-283zM127 639q16 115 112 115q25 0 44 -8.5t35 -19t31.5 -19t35.5 -8.5q30 0 45 13t20 37h45q-18 -121 -112 -121q-25 0 -43.5 8.5t-35 19t-32.5 19.5t-35 9q-30 0 -45 -12t-20 -33h-45z" />
    <glyph glyph-name="ytilde" unicode="&#x1ef9;" horiz-adv-x="590" 
d="M348 24q-21 -58 -38.5 -99t-36.5 -66.5t-42.5 -37t-56.5 -11.5q-24 0 -44.5 6.5t-36 18.5t-24.5 28t-9 35q0 28 16 46.5t42 18.5q23 0 36.5 -12.5t13.5 -34.5q0 -14 -5.5 -27t-14.5 -23q2 -11 11.5 -14t17.5 -3q10 0 19.5 3t19 14.5t20 32.5t22.5 57l12 37l-207 487
l-60 19v41h224l8 -41l-71 -19l149 -392h4l126 392l-58 19v41h190v-41l-61 -19zM129 639q16 115 112 115q25 0 44 -8.5t35 -19t31.5 -19t35.5 -8.5q30 0 45 13t20 37h45q-18 -121 -112 -121q-25 0 -43.5 8.5t-35 19t-32.5 19.5t-35 9q-30 0 -45 -12t-20 -33h-45z" />
    <glyph glyph-name="itilde" unicode="&#x129;" horiz-adv-x="312" 
d="M36 499v41h174v-480l77 -19v-41h-251v41l77 19v420zM-23 639q16 115 112 115q25 0 44 -8.5t35 -19t31.5 -19t35.5 -8.5q30 0 45 13t20 37h45q-18 -121 -112 -121q-25 0 -43.5 8.5t-35 19t-32.5 19.5t-35 9q-30 0 -45 -12t-20 -33h-45z" />
    <glyph glyph-name="circumflex" unicode="&#x2c6;" horiz-adv-x="352" 
d="M312 639h-53l-83 91l-83 -91h-53l88 151h95z" />
    <glyph glyph-name="caron" unicode="&#x2c7;" horiz-adv-x="352" 
d="M229 639h-106l-83 141h56l80 -91l83 91h53z" />
    <glyph glyph-name="acircumflex" unicode="&#xe2;" horiz-adv-x="537" 
d="M38 117q0 39 17.5 69t55.5 53.5t98 40.5t144 30q-5 59 -11.5 92t-17.5 53q-14 26 -39 38.5t-54 12.5q-28 0 -50.5 -10t-30.5 -27q14 -11 20.5 -26.5t6.5 -29.5q0 -25 -16.5 -39.5t-40.5 -14.5t-39.5 16t-15.5 45q0 31 17 55.5t44.5 41t62 25t68.5 8.5q85 0 134 -49
q62 -62 62 -220v-145q0 -50 6.5 -68.5t28.5 -18.5h45v-30q-72 -29 -112 -29q-15 0 -25 5t-16 17.5t-8.5 33.5t-2.5 53h-4q-31 -51 -82 -80t-110 -29q-63 0 -99 33.5t-36 93.5zM215 48q28 0 58.5 14.5t51.5 40.5q31 38 31 112q0 17 -1 33.5t-3 31.5q-61 -12 -101.5 -25
t-65 -29.5t-34.5 -38t-10 -49.5q0 -43 19.5 -66.5t54.5 -23.5zM390 639h-53l-83 91l-83 -91h-53l88 151h95z" />
    <glyph glyph-name="ccircumflex" unicode="&#x109;" horiz-adv-x="536" 
d="M302 550q87 0 138.5 -42.5t51.5 -113.5q0 -77 -62 -77q-29 0 -45 16t-16 43q0 25 13.5 43t36.5 25q-29 55 -111 55t-119.5 -53t-37.5 -167q0 -95 26 -145q40 -77 131 -77q46 0 88 20t72 57l30 -24q-40 -62 -92 -91t-122 -29t-121.5 28.5t-80.5 83.5q-17 32 -26.5 73.5
t-9.5 88.5q0 65 18 117.5t51.5 90t81 58t105.5 20.5zM438 639h-53l-83 91l-83 -91h-53l88 151h95z" />
    <glyph glyph-name="ecircumflex" unicode="&#xea;" 
d="M148 264q0 -73 20 -121q20 -47 56.5 -66.5t80.5 -19.5q48 0 86.5 19.5t69.5 53.5l32 -24q-18 -24 -38.5 -45t-46.5 -37t-58 -25t-71 -9q-69 0 -122 29.5t-81 86.5q-15 31 -22 68.5t-7 81.5q0 141 64 217.5t176 76.5q103 0 158 -63.5t55 -175.5q0 -10 -0.5 -18.5
t-2.5 -28.5h-349zM281 496q-120 0 -132 -183h250v33q0 72 -30.5 111t-87.5 39zM430 639h-53l-83 91l-83 -91h-53l88 151h95z" />
    <glyph glyph-name="hcircumflex" unicode="&#x125;" horiz-adv-x="644" 
d="M448 283q0 64 -3.5 96.5t-12.5 50.5q-25 49 -88 49q-28 0 -54 -10t-46 -27q-22 -20 -32.5 -46t-12.5 -65v-271l67 -19v-41h-241v41l77 19v660l-77 19v41h174v-334q30 48 79.5 76t106.5 28q40 0 72 -14t51 -40q20 -28 28.5 -78.5t8.5 -136.5v-221l77 -19v-41h-241v41
l67 19v223zM498 639h-53l-83 91l-83 -91h-53l88 151h95z" />
    <glyph glyph-name="ocircumflex" unicode="&#xf4;" horiz-adv-x="582" 
d="M536 275q0 -66 -19.5 -124t-54.5 -96q-59 -65 -174 -65q-112 0 -171 63q-34 37 -52.5 91.5t-18.5 118.5q0 66 19 125t55 97q32 34 74 49.5t98 15.5q55 0 99 -15.5t74 -47.5q35 -37 53 -92.5t18 -119.5zM153 274q0 -120 36 -179q17 -26 40.5 -39.5t61.5 -13.5q69 0 103 47
q18 26 26.5 72t8.5 106q0 119 -36 178q-17 26 -41 39.5t-62 13.5q-70 0 -101 -46q-36 -56 -36 -178zM427 639h-53l-83 91l-83 -91h-53l88 151h95z" />
    <glyph glyph-name="scircumflex" unicode="&#x15d;" horiz-adv-x="503" 
d="M244 36q57 0 92 22.5t35 64.5q0 25 -13 42t-33.5 29t-46 20.5t-49.5 15.5q-31 9 -60.5 21t-53 30.5t-37.5 45t-14 64.5q0 72 52.5 115.5t146.5 43.5q80 0 126.5 -33.5t46.5 -91.5q0 -32 -14 -50t-40 -18q-23 0 -38 14t-15 36q0 19 10 34.5t26 22.5q-15 21 -38.5 30.5
t-60.5 9.5q-120 0 -120 -85q0 -23 8 -38t24 -26t39.5 -19.5t54.5 -18.5q34 -11 67 -23t59.5 -30t43 -45t16.5 -67q0 -39 -16 -69t-45 -50.5t-69 -31.5t-88 -11q-89 0 -142.5 35.5t-53.5 97.5q0 32 14.5 50.5t41.5 18.5q24 0 40.5 -14t16.5 -37q0 -19 -10.5 -36t-25.5 -25
q13 -20 46.5 -32t76.5 -12zM398 639h-53l-83 91l-83 -91h-53l88 151h95z" />
    <glyph glyph-name="ucircumflex" unicode="&#xfb;" horiz-adv-x="633" 
d="M193 257q0 -32 1 -56t2.5 -41t4.5 -29t8 -21q23 -49 84 -49q27 0 52 10t44 27q22 20 32.5 46.5t12.5 68.5v267l-87 19v41h184v-480l77 -19v-41l-155 -10l-11 110h-4q-29 -51 -79 -80.5t-107 -29.5q-38 0 -69.5 14t-49.5 40q-20 28 -28.5 78.5t-8.5 136.5v221l-67 19v41
h164v-283zM447 639h-53l-83 91l-83 -91h-53l88 151h95z" />
    <glyph glyph-name="wcircumflex" unicode="&#x175;" horiz-adv-x="877" 
d="M271 120l12 -59h5l12 59l117 430h72l121 -430l12 -59h4l12 59l100 360l-65 19v41h190v-41l-54 -19l-149 -490h-103l-119 390l-116 -390h-103l-153 490l-53 19v41h224v-41l-69 -19zM589 639h-53l-83 91l-83 -91h-53l88 151h95z" />
    <glyph glyph-name="ycircumflex" unicode="&#x177;" horiz-adv-x="590" 
d="M348 24q-21 -58 -38.5 -99t-36.5 -66.5t-42.5 -37t-56.5 -11.5q-24 0 -44.5 6.5t-36 18.5t-24.5 28t-9 35q0 28 16 46.5t42 18.5q23 0 36.5 -12.5t13.5 -34.5q0 -14 -5.5 -27t-14.5 -23q2 -11 11.5 -14t17.5 -3q10 0 19.5 3t19 14.5t20 32.5t22.5 57l12 37l-207 487
l-60 19v41h224l8 -41l-71 -19l149 -392h4l126 392l-58 19v41h190v-41l-61 -19zM449 639h-53l-83 91l-83 -91h-53l88 151h95z" />
    <glyph glyph-name="gcircumflex" unicode="&#x11d;" horiz-adv-x="560" 
d="M507 -10q0 -38 -16.5 -70t-48 -55t-77 -36t-102.5 -13q-115 0 -174 32.5t-59 92.5q0 47 28 72t77 33v4q-66 19 -66 78q0 31 22.5 57.5t70.5 43.5q-50 18 -76.5 56t-26.5 93q0 40 14.5 71.5t41 54t64 34.5t84.5 12q93 0 147 -46l34 12l92 44h17v-88h-17l-70 8h-34
q29 -40 29 -96q0 -79 -54 -124.5t-151 -45.5q-11 0 -20.5 0.5t-19.5 1.5q-79 -12 -79 -59q0 -23 18 -31.5t70 -8.5h116q82 0 124 -30.5t42 -96.5zM232 40q-67 0 -97 -23t-30 -60q0 -91 156 -91q85 0 129.5 25.5t44.5 76.5q0 40 -30.5 56t-107.5 16h-65zM147 382
q0 -60 27 -91t86 -31t86 31t27 91t-27 91t-86 31t-86 -31t-27 -91zM397 639h-53l-83 91l-83 -91h-53l88 151h95z" />
    <glyph glyph-name="icircumflex" unicode="&#xee;" horiz-adv-x="312" 
d="M36 499v41h174v-480l77 -19v-41h-251v41l77 19v420zM297 639h-53l-83 91l-83 -91h-53l88 151h95z" />
    <glyph glyph-name="jcircumflex" unicode="&#x135;" horiz-adv-x="284" 
d="M201 85q0 -74 -5 -116.5t-17 -69.5q-19 -43 -55 -66t-84 -23q-54 0 -88.5 26.5t-34.5 68.5q0 26 14.5 41.5t38.5 15.5q49 0 49 -55q0 -29 -16 -45q2 -7 12.5 -11t26.5 -4q35 0 48.5 28t13.5 101v504l-77 19v41h174v-455zM288 639h-53l-83 91l-83 -91h-53l88 151h95z" />
    <glyph glyph-name="ccaron" unicode="&#x10d;" horiz-adv-x="536" 
d="M302 550q87 0 138.5 -42.5t51.5 -113.5q0 -77 -62 -77q-29 0 -45 16t-16 43q0 25 13.5 43t36.5 25q-29 55 -111 55t-119.5 -53t-37.5 -167q0 -95 26 -145q40 -77 131 -77q46 0 88 20t72 57l30 -24q-40 -62 -92 -91t-122 -29t-121.5 28.5t-80.5 83.5q-17 32 -26.5 73.5
t-9.5 88.5q0 65 18 117.5t51.5 90t81 58t105.5 20.5zM355 639h-106l-83 141h56l80 -91l83 91h53z" />
    <glyph glyph-name="ecaron" unicode="&#x11b;" 
d="M148 264q0 -73 20 -121q20 -47 56.5 -66.5t80.5 -19.5q48 0 86.5 19.5t69.5 53.5l32 -24q-18 -24 -38.5 -45t-46.5 -37t-58 -25t-71 -9q-69 0 -122 29.5t-81 86.5q-15 31 -22 68.5t-7 81.5q0 141 64 217.5t176 76.5q103 0 158 -63.5t55 -175.5q0 -10 -0.5 -18.5
t-2.5 -28.5h-349zM281 496q-120 0 -132 -183h250v33q0 72 -30.5 111t-87.5 39zM338 639h-106l-83 141h56l80 -91l83 91h53z" />
    <glyph glyph-name="ncaron" unicode="&#x148;" horiz-adv-x="655" 
d="M113 480l-77 19v41h144l22 -100h4q30 51 80.5 80.5t109.5 29.5q40 0 72 -14t51 -40q20 -28 28.5 -78.5t8.5 -136.5v-221l77 -19v-41h-241v41l67 19v223q0 64 -3.5 96.5t-12.5 50.5q-25 49 -88 49q-28 0 -54 -10t-46 -27q-22 -20 -32.5 -46.5t-12.5 -68.5v-267l67 -19v-41
h-241v41l77 19v420zM400 639h-106l-83 141h56l80 -91l83 91h53z" />
    <glyph glyph-name="rcaron" unicode="&#x159;" horiz-adv-x="458" 
d="M337 482q-9 6 -20 6q-19 0 -40 -23.5t-37 -59.5q-14 -34 -22 -74.5t-8 -83.5v-187l108 -19v-41h-282v41l77 19v420l-77 19v41h144l22 -132h4q23 68 61.5 105t86.5 37q39 0 65 -24.5t26 -65.5q0 -30 -15.5 -47.5t-41.5 -17.5t-41 16.5t-15 43.5q0 6 1 11t4 16zM297 639
h-106l-83 141h56l80 -91l83 91h53z" />
    <glyph glyph-name="scaron" unicode="&#x161;" horiz-adv-x="503" 
d="M244 36q57 0 92 22.5t35 64.5q0 25 -13 42t-33.5 29t-46 20.5t-49.5 15.5q-31 9 -60.5 21t-53 30.5t-37.5 45t-14 64.5q0 72 52.5 115.5t146.5 43.5q80 0 126.5 -33.5t46.5 -91.5q0 -32 -14 -50t-40 -18q-23 0 -38 14t-15 36q0 19 10 34.5t26 22.5q-15 21 -38.5 30.5
t-60.5 9.5q-120 0 -120 -85q0 -23 8 -38t24 -26t39.5 -19.5t54.5 -18.5q34 -11 67 -23t59.5 -30t43 -45t16.5 -67q0 -39 -16 -69t-45 -50.5t-69 -31.5t-88 -11q-89 0 -142.5 35.5t-53.5 97.5q0 32 14.5 50.5t41.5 18.5q24 0 40.5 -14t16.5 -37q0 -19 -10.5 -36t-25.5 -25
q13 -20 46.5 -32t76.5 -12zM315 639h-106l-83 141h56l80 -91l83 91h53z" />
    <glyph glyph-name="zcaron" unicode="&#x17e;" horiz-adv-x="538" 
d="M430 192h57v-192h-443v56l328 428h-234l-24 -131h-57v187h426v-56l-328 -428h255zM323 639h-106l-83 141h56l80 -91l83 91h53z" />
    <glyph glyph-name="dotbelow" horiz-adv-x="185" 
d="M30 -128q0 29 16.5 46t45.5 17t46 -17t17 -46t-17 -45.5t-46 -16.5t-45.5 16.5t-16.5 45.5z" />
    <glyph glyph-name="ddotbelow" unicode="&#x1e0d;" horiz-adv-x="620" 
d="M46 265q0 66 17 124t51 96q29 32 68.5 48.5t92.5 16.5q45 0 81 -17t65 -61v248l-77 19v41h174v-720l77 -19v-41l-155 -10l-8 82q-31 -47 -70 -64.5t-87 -17.5q-51 0 -92 15t-68 48q-32 39 -50.5 93.5t-18.5 118.5zM421 266q0 123 -35 179q-16 26 -39 39.5t-61 13.5
q-68 0 -101 -47q-18 -26 -26 -72t-8 -106q0 -120 35 -178q17 -26 40 -39.5t61 -13.5q35 0 60 11.5t39 34.5q17 28 26 72.5t9 105.5zM213 -128q0 29 16.5 46t45.5 17t46 -17t17 -46t-17 -45.5t-46 -16.5t-45.5 16.5t-16.5 45.5z" />
    <glyph glyph-name="edotbelow" unicode="&#x1eb9;" 
d="M148 264q0 -73 20 -121q20 -47 56.5 -66.5t80.5 -19.5q48 0 86.5 19.5t69.5 53.5l32 -24q-18 -24 -38.5 -45t-46.5 -37t-58 -25t-71 -9q-69 0 -122 29.5t-81 86.5q-15 31 -22 68.5t-7 81.5q0 141 64 217.5t176 76.5q103 0 158 -63.5t55 -175.5q0 -10 -0.5 -18.5
t-2.5 -28.5h-349zM281 496q-120 0 -132 -183h250v33q0 72 -30.5 111t-87.5 39zM220 -128q0 29 16.5 46t45.5 17t46 -17t17 -46t-17 -45.5t-46 -16.5t-45.5 16.5t-16.5 45.5z" />
    <glyph glyph-name="hdotbelow" unicode="&#x1e25;" horiz-adv-x="644" 
d="M448 283q0 64 -3.5 96.5t-12.5 50.5q-25 49 -88 49q-28 0 -54 -10t-46 -27q-22 -20 -32.5 -46t-12.5 -65v-271l67 -19v-41h-241v41l77 19v660l-77 19v41h174v-334q30 48 79.5 76t106.5 28q40 0 72 -14t51 -40q20 -28 28.5 -78.5t8.5 -136.5v-221l77 -19v-41h-241v41
l67 19v223zM261 -128q0 29 16.5 46t45.5 17t46 -17t17 -46t-17 -45.5t-46 -16.5t-45.5 16.5t-16.5 45.5z" />
    <glyph glyph-name="idotbelow" unicode="&#x1ecb;" horiz-adv-x="312" 
d="M36 499v41h174v-480l77 -19v-41h-251v41l77 19v420zM99 701q0 29 16.5 46t45.5 17t46 -17t17 -46t-17 -45.5t-46 -16.5t-45.5 16.5t-16.5 45.5zM101 -128q0 29 16.5 46t45.5 17t46 -17t17 -46t-17 -45.5t-46 -16.5t-45.5 16.5t-16.5 45.5z" />
    <glyph glyph-name="odotbelow" unicode="&#x1ecd;" horiz-adv-x="582" 
d="M536 275q0 -66 -19.5 -124t-54.5 -96q-59 -65 -174 -65q-112 0 -171 63q-34 37 -52.5 91.5t-18.5 118.5q0 66 19 125t55 97q32 34 74 49.5t98 15.5q55 0 99 -15.5t74 -47.5q35 -37 53 -92.5t18 -119.5zM153 274q0 -120 36 -179q17 -26 40.5 -39.5t61.5 -13.5q69 0 103 47
q18 26 26.5 72t8.5 106q0 119 -36 178q-17 26 -41 39.5t-62 13.5q-70 0 -101 -46q-36 -56 -36 -178zM227 -128q0 29 16.5 46t45.5 17t46 -17t17 -46t-17 -45.5t-46 -16.5t-45.5 16.5t-16.5 45.5z" />
    <glyph glyph-name="rdotbelow" unicode="&#x1e5b;" horiz-adv-x="458" 
d="M337 482q-9 6 -20 6q-19 0 -40 -23.5t-37 -59.5q-14 -34 -22 -74.5t-8 -83.5v-187l108 -19v-41h-282v41l77 19v420l-77 19v41h144l22 -132h4q23 68 61.5 105t86.5 37q39 0 65 -24.5t26 -65.5q0 -30 -15.5 -47.5t-41.5 -17.5t-41 16.5t-15 43.5q0 6 1 11t4 16zM99 -128
q0 29 16.5 46t45.5 17t46 -17t17 -46t-17 -45.5t-46 -16.5t-45.5 16.5t-16.5 45.5z" />
    <glyph glyph-name="sdotbelow" unicode="&#x1e63;" horiz-adv-x="503" 
d="M244 36q57 0 92 22.5t35 64.5q0 25 -13 42t-33.5 29t-46 20.5t-49.5 15.5q-31 9 -60.5 21t-53 30.5t-37.5 45t-14 64.5q0 72 52.5 115.5t146.5 43.5q80 0 126.5 -33.5t46.5 -91.5q0 -32 -14 -50t-40 -18q-23 0 -38 14t-15 36q0 19 10 34.5t26 22.5q-15 21 -38.5 30.5
t-60.5 9.5q-120 0 -120 -85q0 -23 8 -38t24 -26t39.5 -19.5t54.5 -18.5q34 -11 67 -23t59.5 -30t43 -45t16.5 -67q0 -39 -16 -69t-45 -50.5t-69 -31.5t-88 -11q-89 0 -142.5 35.5t-53.5 97.5q0 32 14.5 50.5t41.5 18.5q24 0 40.5 -14t16.5 -37q0 -19 -10.5 -36t-25.5 -25
q13 -20 46.5 -32t76.5 -12zM178 -128q0 29 16.5 46t45.5 17t46 -17t17 -46t-17 -45.5t-46 -16.5t-45.5 16.5t-16.5 45.5z" />
    <glyph glyph-name="tdotbelow" unicode="&#x1e6d;" horiz-adv-x="341" 
d="M9 526l97 14l13 126l84 12v-138h128v-50h-128v-357q0 -34 1 -46.5t4 -20.5t11 -10t26 -2h70v-29q-48 -18 -84.5 -26.5t-58.5 -8.5q-45 0 -58 37q-5 12 -6.5 30.5t-1.5 56.5v376h-97v36zM101 -128q0 29 16.5 46t45.5 17t46 -17t17 -46t-17 -45.5t-46 -16.5t-45.5 16.5
t-16.5 45.5z" />
    <glyph glyph-name="udotbelow" unicode="&#x1ee5;" horiz-adv-x="633" 
d="M193 257q0 -32 1 -56t2.5 -41t4.5 -29t8 -21q23 -49 84 -49q27 0 52 10t44 27q22 20 32.5 46.5t12.5 68.5v267l-87 19v41h184v-480l77 -19v-41l-155 -10l-11 110h-4q-29 -51 -79 -80.5t-107 -29.5q-38 0 -69.5 14t-49.5 40q-20 28 -28.5 78.5t-8.5 136.5v221l-67 19v41
h164v-283zM230 -128q0 29 16.5 46t45.5 17t46 -17t17 -46t-17 -45.5t-46 -16.5t-45.5 16.5t-16.5 45.5z" />
    <glyph glyph-name="zdotbelow" unicode="&#x1e93;" horiz-adv-x="538" 
d="M430 192h57v-192h-443v56l328 428h-234l-24 -131h-57v187h426v-56l-328 -428h255zM203 -128q0 29 16.5 46t45.5 17t46 -17t17 -46t-17 -45.5t-46 -16.5t-45.5 16.5t-16.5 45.5z" />
    <glyph glyph-name="slash" unicode="/" horiz-adv-x="310" 
d="M200 730h57l-146 -740h-57z" />
    <glyph glyph-name="backslash" unicode="\" horiz-adv-x="310" 
d="M256 -10h-57l-146 740h57z" />
    <glyph glyph-name="fraction" unicode="&#x2044;" horiz-adv-x="40" 
d="M186 730h54l-386 -740h-54z" />
    <glyph glyph-name="uni2215" unicode="&#x2215;" horiz-adv-x="420" 
d="M376 730h54l-386 -740h-54z" />
    <glyph glyph-name="breve" unicode="&#x2d8;" horiz-adv-x="364" 
d="M329 780q-1 -36 -13 -64t-32 -47.5t-47.5 -29.5t-60.5 -10q-68 0 -104.5 41.5t-36.5 109.5h48q2 -44 28 -63t65 -19q50 0 77.5 19t27.5 63h48z" />
    <glyph glyph-name="abreve" unicode="&#x103;" horiz-adv-x="537" 
d="M38 117q0 39 17.5 69t55.5 53.5t98 40.5t144 30q-5 59 -11.5 92t-17.5 53q-14 26 -39 38.5t-54 12.5q-28 0 -50.5 -10t-30.5 -27q14 -11 20.5 -26.5t6.5 -29.5q0 -25 -16.5 -39.5t-40.5 -14.5t-39.5 16t-15.5 45q0 31 17 55.5t44.5 41t62 25t68.5 8.5q85 0 134 -49
q62 -62 62 -220v-145q0 -50 6.5 -68.5t28.5 -18.5h45v-30q-72 -29 -112 -29q-15 0 -25 5t-16 17.5t-8.5 33.5t-2.5 53h-4q-31 -51 -82 -80t-110 -29q-63 0 -99 33.5t-36 93.5zM215 48q28 0 58.5 14.5t51.5 40.5q31 38 31 112q0 17 -1 33.5t-3 31.5q-61 -12 -101.5 -25
t-65 -29.5t-34.5 -38t-10 -49.5q0 -43 19.5 -66.5t54.5 -23.5zM397 780q-1 -36 -13 -64t-32 -47.5t-47.5 -29.5t-60.5 -10q-68 0 -104.5 41.5t-36.5 109.5h48q2 -44 28 -63t65 -19q50 0 77.5 19t27.5 63h48z" />
    <glyph glyph-name="ebreve" unicode="&#x115;" 
d="M148 264q0 -73 20 -121q20 -47 56.5 -66.5t80.5 -19.5q48 0 86.5 19.5t69.5 53.5l32 -24q-18 -24 -38.5 -45t-46.5 -37t-58 -25t-71 -9q-69 0 -122 29.5t-81 86.5q-15 31 -22 68.5t-7 81.5q0 141 64 217.5t176 76.5q103 0 158 -63.5t55 -175.5q0 -10 -0.5 -18.5
t-2.5 -28.5h-349zM281 496q-120 0 -132 -183h250v33q0 72 -30.5 111t-87.5 39zM438 780q-1 -36 -13 -64t-32 -47.5t-47.5 -29.5t-60.5 -10q-68 0 -104.5 41.5t-36.5 109.5h48q2 -44 28 -63t65 -19q50 0 77.5 19t27.5 63h48z" />
    <glyph glyph-name="obreve" unicode="&#x14f;" horiz-adv-x="582" 
d="M536 275q0 -66 -19.5 -124t-54.5 -96q-59 -65 -174 -65q-112 0 -171 63q-34 37 -52.5 91.5t-18.5 118.5q0 66 19 125t55 97q32 34 74 49.5t98 15.5q55 0 99 -15.5t74 -47.5q35 -37 53 -92.5t18 -119.5zM153 274q0 -120 36 -179q17 -26 40.5 -39.5t61.5 -13.5q69 0 103 47
q18 26 26.5 72t8.5 106q0 119 -36 178q-17 26 -41 39.5t-62 13.5q-70 0 -101 -46q-36 -56 -36 -178zM444 780q-1 -36 -13 -64t-32 -47.5t-47.5 -29.5t-60.5 -10q-68 0 -104.5 41.5t-36.5 109.5h48q2 -44 28 -63t65 -19q50 0 77.5 19t27.5 63h48z" />
    <glyph glyph-name="ubreve" unicode="&#x16d;" horiz-adv-x="633" 
d="M193 257q0 -32 1 -56t2.5 -41t4.5 -29t8 -21q23 -49 84 -49q27 0 52 10t44 27q22 20 32.5 46.5t12.5 68.5v267l-87 19v41h184v-480l77 -19v-41l-155 -10l-11 110h-4q-29 -51 -79 -80.5t-107 -29.5q-38 0 -69.5 14t-49.5 40q-20 28 -28.5 78.5t-8.5 136.5v221l-67 19v41
h164v-283zM464 780q-1 -36 -13 -64t-32 -47.5t-47.5 -29.5t-60.5 -10q-68 0 -104.5 41.5t-36.5 109.5h48q2 -44 28 -63t65 -19q50 0 77.5 19t27.5 63h48z" />
    <glyph glyph-name="gbreve" unicode="&#x11f;" horiz-adv-x="560" 
d="M507 -10q0 -38 -16.5 -70t-48 -55t-77 -36t-102.5 -13q-115 0 -174 32.5t-59 92.5q0 47 28 72t77 33v4q-66 19 -66 78q0 31 22.5 57.5t70.5 43.5q-50 18 -76.5 56t-26.5 93q0 40 14.5 71.5t41 54t64 34.5t84.5 12q93 0 147 -46l34 12l92 44h17v-88h-17l-70 8h-34
q29 -40 29 -96q0 -79 -54 -124.5t-151 -45.5q-11 0 -20.5 0.5t-19.5 1.5q-79 -12 -79 -59q0 -23 18 -31.5t70 -8.5h116q82 0 124 -30.5t42 -96.5zM232 40q-67 0 -97 -23t-30 -60q0 -91 156 -91q85 0 129.5 25.5t44.5 76.5q0 40 -30.5 56t-107.5 16h-65zM147 382
q0 -60 27 -91t86 -31t86 31t27 91t-27 91t-86 31t-86 -31t-27 -91zM414 780q-1 -36 -13 -64t-32 -47.5t-47.5 -29.5t-60.5 -10q-68 0 -104.5 41.5t-36.5 109.5h48q2 -44 28 -63t65 -19q50 0 77.5 19t27.5 63h48z" />
    <glyph glyph-name="ring" unicode="&#x2da;" horiz-adv-x="240" 
d="M35 713q0 36 24.5 61t59.5 25q36 0 61 -25t25 -61q0 -35 -25 -59.5t-61 -24.5q-35 0 -59.5 24.5t-24.5 59.5zM77 713q0 -18 12 -30t30 -12q19 0 31.5 12t12.5 30q0 19 -12.5 31.5t-31.5 12.5q-18 0 -30 -12.5t-12 -31.5z" />
    <glyph glyph-name="aring" unicode="&#xe5;" horiz-adv-x="537" 
d="M38 117q0 39 17.5 69t55.5 53.5t98 40.5t144 30q-5 59 -11.5 92t-17.5 53q-14 26 -39 38.5t-54 12.5q-28 0 -50.5 -10t-30.5 -27q14 -11 20.5 -26.5t6.5 -29.5q0 -25 -16.5 -39.5t-40.5 -14.5t-39.5 16t-15.5 45q0 31 17 55.5t44.5 41t62 25t68.5 8.5q85 0 134 -49
q62 -62 62 -220v-145q0 -50 6.5 -68.5t28.5 -18.5h45v-30q-72 -29 -112 -29q-15 0 -25 5t-16 17.5t-8.5 33.5t-2.5 53h-4q-31 -51 -82 -80t-110 -29q-63 0 -99 33.5t-36 93.5zM215 48q28 0 58.5 14.5t51.5 40.5q31 38 31 112q0 17 -1 33.5t-3 31.5q-61 -12 -101.5 -25
t-65 -29.5t-34.5 -38t-10 -49.5q0 -43 19.5 -66.5t54.5 -23.5zM181 713q0 36 24.5 61t59.5 25q36 0 61 -25t25 -61q0 -35 -25 -59.5t-61 -24.5q-35 0 -59.5 24.5t-24.5 59.5zM223 713q0 -18 12 -30t30 -12q19 0 31.5 12t12.5 30q0 19 -12.5 31.5t-31.5 12.5q-18 0 -30 -12.5
t-12 -31.5z" />
    <glyph glyph-name="uring" unicode="&#x16f;" horiz-adv-x="633" 
d="M193 257q0 -32 1 -56t2.5 -41t4.5 -29t8 -21q23 -49 84 -49q27 0 52 10t44 27q22 20 32.5 46.5t12.5 68.5v267l-87 19v41h184v-480l77 -19v-41l-155 -10l-11 110h-4q-29 -51 -79 -80.5t-107 -29.5q-38 0 -69.5 14t-49.5 40q-20 28 -28.5 78.5t-8.5 136.5v221l-67 19v41
h164v-283zM227 713q0 36 24.5 61t59.5 25q36 0 61 -25t25 -61q0 -35 -25 -59.5t-61 -24.5q-35 0 -59.5 24.5t-24.5 59.5zM269 713q0 -18 12 -30t30 -12q19 0 31.5 12t12.5 30q0 19 -12.5 31.5t-31.5 12.5q-18 0 -30 -12.5t-12 -31.5z" />
    <glyph glyph-name="ibreve" unicode="&#x12d;" horiz-adv-x="312" 
d="M36 499v41h174v-480l77 -19v-41h-251v41l77 19v420zM314 780q-1 -36 -13 -64t-32 -47.5t-47.5 -29.5t-60.5 -10q-68 0 -104.5 41.5t-36.5 109.5h48q2 -44 28 -63t65 -19q50 0 77.5 19t27.5 63h48z" />
    <glyph glyph-name="aeacute" unicode="&#x1fd;" horiz-adv-x="836" 
d="M38 117q0 39 17.5 69t55.5 53.5t98 40.5t144 30q-5 59 -11.5 92t-17.5 53q-14 26 -39 38.5t-54 12.5q-28 0 -50.5 -10t-30.5 -27q14 -11 20.5 -26.5t6.5 -29.5q0 -25 -16.5 -39.5t-40.5 -14.5t-39.5 16t-15.5 45q0 31 17 55.5t44.5 41t62 25t68.5 8.5q25 0 48.5 -6.5
t43 -19t34.5 -32t22 -45.5h5q20 51 66 77t103 26q103 0 158 -63.5t55 -175.5q0 -10 -0.5 -18.5t-2.5 -28.5h-349q0 -73 20 -121q20 -47 56.5 -66.5t80.5 -19.5q48 0 86.5 19.5t69.5 53.5l32 -24q-18 -24 -38.5 -45t-46.5 -37t-58 -25t-71 -9q-67 0 -118.5 27.5t-80.5 81.5
h-7q-31 -51 -82 -80t-110 -29q-63 0 -99 33.5t-36 93.5zM573 496q-120 0 -132 -183h250v33q0 72 -30.5 111t-87.5 39zM215 48q28 0 58.5 14.5t51.5 40.5q31 38 31 112q0 17 -1 33.5t-3 31.5q-61 -12 -101.5 -25t-65 -29.5t-34.5 -38t-10 -49.5q0 -43 19.5 -66.5t54.5 -23.5z
M430 715q29 45 46.5 62.5t38.5 17.5t33 -8.5t12 -26.5q0 -15 -20 -36.5t-68 -56.5l-38 -28h-53z" />
    <glyph glyph-name="aringacute" unicode="&#x1fb;" horiz-adv-x="537" 
d="M38 117q0 39 17.5 69t55.5 53.5t98 40.5t144 30q-5 59 -11.5 92t-17.5 53q-14 26 -39 38.5t-54 12.5q-28 0 -50.5 -10t-30.5 -27q14 -11 20.5 -26.5t6.5 -29.5q0 -25 -16.5 -39.5t-40.5 -14.5t-39.5 16t-15.5 45q0 31 17 55.5t44.5 41t62 25t68.5 8.5q85 0 134 -49
q62 -62 62 -220v-145q0 -50 6.5 -68.5t28.5 -18.5h45v-30q-72 -29 -112 -29q-15 0 -25 5t-16 17.5t-8.5 33.5t-2.5 53h-4q-31 -51 -82 -80t-110 -29q-63 0 -99 33.5t-36 93.5zM215 48q28 0 58.5 14.5t51.5 40.5q31 38 31 112q0 17 -1 33.5t-3 31.5q-61 -12 -101.5 -25
t-65 -29.5t-34.5 -38t-10 -49.5q0 -43 19.5 -66.5t54.5 -23.5zM175 681q0 36 24.5 61t59.5 25q6 0 12 -1t12 -3q16 20 26 26t24 6q34 0 34 -31q0 -12 -6 -21.5t-23 -26.5q7 -19 7 -35q0 -35 -25 -59.5t-61 -24.5q-18 0 -36 8l-16 -15h-53l34 46q-13 21 -13 45zM217 681
q0 -18 12 -30t30 -12q19 0 31.5 12t12.5 30q0 19 -12.5 31.5t-31.5 12.5q-18 0 -30 -12.5t-12 -31.5z" />
    <glyph glyph-name="macron" unicode="&#xaf;" horiz-adv-x="329" 
d="M25 730h279v-65h-279v65z" />
    <glyph glyph-name="asciicircum" unicode="^" horiz-adv-x="382" 
d="M327 639h-53l-83 91l-83 -91h-53l88 151h95z" />
    <glyph glyph-name="amacron" unicode="&#x101;" horiz-adv-x="537" 
d="M38 117q0 39 17.5 69t55.5 53.5t98 40.5t144 30q-5 59 -11.5 92t-17.5 53q-14 26 -39 38.5t-54 12.5q-28 0 -50.5 -10t-30.5 -27q14 -11 20.5 -26.5t6.5 -29.5q0 -25 -16.5 -39.5t-40.5 -14.5t-39.5 16t-15.5 45q0 31 17 55.5t44.5 41t62 25t68.5 8.5q85 0 134 -49
q62 -62 62 -220v-145q0 -50 6.5 -68.5t28.5 -18.5h45v-30q-72 -29 -112 -29q-15 0 -25 5t-16 17.5t-8.5 33.5t-2.5 53h-4q-31 -51 -82 -80t-110 -29q-63 0 -99 33.5t-36 93.5zM215 48q28 0 58.5 14.5t51.5 40.5q31 38 31 112q0 17 -1 33.5t-3 31.5q-61 -12 -101.5 -25
t-65 -29.5t-34.5 -38t-10 -49.5q0 -43 19.5 -66.5t54.5 -23.5zM123 730h279v-65h-279v65z" />
    <glyph glyph-name="emacron" unicode="&#x113;" 
d="M148 264q0 -73 20 -121q20 -47 56.5 -66.5t80.5 -19.5q48 0 86.5 19.5t69.5 53.5l32 -24q-18 -24 -38.5 -45t-46.5 -37t-58 -25t-71 -9q-69 0 -122 29.5t-81 86.5q-15 31 -22 68.5t-7 81.5q0 141 64 217.5t176 76.5q103 0 158 -63.5t55 -175.5q0 -10 -0.5 -18.5
t-2.5 -28.5h-349zM281 496q-120 0 -132 -183h250v33q0 72 -30.5 111t-87.5 39zM145 730h279v-65h-279v65z" />
    <glyph glyph-name="omacron" unicode="&#x14d;" horiz-adv-x="582" 
d="M536 275q0 -66 -19.5 -124t-54.5 -96q-59 -65 -174 -65q-112 0 -171 63q-34 37 -52.5 91.5t-18.5 118.5q0 66 19 125t55 97q32 34 74 49.5t98 15.5q55 0 99 -15.5t74 -47.5q35 -37 53 -92.5t18 -119.5zM153 274q0 -120 36 -179q17 -26 40.5 -39.5t61.5 -13.5q69 0 103 47
q18 26 26.5 72t8.5 106q0 119 -36 178q-17 26 -41 39.5t-62 13.5q-70 0 -101 -46q-36 -56 -36 -178zM151 730h279v-65h-279v65z" />
    <glyph glyph-name="umacron" unicode="&#x16b;" horiz-adv-x="633" 
d="M193 257q0 -32 1 -56t2.5 -41t4.5 -29t8 -21q23 -49 84 -49q27 0 52 10t44 27q22 20 32.5 46.5t12.5 68.5v267l-87 19v41h184v-480l77 -19v-41l-155 -10l-11 110h-4q-29 -51 -79 -80.5t-107 -29.5q-38 0 -69.5 14t-49.5 40q-20 28 -28.5 78.5t-8.5 136.5v221l-67 19v41
h164v-283zM171 730h279v-65h-279v65z" />
    <glyph glyph-name="imacron" unicode="&#x12b;" horiz-adv-x="312" 
d="M36 499v41h174v-480l77 -19v-41h-251v41l77 19v420zM21 730h279v-65h-279v65z" />
    <glyph glyph-name="quotedbl" unicode="&#x22;" horiz-adv-x="377" 
d="M81 485q0 33 -4 66t-9 62.5l-9 53t-4 37.5q0 25 10.5 40.5t39.5 15.5q28 0 38.5 -15t10.5 -41q0 -14 -4 -37.5l-9 -53t-9 -62.5t-4 -66h-47zM249 485q0 33 -4 66t-9 62.5l-9 53t-4 37.5q0 25 10.5 40.5t39.5 15.5q28 0 38.5 -15t10.5 -41q0 -14 -4 -37.5l-9 -53t-9 -62.5
t-4 -66h-47z" />
    <glyph glyph-name="quotesingle" unicode="'" horiz-adv-x="209" 
d="M81 485q0 33 -4 66t-9 62.5l-9 53t-4 37.5q0 25 10.5 40.5t39.5 15.5q28 0 38.5 -15t10.5 -41q0 -14 -4 -37.5l-9 -53t-9 -62.5t-4 -66h-47z" />
    <glyph glyph-name="caron.alt" horiz-adv-x="119" 
d="M39 605q0 25 -3 44t-6.5 35.5l-6.5 31.5t-3 31q0 14 7.5 28.5t32.5 14.5q23 0 31 -14.5t8 -28.5q0 -16 -3 -31t-7 -31.5t-7 -35.5t-3 -44h-40z" />
    <glyph glyph-name="dcaron" unicode="&#x10f;" horiz-adv-x="620" 
d="M46 265q0 66 17 124t51 96q29 32 68.5 48.5t92.5 16.5q45 0 81 -17t65 -61v248l-77 19v41h174v-720l77 -19v-41l-155 -10l-8 82q-31 -47 -70 -64.5t-87 -17.5q-51 0 -92 15t-68 48q-32 39 -50.5 93.5t-18.5 118.5zM421 266q0 123 -35 179q-16 26 -39 39.5t-61 13.5
q-68 0 -101 -47q-18 -26 -26 -72t-8 -106q0 -120 35 -178q17 -26 40 -39.5t61 -13.5q35 0 60 11.5t39 34.5q17 28 26 72.5t9 105.5zM613 605q0 25 -3 44t-6.5 35.5l-6.5 31.5t-3 31q0 14 7.5 28.5t32.5 14.5q23 0 31 -14.5t8 -28.5q0 -16 -3 -31t-7 -31.5t-7 -35.5t-3 -44
h-40z" />
    <glyph glyph-name="lcaron" unicode="&#x13e;" horiz-adv-x="308" 
d="M105 720l-77 19v41h174v-720l77 -19v-41h-251v41l77 19v660zM280 605q0 25 -3 44t-6.5 35.5l-6.5 31.5t-3 31q0 14 7.5 28.5t32.5 14.5q23 0 31 -14.5t8 -28.5q0 -16 -3 -31t-7 -31.5t-7 -35.5t-3 -44h-40z" />
    <glyph glyph-name="tcaron" unicode="&#x165;" horiz-adv-x="341" 
d="M9 526l97 14l13 126l84 12v-138h128v-50h-128v-357q0 -34 1 -46.5t4 -20.5t11 -10t26 -2h70v-29q-48 -18 -84.5 -26.5t-58.5 -8.5q-45 0 -58 37q-5 12 -6.5 30.5t-1.5 56.5v376h-97v36zM285 605q0 25 -3 44t-6.5 35.5l-6.5 31.5t-3 31q0 14 7.5 28.5t32.5 14.5
q23 0 31 -14.5t8 -28.5q0 -16 -3 -31t-7 -31.5t-7 -35.5t-3 -44h-40z" />
    <glyph glyph-name="tbar" unicode="&#x167;" horiz-adv-x="349" 
d="M13 526l97 14l13 126l84 12v-138h128v-50h-128v-99h127v-60h-127v-198q0 -34 1 -46.5t4 -20.5t11 -10t26 -2h70v-29q-48 -18 -84.5 -26.5t-58.5 -8.5q-45 0 -58 37q-5 12 -6.5 30.5t-1.5 56.5v217h-97v60h97v99h-97v36z" />
    <glyph glyph-name="ldot" unicode="&#x140;" horiz-adv-x="347" 
d="M105 720l-77 19v41h174v-720l77 -19v-41h-251v41l77 19v660zM273 358q0 30 17 47.5t46 17.5t46.5 -18t17.5 -47t-17.5 -46t-46.5 -17q-30 0 -46.5 16.5t-16.5 46.5z" />
    <glyph glyph-name="dcroat" unicode="&#x111;" horiz-adv-x="620" 
d="M314 672h107v48l-77 19v41h174v-108h77v-62h-77v-550l77 -19v-41l-155 -10l-8 82q-31 -47 -70 -64.5t-87 -17.5q-51 0 -92 15t-68 48q-32 39 -50.5 93.5t-18.5 118.5q0 66 17 124t51 96q29 32 68.5 48.5t92.5 16.5q45 0 81 -17t65 -61v138h-107v62zM421 266
q0 123 -35 179q-16 26 -39 39.5t-61 13.5q-68 0 -101 -47q-18 -26 -26 -72t-8 -106q0 -120 35 -178q17 -26 40 -39.5t61 -13.5q35 0 60 11.5t39 34.5q17 28 26 72.5t9 105.5z" />
    <glyph glyph-name="hbar" unicode="&#x127;" horiz-adv-x="644" 
d="M24 672h78v48l-77 19v41h174v-108h106v-62h-106v-164q30 48 79.5 76t106.5 28q40 0 72 -14t51 -40q20 -28 28.5 -78.5t8.5 -136.5v-221l77 -19v-41h-241v41l67 19v223q0 64 -3.5 96.5t-12.5 50.5q-25 49 -88 49q-28 0 -54 -10t-46 -27q-22 -20 -32.5 -46t-12.5 -65v-271
l67 -19v-41h-241v41l77 19v550h-78v62z" />
    <glyph glyph-name="apostrophe" unicode="&#x2bc;" horiz-adv-x="175" 
d="M91 790q26 0 40 -17t14 -48q0 -80 -93 -136l-22 27q32 26 47.5 46t17.5 37l-3 2q-2 -2 -7.5 -4t-10.5 -2q-17 0 -28 13t-11 32q0 21 16 35.5t40 14.5z" />
    <glyph glyph-name="napostrophe" unicode="&#x149;" horiz-adv-x="751" 
d="M209 480l-77 19v41h144l22 -100h4q30 51 80.5 80.5t109.5 29.5q40 0 72 -14t51 -40q20 -28 28.5 -78.5t8.5 -136.5v-221l77 -19v-41h-241v41l67 19v223q0 64 -3.5 96.5t-12.5 50.5q-25 49 -88 49q-28 0 -54 -10t-46 -27q-22 -20 -32.5 -46.5t-12.5 -68.5v-267l67 -19v-41
h-241v41l77 19v420zM80 790q26 0 40 -17t14 -48q0 -80 -93 -136l-22 27q32 26 47.5 46t17.5 37l-3 2q-2 -2 -7.5 -4t-10.5 -2q-17 0 -28 13t-11 32q0 21 16 35.5t40 14.5z" />
    <glyph glyph-name="commaaccent" unicode="&#xf6c3;" horiz-adv-x="180" 
d="M91 -44q26 0 40 -17t14 -48q0 -39 -19.5 -69.5t-61.5 -56.5l-22 27q29 23 40 39.5t13 33.5l-3 2q-2 -2 -7.5 -4t-10.5 -2q-17 0 -28 13t-11 32q0 21 16 35.5t40 14.5z" />
    <glyph glyph-name="kcommaaccent" unicode="&#x137;" horiz-adv-x="596" 
d="M429 60l-154 208l-76 -64v-144l77 -19v-41h-251v41l77 19v660l-77 19v41h174v-529l213 229l-66 19v41h215v-41l-73 -19l-151 -155l199 -267l53 -17v-41h-219v41zM316 -44q26 0 40 -17t14 -48q0 -39 -19.5 -69.5t-61.5 -56.5l-22 27q29 23 40 39.5t13 33.5l-3 2
q-2 -2 -7.5 -4t-10.5 -2q-17 0 -28 13t-11 32q0 21 16 35.5t40 14.5z" />
    <glyph glyph-name="lcommaaccent" unicode="&#x13c;" horiz-adv-x="308" 
d="M105 720l-77 19v41h174v-720l77 -19v-41h-251v41l77 19v660zM153 -44q26 0 40 -17t14 -48q0 -39 -19.5 -69.5t-61.5 -56.5l-22 27q29 23 40 39.5t13 33.5l-3 2q-2 -2 -7.5 -4t-10.5 -2q-17 0 -28 13t-11 32q0 21 16 35.5t40 14.5z" />
    <glyph glyph-name="ncommaaccent" unicode="&#x146;" horiz-adv-x="655" 
d="M113 480l-77 19v41h144l22 -100h4q30 51 80.5 80.5t109.5 29.5q40 0 72 -14t51 -40q20 -28 28.5 -78.5t8.5 -136.5v-221l77 -19v-41h-241v41l67 19v223q0 64 -3.5 96.5t-12.5 50.5q-25 49 -88 49q-28 0 -54 -10t-46 -27q-22 -20 -32.5 -46.5t-12.5 -68.5v-267l67 -19v-41
h-241v41l77 19v420zM335 -44q26 0 40 -17t14 -48q0 -39 -19.5 -69.5t-61.5 -56.5l-22 27q29 23 40 39.5t13 33.5l-3 2q-2 -2 -7.5 -4t-10.5 -2q-17 0 -28 13t-11 32q0 21 16 35.5t40 14.5z" />
    <glyph glyph-name="rcommaaccent" unicode="&#x157;" horiz-adv-x="458" 
d="M337 482q-9 6 -20 6q-19 0 -40 -23.5t-37 -59.5q-14 -34 -22 -74.5t-8 -83.5v-187l108 -19v-41h-282v41l77 19v420l-77 19v41h144l22 -132h4q23 68 61.5 105t86.5 37q39 0 65 -24.5t26 -65.5q0 -30 -15.5 -47.5t-41.5 -17.5t-41 16.5t-15 43.5q0 6 1 11t4 16zM162 -44
q26 0 40 -17t14 -48q0 -39 -19.5 -69.5t-61.5 -56.5l-22 27q29 23 40 39.5t13 33.5l-3 2q-2 -2 -7.5 -4t-10.5 -2q-17 0 -28 13t-11 32q0 21 16 35.5t40 14.5z" />
    <glyph glyph-name="uni0219" unicode="&#x219;" horiz-adv-x="503" 
d="M244 36q57 0 92 22.5t35 64.5q0 25 -13 42t-33.5 29t-46 20.5t-49.5 15.5q-31 9 -60.5 21t-53 30.5t-37.5 45t-14 64.5q0 72 52.5 115.5t146.5 43.5q80 0 126.5 -33.5t46.5 -91.5q0 -32 -14 -50t-40 -18q-23 0 -38 14t-15 36q0 19 10 34.5t26 22.5q-15 21 -38.5 30.5
t-60.5 9.5q-120 0 -120 -85q0 -23 8 -38t24 -26t39.5 -19.5t54.5 -18.5q34 -11 67 -23t59.5 -30t43 -45t16.5 -67q0 -39 -16 -69t-45 -50.5t-69 -31.5t-88 -11q-89 0 -142.5 35.5t-53.5 97.5q0 32 14.5 50.5t41.5 18.5q24 0 40.5 -14t16.5 -37q0 -19 -10.5 -36t-25.5 -25
q13 -20 46.5 -32t76.5 -12zM249 -44q26 0 40 -17t14 -48q0 -39 -19.5 -69.5t-61.5 -56.5l-22 27q29 23 40 39.5t13 33.5l-3 2q-2 -2 -7.5 -4t-10.5 -2q-17 0 -28 13t-11 32q0 21 16 35.5t40 14.5z" />
    <glyph glyph-name="uni021B" unicode="&#x21b;" horiz-adv-x="341" 
d="M9 526l97 14l13 126l84 12v-138h128v-50h-128v-357q0 -34 1 -46.5t4 -20.5t11 -10t26 -2h70v-29q-48 -18 -84.5 -26.5t-58.5 -8.5q-45 0 -58 37q-5 12 -6.5 30.5t-1.5 56.5v376h-97v36zM174 -44q26 0 40 -17t14 -48q0 -39 -19.5 -69.5t-61.5 -56.5l-22 27q29 23 40 39.5
t13 33.5l-3 2q-2 -2 -7.5 -4t-10.5 -2q-17 0 -28 13t-11 32q0 21 16 35.5t40 14.5z" />
    <glyph glyph-name="oslash" unicode="&#xf8;" horiz-adv-x="582" 
d="M536 275q0 -66 -19.5 -124t-54.5 -96q-59 -65 -174 -65q-51 0 -95 14l-33 -64h-64l47 90q-15 10 -26 23q-34 37 -52.5 91.5t-18.5 118.5q0 66 19 125t55 97q32 34 74 49.5t98 15.5q63 0 111 -21l27 53h64l-43 -82l14 -13q35 -37 53 -92.5t18 -119.5zM153 274
q0 -56 8 -97.5t22 -70.5l189 364q-15 14 -35 21t-47 7q-70 0 -101 -46q-36 -56 -36 -178zM429 267q0 90 -22 148l-185 -356q26 -17 69 -17q69 0 103 47q18 26 26.5 72t8.5 106z" />
    <glyph glyph-name="oslashacute" unicode="&#x1ff;" horiz-adv-x="582" 
d="M536 275q0 -66 -19.5 -124t-54.5 -96q-59 -65 -174 -65q-51 0 -95 14l-33 -64h-64l47 90q-15 10 -26 23q-34 37 -52.5 91.5t-18.5 118.5q0 66 19 125t55 97q32 34 74 49.5t98 15.5q63 0 111 -21l27 53h64l-43 -82l14 -13q35 -37 53 -92.5t18 -119.5zM153 274
q0 -56 8 -97.5t22 -70.5l189 364q-15 14 -35 21t-47 7q-70 0 -101 -46q-36 -56 -36 -178zM429 267q0 90 -22 148l-185 -356q26 -17 69 -17q69 0 103 47q18 26 26.5 72t8.5 106zM310 715q29 45 46.5 62.5t38.5 17.5t33 -8.5t12 -26.5q0 -15 -20 -36.5t-68 -56.5l-38 -28h-53z
" />
    <glyph glyph-name="cedilla" unicode="&#xb8;" horiz-adv-x="254" 
d="M116 -210q-53 0 -91 28l27 37q29 -20 59 -20q21 0 34 10t13 26q0 30 -54 30q-21 0 -42 -6l-13 22l77 100h44l-46 -76l1 -3q56 0 80 -16t24 -48q0 -41 -33 -62.5t-80 -21.5z" />
    <glyph glyph-name="ccedilla" unicode="&#xe7;" horiz-adv-x="536" 
d="M261 -210q-53 0 -91 28l27 37q29 -20 59 -20q21 0 34 10t13 26q0 30 -54 30q-21 0 -42 -6l-13 22l57 75q-117 12 -169 110q-17 32 -26.5 73.5t-9.5 88.5q0 65 18 117.5t51.5 90t81 58t105.5 20.5q87 0 138.5 -42.5t51.5 -113.5q0 -77 -62 -77q-29 0 -45 16t-16 43
q0 25 13.5 43t36.5 25q-29 55 -111 55t-119.5 -53t-37.5 -167q0 -95 26 -145q40 -77 131 -77q46 0 88 20t72 57l30 -24q-38 -59 -86.5 -87.5t-112.5 -31.5l-30 -50l1 -3q56 0 80 -16t24 -48q0 -41 -33 -62.5t-80 -21.5z" />
    <glyph glyph-name="uni0163" unicode="&#x163;" horiz-adv-x="341" 
d="M176 -210q-53 0 -91 28l27 37q29 -20 59 -20q21 0 34 10t13 26q0 30 -54 30q-21 0 -42 -6l-13 22l56 73q-39 3 -51 37q-5 12 -6.5 30.5t-1.5 56.5v376h-97v36l97 14l13 126l84 12v-138h128v-50h-128v-357q0 -34 1 -46.5t4 -20.5t11 -10t26 -2h70v-29q-29 -11 -53.5 -18
t-44.5 -11l-33 -55l1 -3q56 0 80 -16t24 -48q0 -41 -33 -62.5t-80 -21.5z" />
    <glyph glyph-name="uni015F" unicode="&#x15f;" horiz-adv-x="503" 
d="M230 -210q-53 0 -91 28l27 37q29 -20 59 -20q21 0 34 10t13 26q0 30 -54 30q-21 0 -42 -6l-13 22l56 74q-80 4 -127.5 39t-47.5 93q0 32 14.5 50.5t41.5 18.5q24 0 40.5 -14t16.5 -37q0 -19 -10.5 -36t-25.5 -25q13 -20 46.5 -32t76.5 -12q57 0 92 22.5t35 64.5
q0 25 -13 42t-33.5 29t-46 20.5t-49.5 15.5q-31 9 -60.5 21t-53 30.5t-37.5 45t-14 64.5q0 72 52.5 115.5t146.5 43.5q80 0 126.5 -33.5t46.5 -91.5q0 -32 -14 -50t-40 -18q-23 0 -38 14t-15 36q0 19 10 34.5t26 22.5q-15 21 -38.5 30.5t-60.5 9.5q-120 0 -120 -85
q0 -23 8 -38t24 -26t39.5 -19.5t54.5 -18.5q34 -11 67 -23t59.5 -30t43 -45t16.5 -67q0 -72 -52.5 -113.5t-137.5 -47.5l-30 -50l1 -3q56 0 80 -16t24 -48q0 -41 -33 -62.5t-80 -21.5z" />
    <glyph glyph-name="ogonek" unicode="&#x2db;" horiz-adv-x="275" 
d="M135 -210q-45 0 -72.5 23.5t-27.5 61.5q0 75 114 139h41q-83 -57 -83 -119q0 -47 50 -47q18 0 37 5t31 15l15 -22q-36 -56 -105 -56z" />
    <glyph glyph-name="aogonek" unicode="&#x105;" horiz-adv-x="537" 
d="M404 -210q-45 0 -72.5 23.5t-27.5 61.5q0 67 87 123q-13 9 -17.5 32.5t-4.5 68.5h-4q-31 -51 -82 -80t-110 -29q-63 0 -99 33.5t-36 93.5q0 39 17.5 69t55.5 53.5t98 40.5t144 30q-5 59 -11.5 92t-17.5 53q-14 26 -39 38.5t-54 12.5q-28 0 -50.5 -10t-30.5 -27
q14 -11 20.5 -26.5t6.5 -29.5q0 -25 -16.5 -39.5t-40.5 -14.5t-39.5 16t-15.5 45q0 31 17 55.5t44.5 41t62 25t68.5 8.5q85 0 134 -49q62 -62 62 -220v-145q0 -50 6.5 -68.5t28.5 -18.5h45v-30q-32 -14 -58.5 -20.5t-46.5 -8.5q-52 -46 -52 -95q0 -47 50 -47q18 0 37 5
t31 15l15 -22q-36 -56 -105 -56zM215 48q28 0 58.5 14.5t51.5 40.5q31 38 31 112q0 17 -1 33.5t-3 31.5q-61 -12 -101.5 -25t-65 -29.5t-34.5 -38t-10 -49.5q0 -43 19.5 -66.5t54.5 -23.5z" />
    <glyph glyph-name="eogonek" unicode="&#x119;" 
d="M264 -210q-45 0 -72.5 23.5t-27.5 61.5q0 62 78 117q-57 7 -99.5 35.5t-66.5 78.5q-15 31 -22 68.5t-7 81.5q0 141 64 217.5t176 76.5q103 0 158 -63.5t55 -175.5q0 -10 -0.5 -18.5t-2.5 -28.5h-349q0 -73 20 -121q20 -47 56.5 -66.5t80.5 -19.5q48 0 86.5 19.5
t69.5 53.5l32 -24q-17 -23 -37.5 -43.5t-45 -36.5t-55 -25.5t-67.5 -10.5q-52 -46 -52 -95q0 -47 50 -47q18 0 37 5t31 15l15 -22q-36 -56 -105 -56zM281 496q-120 0 -132 -183h250v33q0 72 -30.5 111t-87.5 39z" />
    <glyph glyph-name="iogonek" unicode="&#x12f;" horiz-adv-x="312" 
d="M145 -210q-45 0 -72.5 23.5t-27.5 61.5q0 68 90 125h-99v41l77 19v420l-77 19v41h174v-480l77 -19v-41h-106q-64 -50 -64 -105q0 -47 50 -47q18 0 37 5t31 15l15 -22q-36 -56 -105 -56zM99 701q0 29 16.5 46t45.5 17t46 -17t17 -46t-17 -45.5t-46 -16.5t-45.5 16.5
t-16.5 45.5z" />
    <glyph glyph-name="oogonek" unicode="&#x1eb;" horiz-adv-x="582" 
d="M271 -210q-45 0 -72.5 23.5t-27.5 61.5q0 62 78 117q-85 9 -132 61q-34 37 -52.5 91.5t-18.5 118.5q0 66 19 125t55 97q32 34 74 49.5t98 15.5q55 0 99 -15.5t74 -47.5q35 -37 53 -92.5t18 -119.5q0 -66 -19.5 -124t-54.5 -96q-29 -32 -71 -47.5t-96 -17.5
q-52 -46 -52 -95q0 -47 50 -47q18 0 37 5t31 15l15 -22q-36 -56 -105 -56zM153 274q0 -120 36 -179q17 -26 40.5 -39.5t61.5 -13.5q69 0 103 47q18 26 26.5 72t8.5 106q0 119 -36 178q-17 26 -41 39.5t-62 13.5q-70 0 -101 -46q-36 -56 -36 -178z" />
    <glyph glyph-name="uogonek" unicode="&#x173;" horiz-adv-x="633" 
d="M478 -210q-45 0 -72.5 23.5t-27.5 61.5q0 61 75 115l-11 110h-4q-29 -51 -79 -80.5t-107 -29.5q-38 0 -69.5 14t-49.5 40q-20 28 -28.5 78.5t-8.5 136.5v221l-67 19v41h164v-283q0 -32 1 -56t2.5 -41t4.5 -29t8 -21q23 -49 84 -49q27 0 52 10t44 27q22 20 32.5 46.5
t12.5 68.5v267l-87 19v41h184v-480l77 -19v-41l-102 -6q-56 -48 -56 -99q0 -47 50 -47q18 0 37 5t31 15l15 -22q-36 -56 -105 -56z" />
    <glyph glyph-name="lslash" unicode="&#x142;" horiz-adv-x="314" 
d="M25 357l83 52v311l-77 19v41h174v-309l88 56v-69l-88 -56v-342l77 -19v-41h-251v41l77 19v281l-83 -52v68z" />
    <glyph glyph-name="gcommaaccent" unicode="&#x123;" horiz-adv-x="560" 
d="M507 -10q0 -38 -16.5 -70t-48 -55t-77 -36t-102.5 -13q-115 0 -174 32.5t-59 92.5q0 47 28 72t77 33v4q-66 19 -66 78q0 31 22.5 57.5t70.5 43.5q-50 18 -76.5 56t-26.5 93q0 40 14.5 71.5t41 54t64 34.5t84.5 12q93 0 147 -46l34 12l92 44h17v-88h-17l-70 8h-34
q29 -40 29 -96q0 -79 -54 -124.5t-151 -45.5q-11 0 -20.5 0.5t-19.5 1.5q-79 -12 -79 -59q0 -23 18 -31.5t70 -8.5h116q82 0 124 -30.5t42 -96.5zM232 40q-67 0 -97 -23t-30 -60q0 -91 156 -91q85 0 129.5 25.5t44.5 76.5q0 40 -30.5 56t-107.5 16h-65zM147 382
q0 -60 27 -91t86 -31t86 31t27 91t-27 91t-86 31t-86 -31t-27 -91zM261 638q-26 0 -40 17t-14 48q0 39 19.5 69.5t61.5 56.5l22 -27q-29 -23 -40 -39.5t-13 -33.5l3 -2q2 2 7.5 4t10.5 2q17 0 28 -13t11 -32q0 -21 -16 -35.5t-40 -14.5z" />
    <glyph glyph-name="uni01C5" unicode="&#x1c5;" horiz-adv-x="1304" 
d="M387 60q106 0 156 66q55 70 55 228q0 156 -55 232q-52 74 -166 74h-145v-600h155zM384 720q149 0 232 -84q47 -48 72 -118t25 -150q0 -85 -26 -158t-74 -123q-42 -45 -100 -66t-138 -21h-327v43l84 21v592l-84 21v43h336zM1196 192h57v-192h-443v56l328 428h-234
l-24 -131h-57v187h426v-56l-328 -428h255zM1089 639h-106l-83 141h56l80 -91l83 91h53z" />
    <glyph glyph-name="uni01C6" unicode="&#x1c6;" horiz-adv-x="1158" 
d="M46 265q0 66 17 124t51 96q29 32 68.5 48.5t92.5 16.5q45 0 81 -17t65 -61v248l-77 19v41h174v-720l77 -19v-41l-155 -10l-8 82q-31 -47 -70 -64.5t-87 -17.5q-51 0 -92 15t-68 48q-32 39 -50.5 93.5t-18.5 118.5zM421 266q0 123 -35 179q-16 26 -39 39.5t-61 13.5
q-68 0 -101 -47q-18 -26 -26 -72t-8 -106q0 -120 35 -178q17 -26 40 -39.5t61 -13.5q35 0 60 11.5t39 34.5q17 28 26 72.5t9 105.5zM1050 192h57v-192h-443v56l328 428h-234l-24 -131h-57v187h426v-56l-328 -428h255zM943 639h-106l-83 141h56l80 -91l83 91h53z" />
    <glyph glyph-name="ellipsis" unicode="&#x2026;" horiz-adv-x="716" 
d="M57 53q0 30 17 47.5t46 17.5t46.5 -18t17.5 -47t-17.5 -46t-46.5 -17q-30 0 -46.5 16.5t-16.5 46.5zM300 53q0 30 17 47.5t46 17.5t46.5 -18t17.5 -47t-17.5 -46t-46.5 -17q-30 0 -46.5 16.5t-16.5 46.5zM533 53q0 30 17 47.5t46 17.5t46.5 -18t17.5 -47t-17.5 -46
t-46.5 -17q-30 0 -46.5 16.5t-16.5 46.5z" />
    <glyph glyph-name="six" unicode="6" horiz-adv-x="603" 
d="M158 351q28 37 75 58t102 21q48 0 87 -16t67 -44.5t43.5 -69.5t15.5 -90q0 -103 -64 -161.5t-175 -58.5q-128 0 -189 85.5t-61 264.5q0 192 65.5 291.5t191.5 99.5q46 0 84 -12t65 -34.5t42 -53.5t15 -68q0 -84 -68 -84q-29 0 -46.5 16t-17.5 45q0 28 17.5 44.5
t48.5 16.5q-8 37 -41.5 56t-89.5 19q-91 0 -132 -66t-41 -212v-24t2 -23h4zM441 210q0 163 -133 163t-133 -163q0 -165 133 -165t133 165z" />
    <glyph glyph-name="dotaccent.cap" horiz-adv-x="185" 
d="M30 832q0 29 16.5 46t45.5 17t46 -17t17 -46t-17 -45.5t-46 -16.5t-45.5 16.5t-16.5 45.5z" />
    <glyph glyph-name="dieresis.cap" horiz-adv-x="407" 
d="M30 831q0 28 15.5 43.5t42.5 15.5t43 -16t16 -43t-15.5 -42.5t-43.5 -15.5q-27 0 -42.5 15.5t-15.5 42.5zM260 831q0 28 15.5 43.5t42.5 15.5t43 -16t16 -43t-15.5 -42.5t-43.5 -15.5q-27 0 -42.5 15.5t-15.5 42.5z" />
    <glyph glyph-name="acute.cap" horiz-adv-x="259" 
d="M101 847q21 27 38.5 37.5t36.5 10.5q37 0 37 -30q0 -16 -17.5 -29.5t-55.5 -36.5l-47 -29h-53z" />
    <glyph glyph-name="grave.cap" horiz-adv-x="259" 
d="M213 770h-53l-47 29q-38 23 -55.5 36.5t-17.5 29.5q0 30 37 30q19 0 36.5 -10.5t38.5 -37.5z" />
    <glyph glyph-name="hungarumlaut.cap" horiz-adv-x="425" 
d="M101 847q21 27 38.5 37.5t36.5 10.5q37 0 37 -30q0 -16 -17.5 -29.5t-55.5 -36.5l-47 -29h-53zM281 847q21 27 38.5 37.5t36.5 10.5q37 0 37 -30q0 -16 -17.5 -29.5t-55.5 -36.5l-47 -29h-53z" />
    <glyph glyph-name="tilde.cap" horiz-adv-x="398" 
d="M15 770q16 115 112 115q25 0 44 -8.5t35 -19t31.5 -19t35.5 -8.5q30 0 45 13t20 37h45q-18 -121 -112 -121q-25 0 -43.5 8.5t-35 19t-32.5 19.5t-35 9q-30 0 -45 -12t-20 -33h-45z" />
    <glyph glyph-name="breve.cap" horiz-adv-x="364" 
d="M329 890q-2 -67 -45 -104t-108 -37q-68 0 -104.5 39t-36.5 102h48q2 -38 28 -55t65 -17q50 0 77.5 17t27.5 55h48z" />
    <glyph glyph-name="ring.cap" horiz-adv-x="240" 
d="M44 824q0 32 22 54t53 22q32 0 54 -22t22 -54q0 -31 -22 -52.5t-54 -21.5q-31 0 -53 21.5t-22 52.5zM98 824q0 -9 6 -15t15 -6q10 0 16.5 6t6.5 15q0 10 -6.5 16.5t-16.5 6.5q-9 0 -15 -6.5t-6 -16.5z" />
    <glyph glyph-name="macron.cap" horiz-adv-x="329" 
d="M25 861h279v-65h-279v65z" />
    <glyph glyph-name="circumflex.cap" horiz-adv-x="352" 
d="M342 769h-53l-113 61l-113 -61h-53l118 121h95z" />
    <glyph glyph-name="caron.cap" horiz-adv-x="352" 
d="M223 769h-95l-118 121h53l113 -61l113 61h53z" />
    <glyph glyph-name="Idotaccent" unicode="&#x130;" horiz-adv-x="374" 
d="M237 64l94 -21v-43h-288v43l94 21v592l-94 21v43h288v-43l-94 -21v-592zM125 832q0 29 16.5 46t45.5 17t46 -17t17 -46t-17 -45.5t-46 -16.5t-45.5 16.5t-16.5 45.5z" />
    <glyph glyph-name="Cdotaccent" unicode="&#x10a;" horiz-adv-x="684" 
d="M371 676q-95 0 -142 -62q-30 -39 -47 -102.5t-17 -139.5q0 -72 15 -133.5t42 -103.5t65.5 -61.5t96.5 -19.5q89 0 142 42.5t67 126.5h55q-23 -118 -90 -175.5t-184 -57.5q-138 0 -220 80q-49 48 -75 120.5t-26 162.5q0 101 33 182.5t93 131.5q76 63 201 63
q31 0 55.5 -3.5t45.5 -12t39.5 -22.5t37.5 -35l20 63h55v-221h-61q-29 177 -201 177zM320 832q0 29 16.5 46t45.5 17t46 -17t17 -46t-17 -45.5t-46 -16.5t-45.5 16.5t-16.5 45.5z" />
    <glyph glyph-name="Gdotaccent" unicode="&#x120;" horiz-adv-x="753" 
d="M375 55q170 0 170 168v70l-84 21v45h268v-45l-84 -21v-293h-52l-25 79q-44 -48 -90 -68.5t-109 -20.5q-137 0 -219 84q-47 48 -72 119t-25 159q0 89 26.5 165t74.5 127q81 86 219 86q60 0 102.5 -18.5t80.5 -60.5l22 69h55v-221h-61q-29 177 -203 177q-51 0 -85 -16.5
t-59 -51.5q-29 -42 -45 -106t-16 -136q0 -75 17.5 -137.5t49.5 -106.5q26 -35 59.5 -51t84.5 -16zM312 832q0 29 16.5 46t45.5 17t46 -17t17 -46t-17 -45.5t-46 -16.5t-45.5 16.5t-16.5 45.5z" />
    <glyph glyph-name="Zdotaccent" unicode="&#x17b;" horiz-adv-x="647" 
d="M543 223h57v-223h-563v61l426 599h-311l-32 -152h-52v212h509v-61l-426 -599h360zM267 832q0 29 16.5 46t45.5 17t46 -17t17 -46t-17 -45.5t-46 -16.5t-45.5 16.5t-16.5 45.5z" />
    <glyph glyph-name="Ndotaccent" unicode="&#x1e44;" horiz-adv-x="801" 
d="M132 656l-84 21v43h191l374 -553v489l-84 21v43h233v-43l-84 -21v-656h-71l-410 599v-535l84 -21v-43h-233v43l84 21v592zM338 832q0 29 16.5 46t45.5 17t46 -17t17 -46t-17 -45.5t-46 -16.5t-45.5 16.5t-16.5 45.5z" />
    <glyph glyph-name="Idieresis" unicode="&#xcf;" horiz-adv-x="374" 
d="M237 64l94 -21v-43h-288v43l94 21v592l-94 21v43h288v-43l-94 -21v-592zM14 831q0 28 15.5 43.5t42.5 15.5t43 -16t16 -43t-15.5 -42.5t-43.5 -15.5q-27 0 -42.5 15.5t-15.5 42.5zM244 831q0 28 15.5 43.5t42.5 15.5t43 -16t16 -43t-15.5 -42.5t-43.5 -15.5
q-27 0 -42.5 15.5t-15.5 42.5z" />
    <glyph glyph-name="Odieresis" unicode="&#xd6;" horiz-adv-x="764" 
d="M711 368q0 -88 -26 -164t-74 -127q-81 -87 -231 -87q-153 0 -231 84q-46 48 -71 120.5t-25 157.5q0 88 26 164t74 127q42 45 97.5 66t131.5 21q151 0 232 -84q47 -48 72 -120.5t25 -157.5zM168 372q0 -84 14 -148t40 -105q50 -74 163 -74q106 0 156 66q55 75 55 243
q0 83 -14 146t-41 102q-52 74 -162 74q-105 0 -156 -66q-55 -73 -55 -238zM209 831q0 28 15.5 43.5t42.5 15.5t43 -16t16 -43t-15.5 -42.5t-43.5 -15.5q-27 0 -42.5 15.5t-15.5 42.5zM439 831q0 28 15.5 43.5t42.5 15.5t43 -16t16 -43t-15.5 -42.5t-43.5 -15.5
q-27 0 -42.5 15.5t-15.5 42.5z" />
    <glyph glyph-name="Edieresis" unicode="&#xcb;" horiz-adv-x="685" 
d="M421 238l-18 102h-166v-280h302l31 163h58v-223h-585v43l94 21v592l-94 21v43h563v-212h-52l-32 154h-285v-262h166l18 102h51v-264h-51zM173 831q0 28 15.5 43.5t42.5 15.5t43 -16t16 -43t-15.5 -42.5t-43.5 -15.5q-27 0 -42.5 15.5t-15.5 42.5zM403 831q0 28 15.5 43.5
t42.5 15.5t43 -16t16 -43t-15.5 -42.5t-43.5 -15.5q-27 0 -42.5 15.5t-15.5 42.5z" />
    <glyph glyph-name="Udieresis" unicode="&#xdc;" horiz-adv-x="772" 
d="M592 656l-84 21v43h231v-43l-84 -21v-413q0 -125 -66.5 -189.5t-196.5 -64.5q-134 0 -205 66t-71 189v412l-84 21v43h268v-43l-84 -21v-395q0 -217 198 -217q94 0 136 50.5t42 164.5v397zM232 831q0 28 15.5 43.5t42.5 15.5t43 -16t16 -43t-15.5 -42.5t-43.5 -15.5
q-27 0 -42.5 15.5t-15.5 42.5zM462 831q0 28 15.5 43.5t42.5 15.5t43 -16t16 -43t-15.5 -42.5t-43.5 -15.5q-27 0 -42.5 15.5t-15.5 42.5z" />
    <glyph glyph-name="Adieresis" unicode="&#xc4;" horiz-adv-x="721" 
d="M473 242h-268l-61 -178l83 -21v-43h-234v43l82 21l240 666h93l237 -666l80 -21v-43h-275v43l82 21zM225 300h229l-108 341h-4zM189 831q0 28 15.5 43.5t42.5 15.5t43 -16t16 -43t-15.5 -42.5t-43.5 -15.5q-27 0 -42.5 15.5t-15.5 42.5zM419 831q0 28 15.5 43.5t42.5 15.5
t43 -16t16 -43t-15.5 -42.5t-43.5 -15.5q-27 0 -42.5 15.5t-15.5 42.5z" />
    <glyph glyph-name="Wdieresis" unicode="&#x1e84;" horiz-adv-x="1041" 
d="M892 657l-79 20v43h229v-43l-83 -21l-190 -656h-104l-147 481l-133 -481h-104l-208 656l-78 21v43h284v-43l-96 -21l165 -562h4l136 502l-13 60l-78 21v43h264v-43l-92 -21l164 -562h4zM350 831q0 28 15.5 43.5t42.5 15.5t43 -16t16 -43t-15.5 -42.5t-43.5 -15.5
q-27 0 -42.5 15.5t-15.5 42.5zM580 831q0 28 15.5 43.5t42.5 15.5t43 -16t16 -43t-15.5 -42.5t-43.5 -15.5q-27 0 -42.5 15.5t-15.5 42.5z" />
    <glyph glyph-name="Ydieresis" unicode="&#x178;" horiz-adv-x="678" 
d="M533 656l-81 21v43h227v-43l-82 -21l-204 -374v-218l94 -21v-43h-288v43l94 21v202l-215 390l-83 21v43h276v-43l-84 -21l172 -320zM186 832q0 28 15.5 43.5t42.5 15.5t43 -16t16 -43t-15.5 -42.5t-43.5 -15.5q-27 0 -42.5 15.5t-15.5 42.5zM416 832q0 28 15.5 43.5
t42.5 15.5t43 -16t16 -43t-15.5 -42.5t-43.5 -15.5q-27 0 -42.5 15.5t-15.5 42.5z" />
    <glyph glyph-name="Iacute" unicode="&#xcd;" horiz-adv-x="374" 
d="M237 64l94 -21v-43h-288v43l94 21v592l-94 21v43h288v-43l-94 -21v-592zM221 847q21 27 38.5 37.5t36.5 10.5q37 0 37 -30q0 -16 -17.5 -29.5t-55.5 -36.5l-47 -29h-53z" />
    <glyph glyph-name="Oacute" unicode="&#xd3;" horiz-adv-x="764" 
d="M711 368q0 -88 -26 -164t-74 -127q-81 -87 -231 -87q-153 0 -231 84q-46 48 -71 120.5t-25 157.5q0 88 26 164t74 127q42 45 97.5 66t131.5 21q151 0 232 -84q47 -48 72 -120.5t25 -157.5zM168 372q0 -84 14 -148t40 -105q50 -74 163 -74q106 0 156 66q55 75 55 243
q0 83 -14 146t-41 102q-52 74 -162 74q-105 0 -156 -66q-55 -73 -55 -238zM416 847q21 27 38.5 37.5t36.5 10.5q37 0 37 -30q0 -16 -17.5 -29.5t-55.5 -36.5l-47 -29h-53z" />
    <glyph glyph-name="Eacute" unicode="&#xc9;" horiz-adv-x="685" 
d="M421 238l-18 102h-166v-280h302l31 163h58v-223h-585v43l94 21v592l-94 21v43h563v-212h-52l-32 154h-285v-262h166l18 102h51v-264h-51zM380 847q21 27 38.5 37.5t36.5 10.5q37 0 37 -30q0 -16 -17.5 -29.5t-55.5 -36.5l-47 -29h-53z" />
    <glyph glyph-name="Racute" unicode="&#x154;" horiz-adv-x="706" 
d="M543 382q-18 -14 -42 -24t-59 -17q18 -18 40 -54l133 -225l89 -19v-43h-206v43l-144 280h-122v-259l95 -21v-43h-279v43l84 21v592l-84 21v43h344q48 0 84 -9t65 -29q37 -24 57.5 -66t20.5 -84t-20.5 -82.5t-55.5 -67.5zM375 381q55 0 91 31q20 18 31.5 48.5t11.5 65.5
t-11.5 63.5t-32.5 46.5q-17 14 -39.5 20t-54.5 6h-139v-281h143zM343 847q21 27 38.5 37.5t36.5 10.5q37 0 37 -30q0 -16 -17.5 -29.5t-55.5 -36.5l-47 -29h-53z" />
    <glyph glyph-name="Lacute" unicode="&#x139;" horiz-adv-x="629" 
d="M237 60h272l34 173h55v-233h-555v43l94 21v592l-94 21v43h298v-43l-104 -21v-596zM220 847q21 27 38.5 37.5t36.5 10.5q37 0 37 -30q0 -16 -17.5 -29.5t-55.5 -36.5l-47 -29h-53z" />
    <glyph glyph-name="Cacute" unicode="&#x106;" horiz-adv-x="684" 
d="M371 676q-95 0 -142 -62q-30 -39 -47 -102.5t-17 -139.5q0 -72 15 -133.5t42 -103.5t65.5 -61.5t96.5 -19.5q89 0 142 42.5t67 126.5h55q-23 -118 -90 -175.5t-184 -57.5q-138 0 -220 80q-49 48 -75 120.5t-26 162.5q0 101 33 182.5t93 131.5q76 63 201 63
q31 0 55.5 -3.5t45.5 -12t39.5 -22.5t37.5 -35l20 63h55v-221h-61q-29 177 -201 177zM416 847q21 27 38.5 37.5t36.5 10.5q37 0 37 -30q0 -16 -17.5 -29.5t-55.5 -36.5l-47 -29h-53z" />
    <glyph glyph-name="Zacute" unicode="&#x179;" horiz-adv-x="647" 
d="M543 223h57v-223h-563v61l426 599h-311l-32 -152h-52v212h509v-61l-426 -599h360zM363 847q21 27 38.5 37.5t36.5 10.5q37 0 37 -30q0 -16 -17.5 -29.5t-55.5 -36.5l-47 -29h-53z" />
    <glyph glyph-name="Uacute" unicode="&#xda;" horiz-adv-x="772" 
d="M592 656l-84 21v43h231v-43l-84 -21v-413q0 -125 -66.5 -189.5t-196.5 -64.5q-134 0 -205 66t-71 189v412l-84 21v43h268v-43l-84 -21v-395q0 -217 198 -217q94 0 136 50.5t42 164.5v397zM439 847q21 27 38.5 37.5t36.5 10.5q37 0 37 -30q0 -16 -17.5 -29.5t-55.5 -36.5
l-47 -29h-53z" />
    <glyph glyph-name="Nacute" unicode="&#x143;" horiz-adv-x="801" 
d="M132 656l-84 21v43h191l374 -553v489l-84 21v43h233v-43l-84 -21v-656h-71l-410 599v-535l84 -21v-43h-233v43l84 21v592zM434 847q21 27 38.5 37.5t36.5 10.5q37 0 37 -30q0 -16 -17.5 -29.5t-55.5 -36.5l-47 -29h-53z" />
    <glyph glyph-name="Aacute" unicode="&#xc1;" horiz-adv-x="721" 
d="M473 242h-268l-61 -178l83 -21v-43h-234v43l82 21l240 666h93l237 -666l80 -21v-43h-275v43l82 21zM225 300h229l-108 341h-4zM396 847q21 27 38.5 37.5t36.5 10.5q37 0 37 -30q0 -16 -17.5 -29.5t-55.5 -36.5l-47 -29h-53z" />
    <glyph glyph-name="Wacute" unicode="&#x1e82;" horiz-adv-x="1041" 
d="M892 657l-79 20v43h229v-43l-83 -21l-190 -656h-104l-147 481l-133 -481h-104l-208 656l-78 21v43h284v-43l-96 -21l165 -562h4l136 502l-13 60l-78 21v43h264v-43l-92 -21l164 -562h4zM557 847q21 27 38.5 37.5t36.5 10.5q37 0 37 -30q0 -16 -17.5 -29.5t-55.5 -36.5
l-47 -29h-53z" />
    <glyph glyph-name="Yacute" unicode="&#xdd;" horiz-adv-x="678" 
d="M533 656l-81 21v43h227v-43l-82 -21l-204 -374v-218l94 -21v-43h-288v43l94 21v202l-215 390l-83 21v43h276v-43l-84 -21l172 -320zM393 848q21 27 38.5 37.5t36.5 10.5q37 0 37 -30q0 -16 -17.5 -29.5t-55.5 -36.5l-47 -29h-53z" />
    <glyph glyph-name="Sacute" unicode="&#x15a;" horiz-adv-x="599" 
d="M321 -11q-60 0 -108 18t-80 51l-11 -58h-56v227h61q6 -96 47.5 -139.5t127.5 -43.5q143 0 143 109q0 32 -12.5 56t-35.5 43.5t-56.5 36t-75.5 33.5q-48 19 -84.5 37.5t-61 42t-37.5 54t-13 74.5q0 95 59.5 148t159.5 53q99 0 161 -56l8 45h56v-227h-57q0 97 -35.5 140.5
t-113.5 43.5q-137 0 -137 -125q0 -25 6 -42.5t22.5 -32.5t44.5 -29t72 -33q62 -27 106 -51.5t71.5 -51.5t40.5 -58t13 -70q0 -46 -16.5 -82.5t-46 -61.5t-71 -38t-91.5 -13zM322 847q21 27 38.5 37.5t36.5 10.5q37 0 37 -30q0 -16 -17.5 -29.5t-55.5 -36.5l-47 -29h-53z" />
    <glyph glyph-name="Igrave" unicode="&#xcc;" horiz-adv-x="374" 
d="M237 64l94 -21v-43h-288v43l94 21v592l-94 21v43h288v-43l-94 -21v-592zM255 770h-53l-47 29q-38 23 -55.5 36.5t-17.5 29.5q0 30 37 30q19 0 36.5 -10.5t38.5 -37.5z" />
    <glyph glyph-name="Ograve" unicode="&#xd2;" horiz-adv-x="764" 
d="M711 368q0 -88 -26 -164t-74 -127q-81 -87 -231 -87q-153 0 -231 84q-46 48 -71 120.5t-25 157.5q0 88 26 164t74 127q42 45 97.5 66t131.5 21q151 0 232 -84q47 -48 72 -120.5t25 -157.5zM168 372q0 -84 14 -148t40 -105q50 -74 163 -74q106 0 156 66q55 75 55 243
q0 83 -14 146t-41 102q-52 74 -162 74q-105 0 -156 -66q-55 -73 -55 -238zM453 770h-53l-47 29q-38 23 -55.5 36.5t-17.5 29.5q0 30 37 30q19 0 36.5 -10.5t38.5 -37.5z" />
    <glyph glyph-name="Egrave" unicode="&#xc8;" horiz-adv-x="685" 
d="M421 238l-18 102h-166v-280h302l31 163h58v-223h-585v43l94 21v592l-94 21v43h563v-212h-52l-32 154h-285v-262h166l18 102h51v-264h-51zM415 770h-53l-47 29q-38 23 -55.5 36.5t-17.5 29.5q0 30 37 30q19 0 36.5 -10.5t38.5 -37.5z" />
    <glyph glyph-name="Ugrave" unicode="&#xd9;" horiz-adv-x="772" 
d="M592 656l-84 21v43h231v-43l-84 -21v-413q0 -125 -66.5 -189.5t-196.5 -64.5q-134 0 -205 66t-71 189v412l-84 21v43h268v-43l-84 -21v-395q0 -217 198 -217q94 0 136 50.5t42 164.5v397zM475 770h-53l-47 29q-38 23 -55.5 36.5t-17.5 29.5q0 30 37 30q19 0 36.5 -10.5
t38.5 -37.5z" />
    <glyph glyph-name="Agrave" unicode="&#xc0;" horiz-adv-x="721" 
d="M473 242h-268l-61 -178l83 -21v-43h-234v43l82 21l240 666h93l237 -666l80 -21v-43h-275v43l82 21zM225 300h229l-108 341h-4zM408 770h-53l-47 29q-38 23 -55.5 36.5t-17.5 29.5q0 30 37 30q19 0 36.5 -10.5t38.5 -37.5z" />
    <glyph glyph-name="Wgrave" unicode="&#x1e80;" horiz-adv-x="1041" 
d="M892 657l-79 20v43h229v-43l-83 -21l-190 -656h-104l-147 481l-133 -481h-104l-208 656l-78 21v43h284v-43l-96 -21l165 -562h4l136 502l-13 60l-78 21v43h264v-43l-92 -21l164 -562h4zM577 770h-53l-47 29q-38 23 -55.5 36.5t-17.5 29.5q0 30 37 30q19 0 36.5 -10.5
t38.5 -37.5z" />
    <glyph glyph-name="Ygrave" unicode="&#x1ef2;" horiz-adv-x="678" 
d="M533 656l-81 21v43h227v-43l-82 -21l-204 -374v-218l94 -21v-43h-288v43l94 21v202l-215 390l-83 21v43h276v-43l-84 -21l172 -320zM417 771h-53l-47 29q-38 23 -55.5 36.5t-17.5 29.5q0 30 37 30q19 0 36.5 -10.5t38.5 -37.5z" />
    <glyph glyph-name="Ohungarumlaut" unicode="&#x150;" horiz-adv-x="764" 
d="M711 368q0 -88 -26 -164t-74 -127q-81 -87 -231 -87q-153 0 -231 84q-46 48 -71 120.5t-25 157.5q0 88 26 164t74 127q42 45 97.5 66t131.5 21q151 0 232 -84q47 -48 72 -120.5t25 -157.5zM168 372q0 -84 14 -148t40 -105q50 -74 163 -74q106 0 156 66q55 75 55 243
q0 83 -14 146t-41 102q-52 74 -162 74q-105 0 -156 -66q-55 -73 -55 -238zM329 847q21 27 38.5 37.5t36.5 10.5q37 0 37 -30q0 -16 -17.5 -29.5t-55.5 -36.5l-47 -29h-53zM509 847q21 27 38.5 37.5t36.5 10.5q37 0 37 -30q0 -16 -17.5 -29.5t-55.5 -36.5l-47 -29h-53z" />
    <glyph glyph-name="Uhungarumlaut" unicode="&#x170;" horiz-adv-x="772" 
d="M592 656l-84 21v43h231v-43l-84 -21v-413q0 -125 -66.5 -189.5t-196.5 -64.5q-134 0 -205 66t-71 189v412l-84 21v43h268v-43l-84 -21v-395q0 -217 198 -217q94 0 136 50.5t42 164.5v397zM352 847q21 27 38.5 37.5t36.5 10.5q37 0 37 -30q0 -16 -17.5 -29.5t-55.5 -36.5
l-47 -29h-53zM532 847q21 27 38.5 37.5t36.5 10.5q37 0 37 -30q0 -16 -17.5 -29.5t-55.5 -36.5l-47 -29h-53z" />
    <glyph glyph-name="lacute" unicode="&#x13a;" horiz-adv-x="308" 
d="M178 847q21 27 38.5 37.5t36.5 10.5q37 0 37 -30q0 -16 -17.5 -29.5t-55.5 -36.5l-47 -29h-53zM105 660l-77 19v41h174v-660l77 -19v-41h-251v41l77 19v600z" />
    <glyph glyph-name="Itilde" unicode="&#x128;" horiz-adv-x="374" 
d="M237 64l94 -21v-43h-288v43l94 21v592l-94 21v43h288v-43l-94 -21v-592zM3 770q16 115 112 115q25 0 44 -8.5t35 -19t31.5 -19t35.5 -8.5q30 0 45 13t20 37h45q-18 -121 -112 -121q-25 0 -43.5 8.5t-35 19t-32.5 19.5t-35 9q-30 0 -45 -12t-20 -33h-45z" />
    <glyph glyph-name="Otilde" unicode="&#xd5;" horiz-adv-x="764" 
d="M711 368q0 -88 -26 -164t-74 -127q-81 -87 -231 -87q-153 0 -231 84q-46 48 -71 120.5t-25 157.5q0 88 26 164t74 127q42 45 97.5 66t131.5 21q151 0 232 -84q47 -48 72 -120.5t25 -157.5zM168 372q0 -84 14 -148t40 -105q50 -74 163 -74q106 0 156 66q55 75 55 243
q0 83 -14 146t-41 102q-52 74 -162 74q-105 0 -156 -66q-55 -73 -55 -238zM198 770q16 115 112 115q25 0 44 -8.5t35 -19t31.5 -19t35.5 -8.5q30 0 45 13t20 37h45q-18 -121 -112 -121q-25 0 -43.5 8.5t-35 19t-32.5 19.5t-35 9q-30 0 -45 -12t-20 -33h-45z" />
    <glyph glyph-name="Etilde" unicode="&#x1ebc;" horiz-adv-x="685" 
d="M421 238l-18 102h-166v-280h302l31 163h58v-223h-585v43l94 21v592l-94 21v43h563v-212h-52l-32 154h-285v-262h166l18 102h51v-264h-51zM162 770q16 115 112 115q25 0 44 -8.5t35 -19t31.5 -19t35.5 -8.5q30 0 45 13t20 37h45q-18 -121 -112 -121q-25 0 -43.5 8.5
t-35 19t-32.5 19.5t-35 9q-30 0 -45 -12t-20 -33h-45z" />
    <glyph glyph-name="Utilde" unicode="&#x168;" horiz-adv-x="772" 
d="M592 656l-84 21v43h231v-43l-84 -21v-413q0 -125 -66.5 -189.5t-196.5 -64.5q-134 0 -205 66t-71 189v412l-84 21v43h268v-43l-84 -21v-395q0 -217 198 -217q94 0 136 50.5t42 164.5v397zM221 770q16 115 112 115q25 0 44 -8.5t35 -19t31.5 -19t35.5 -8.5q30 0 45 13
t20 37h45q-18 -121 -112 -121q-25 0 -43.5 8.5t-35 19t-32.5 19.5t-35 9q-30 0 -45 -12t-20 -33h-45z" />
    <glyph glyph-name="Ntilde" unicode="&#xd1;" horiz-adv-x="801" 
d="M132 656l-84 21v43h191l374 -553v489l-84 21v43h233v-43l-84 -21v-656h-71l-410 599v-535l84 -21v-43h-233v43l84 21v592zM216 770q16 115 112 115q25 0 44 -8.5t35 -19t31.5 -19t35.5 -8.5q30 0 45 13t20 37h45q-18 -121 -112 -121q-25 0 -43.5 8.5t-35 19t-32.5 19.5
t-35 9q-30 0 -45 -12t-20 -33h-45z" />
    <glyph glyph-name="Atilde" unicode="&#xc3;" horiz-adv-x="721" 
d="M473 242h-268l-61 -178l83 -21v-43h-234v43l82 21l240 666h93l237 -666l80 -21v-43h-275v43l82 21zM225 300h229l-108 341h-4zM178 770q16 115 112 115q25 0 44 -8.5t35 -19t31.5 -19t35.5 -8.5q30 0 45 13t20 37h45q-18 -121 -112 -121q-25 0 -43.5 8.5t-35 19
t-32.5 19.5t-35 9q-30 0 -45 -12t-20 -33h-45z" />
    <glyph glyph-name="Ytilde" unicode="&#x1ef8;" horiz-adv-x="678" 
d="M533 656l-81 21v43h227v-43l-82 -21l-204 -374v-218l94 -21v-43h-288v43l94 21v202l-215 390l-83 21v43h276v-43l-84 -21l172 -320zM175 771q16 115 112 115q25 0 44 -8.5t35 -19t31.5 -19t35.5 -8.5q30 0 45 13t20 37h45q-18 -121 -112 -121q-25 0 -43.5 8.5t-35 19
t-32.5 19.5t-35 9q-30 0 -45 -12t-20 -33h-45z" />
    <glyph glyph-name="Obreve" unicode="&#x14e;" horiz-adv-x="764" 
d="M711 368q0 -88 -26 -164t-74 -127q-81 -87 -231 -87q-153 0 -231 84q-46 48 -71 120.5t-25 157.5q0 88 26 164t74 127q42 45 97.5 66t131.5 21q151 0 232 -84q47 -48 72 -120.5t25 -157.5zM168 372q0 -84 14 -148t40 -105q50 -74 163 -74q106 0 156 66q55 75 55 243
q0 83 -14 146t-41 102q-52 74 -162 74q-105 0 -156 -66q-55 -73 -55 -238zM535 890q-2 -67 -45 -104t-108 -37q-68 0 -104.5 39t-36.5 102h48q2 -38 28 -55t65 -17q50 0 77.5 17t27.5 55h48z" />
    <glyph glyph-name="Ebreve" unicode="&#x114;" horiz-adv-x="685" 
d="M421 238l-18 102h-166v-280h302l31 163h58v-223h-585v43l94 21v592l-94 21v43h563v-212h-52l-32 154h-285v-262h166l18 102h51v-264h-51zM499 890q-2 -67 -45 -104t-108 -37q-68 0 -104.5 39t-36.5 102h48q2 -38 28 -55t65 -17q50 0 77.5 17t27.5 55h48z" />
    <glyph glyph-name="Gbreve" unicode="&#x11e;" horiz-adv-x="753" 
d="M375 55q170 0 170 168v70l-84 21v45h268v-45l-84 -21v-293h-52l-25 79q-44 -48 -90 -68.5t-109 -20.5q-137 0 -219 84q-47 48 -72 119t-25 159q0 89 26.5 165t74.5 127q81 86 219 86q60 0 102.5 -18.5t80.5 -60.5l22 69h55v-221h-61q-29 177 -203 177q-51 0 -85 -16.5
t-59 -51.5q-29 -42 -45 -106t-16 -136q0 -75 17.5 -137.5t49.5 -106.5q26 -35 59.5 -51t84.5 -16zM527 890q-2 -67 -45 -104t-108 -37q-68 0 -104.5 39t-36.5 102h48q2 -38 28 -55t65 -17q50 0 77.5 17t27.5 55h48z" />
    <glyph glyph-name="Ubreve" unicode="&#x16c;" horiz-adv-x="772" 
d="M592 656l-84 21v43h231v-43l-84 -21v-413q0 -125 -66.5 -189.5t-196.5 -64.5q-134 0 -205 66t-71 189v412l-84 21v43h268v-43l-84 -21v-395q0 -217 198 -217q94 0 136 50.5t42 164.5v397zM558 890q-2 -67 -45 -104t-108 -37q-68 0 -104.5 39t-36.5 102h48q2 -38 28 -55
t65 -17q50 0 77.5 17t27.5 55h48z" />
    <glyph glyph-name="Abreve" unicode="&#x102;" horiz-adv-x="721" 
d="M473 242h-268l-61 -178l83 -21v-43h-234v43l82 21l240 666h93l237 -666l80 -21v-43h-275v43l82 21zM225 300h229l-108 341h-4zM515 890q-2 -67 -45 -104t-108 -37q-68 0 -104.5 39t-36.5 102h48q2 -38 28 -55t65 -17q50 0 77.5 17t27.5 55h48z" />
    <glyph glyph-name="Aring" unicode="&#xc5;" horiz-adv-x="721" 
d="M473 242h-268l-61 -178l83 -21v-43h-234v43l82 21l240 666h93l237 -666l80 -21v-43h-275v43l82 21zM225 300h229l-108 341h-4zM287 824q0 32 22 54t53 22q32 0 54 -22t22 -54q0 -31 -22 -52.5t-54 -21.5q-31 0 -53 21.5t-22 52.5zM341 824q0 -9 6 -15t15 -6q10 0 16.5 6
t6.5 15q0 10 -6.5 16.5t-16.5 6.5q-9 0 -15 -6.5t-6 -16.5z" />
    <glyph glyph-name="Imacron" unicode="&#x12a;" horiz-adv-x="374" 
d="M237 64l94 -21v-43h-288v43l94 21v592l-94 21v43h288v-43l-94 -21v-592zM47 861h279v-65h-279v65z" />
    <glyph glyph-name="Omacron" unicode="&#x14c;" horiz-adv-x="764" 
d="M711 368q0 -88 -26 -164t-74 -127q-81 -87 -231 -87q-153 0 -231 84q-46 48 -71 120.5t-25 157.5q0 88 26 164t74 127q42 45 97.5 66t131.5 21q151 0 232 -84q47 -48 72 -120.5t25 -157.5zM168 372q0 -84 14 -148t40 -105q50 -74 163 -74q106 0 156 66q55 75 55 243
q0 83 -14 146t-41 102q-52 74 -162 74q-105 0 -156 -66q-55 -73 -55 -238zM242 861h279v-65h-279v65z" />
    <glyph glyph-name="Emacron" unicode="&#x112;" horiz-adv-x="685" 
d="M421 238l-18 102h-166v-280h302l31 163h58v-223h-585v43l94 21v592l-94 21v43h563v-212h-52l-32 154h-285v-262h166l18 102h51v-264h-51zM206 861h279v-65h-279v65z" />
    <glyph glyph-name="Umacron" unicode="&#x16a;" horiz-adv-x="772" 
d="M592 656l-84 21v43h231v-43l-84 -21v-413q0 -125 -66.5 -189.5t-196.5 -64.5q-134 0 -205 66t-71 189v412l-84 21v43h268v-43l-84 -21v-395q0 -217 198 -217q94 0 136 50.5t42 164.5v397zM265 861h279v-65h-279v65z" />
    <glyph glyph-name="Amacron" unicode="&#x100;" horiz-adv-x="721" 
d="M473 242h-268l-61 -178l83 -21v-43h-234v43l82 21l240 666h93l237 -666l80 -21v-43h-275v43l82 21zM225 300h229l-108 341h-4zM222 861h279v-65h-279v65z" />
    <glyph glyph-name="Icircumflex" unicode="&#xce;" horiz-adv-x="374" 
d="M237 64l94 -21v-43h-288v43l94 21v592l-94 21v43h288v-43l-94 -21v-592zM353 769h-53l-113 61l-113 -61h-53l118 121h95z" />
    <glyph glyph-name="Hcircumflex" unicode="&#x124;" horiz-adv-x="803" 
d="M671 64l84 -21v-43h-268v43l84 21v277h-339v-277l84 -21v-43h-268v43l84 21v592l-84 21v43h268v-43l-84 -21v-257h339v257l-84 21v43h268v-43l-84 -21v-592zM571 769h-53l-113 61l-113 -61h-53l118 121h95z" />
    <glyph glyph-name="Ocircumflex" unicode="&#xd4;" horiz-adv-x="764" 
d="M711 368q0 -88 -26 -164t-74 -127q-81 -87 -231 -87q-153 0 -231 84q-46 48 -71 120.5t-25 157.5q0 88 26 164t74 127q42 45 97.5 66t131.5 21q151 0 232 -84q47 -48 72 -120.5t25 -157.5zM168 372q0 -84 14 -148t40 -105q50 -74 163 -74q106 0 156 66q55 75 55 243
q0 83 -14 146t-41 102q-52 74 -162 74q-105 0 -156 -66q-55 -73 -55 -238zM548 769h-53l-113 61l-113 -61h-53l118 121h95z" />
    <glyph glyph-name="Ecircumflex" unicode="&#xca;" horiz-adv-x="685" 
d="M421 238l-18 102h-166v-280h302l31 163h58v-223h-585v43l94 21v592l-94 21v43h563v-212h-52l-32 154h-285v-262h166l18 102h51v-264h-51zM512 769h-53l-113 61l-113 -61h-53l118 121h95z" />
    <glyph glyph-name="Ccircumflex" unicode="&#x108;" horiz-adv-x="684" 
d="M371 676q-95 0 -142 -62q-30 -39 -47 -102.5t-17 -139.5q0 -72 15 -133.5t42 -103.5t65.5 -61.5t96.5 -19.5q89 0 142 42.5t67 126.5h55q-23 -118 -90 -175.5t-184 -57.5q-138 0 -220 80q-49 48 -75 120.5t-26 162.5q0 101 33 182.5t93 131.5q76 63 201 63
q31 0 55.5 -3.5t45.5 -12t39.5 -22.5t37.5 -35l20 63h55v-221h-61q-29 177 -201 177zM548 769h-53l-113 61l-113 -61h-53l118 121h95z" />
    <glyph glyph-name="Gcircumflex" unicode="&#x11c;" horiz-adv-x="753" 
d="M375 55q170 0 170 168v70l-84 21v45h268v-45l-84 -21v-293h-52l-25 79q-44 -48 -90 -68.5t-109 -20.5q-137 0 -219 84q-47 48 -72 119t-25 159q0 89 26.5 165t74.5 127q81 86 219 86q60 0 102.5 -18.5t80.5 -60.5l22 69h55v-221h-61q-29 177 -203 177q-51 0 -85 -16.5
t-59 -51.5q-29 -42 -45 -106t-16 -136q0 -75 17.5 -137.5t49.5 -106.5q26 -35 59.5 -51t84.5 -16zM540 769h-53l-113 61l-113 -61h-53l118 121h95z" />
    <glyph glyph-name="Jcircumflex" unicode="&#x134;" horiz-adv-x="583" 
d="M365 656l-99 21v43h278v-43l-79 -21v-438q0 -52 -17 -94t-48 -72t-74.5 -46.5t-96.5 -16.5q-47 0 -86 13.5t-66.5 38t-43 59t-15.5 75.5q0 84 66 84q29 0 46 -16t17 -42q0 -23 -13 -46.5t-30 -31.5q0 -32 34.5 -54t89.5 -22q71 0 104 39.5t33 120.5v449zM583 769h-53
l-113 61l-113 -61h-53l118 121h95z" />
    <glyph glyph-name="Ucircumflex" unicode="&#xdb;" horiz-adv-x="772" 
d="M592 656l-84 21v43h231v-43l-84 -21v-413q0 -125 -66.5 -189.5t-196.5 -64.5q-134 0 -205 66t-71 189v412l-84 21v43h268v-43l-84 -21v-395q0 -217 198 -217q94 0 136 50.5t42 164.5v397zM571 769h-53l-113 61l-113 -61h-53l118 121h95z" />
    <glyph glyph-name="Acircumflex" unicode="&#xc2;" horiz-adv-x="721" 
d="M473 242h-268l-61 -178l83 -21v-43h-234v43l82 21l240 666h93l237 -666l80 -21v-43h-275v43l82 21zM225 300h229l-108 341h-4zM528 769h-53l-113 61l-113 -61h-53l118 121h95z" />
    <glyph glyph-name="Wcircumflex" unicode="&#x174;" horiz-adv-x="1041" 
d="M892 657l-79 20v43h229v-43l-83 -21l-190 -656h-104l-147 481l-133 -481h-104l-208 656l-78 21v43h284v-43l-96 -21l165 -562h4l136 502l-13 60l-78 21v43h264v-43l-92 -21l164 -562h4zM689 769h-53l-113 61l-113 -61h-53l118 121h95z" />
    <glyph glyph-name="Ycircumflex" unicode="&#x176;" horiz-adv-x="678" 
d="M533 656l-81 21v43h227v-43l-82 -21l-204 -374v-218l94 -21v-43h-288v43l94 21v202l-215 390l-83 21v43h276v-43l-84 -21l172 -320zM525 770h-53l-113 61l-113 -61h-53l118 121h95z" />
    <glyph glyph-name="Scircumflex" unicode="&#x15c;" horiz-adv-x="599" 
d="M321 -11q-60 0 -108 18t-80 51l-11 -58h-56v227h61q6 -96 47.5 -139.5t127.5 -43.5q143 0 143 109q0 32 -12.5 56t-35.5 43.5t-56.5 36t-75.5 33.5q-48 19 -84.5 37.5t-61 42t-37.5 54t-13 74.5q0 95 59.5 148t159.5 53q99 0 161 -56l8 45h56v-227h-57q0 97 -35.5 140.5
t-113.5 43.5q-137 0 -137 -125q0 -25 6 -42.5t22.5 -32.5t44.5 -29t72 -33q62 -27 106 -51.5t71.5 -51.5t40.5 -58t13 -70q0 -46 -16.5 -82.5t-46 -61.5t-71 -38t-91.5 -13zM454 769h-53l-113 61l-113 -61h-53l118 121h95z" />
    <glyph glyph-name="Ibreve" unicode="&#x12c;" horiz-adv-x="374" 
d="M237 64l94 -21v-43h-288v43l94 21v592l-94 21v43h288v-43l-94 -21v-592zM325 890q-2 -67 -45 -104t-108 -37q-68 0 -104.5 39t-36.5 102h48q2 -38 28 -55t65 -17q50 0 77.5 17t27.5 55h48z" />
    <glyph glyph-name="Dcaron" unicode="&#x10e;" horiz-adv-x="766" 
d="M387 60q106 0 156 66q55 70 55 228q0 156 -55 232q-52 74 -166 74h-145v-600h155zM384 720q149 0 232 -84q47 -48 72 -118t25 -150q0 -85 -26 -158t-74 -123q-42 -45 -100 -66t-138 -21h-327v43l84 21v592l-84 21v43h336zM409 769h-95l-118 121h53l113 -61l113 61h53z
" />
    <glyph glyph-name="Ecaron" unicode="&#x11a;" horiz-adv-x="685" 
d="M421 238l-18 102h-166v-280h302l31 163h58v-223h-585v43l94 21v592l-94 21v43h563v-212h-52l-32 154h-285v-262h166l18 102h51v-264h-51zM412 769h-95l-118 121h53l113 -61l113 61h53z" />
    <glyph glyph-name="Rcaron" unicode="&#x158;" horiz-adv-x="706" 
d="M543 382q-18 -14 -42 -24t-59 -17q18 -18 40 -54l133 -225l89 -19v-43h-206v43l-144 280h-122v-259l95 -21v-43h-279v43l84 21v592l-84 21v43h344q48 0 84 -9t65 -29q37 -24 57.5 -66t20.5 -84t-20.5 -82.5t-55.5 -67.5zM375 381q55 0 91 31q20 18 31.5 48.5t11.5 65.5
t-11.5 63.5t-32.5 46.5q-17 14 -39.5 20t-54.5 6h-139v-281h143zM392 769h-95l-118 121h53l113 -61l113 61h53z" />
    <glyph glyph-name="Lcaron" unicode="&#x13d;" horiz-adv-x="629" 
d="M237 60h272l34 173h55v-233h-555v43l94 21v592l-94 21v43h298v-43l-104 -21v-596zM233 769h-95l-118 121h53l113 -61l113 61h53z" />
    <glyph glyph-name="Ccaron" unicode="&#x10c;" horiz-adv-x="684" 
d="M371 676q-95 0 -142 -62q-30 -39 -47 -102.5t-17 -139.5q0 -72 15 -133.5t42 -103.5t65.5 -61.5t96.5 -19.5q89 0 142 42.5t67 126.5h55q-23 -118 -90 -175.5t-184 -57.5q-138 0 -220 80q-49 48 -75 120.5t-26 162.5q0 101 33 182.5t93 131.5q76 63 201 63
q31 0 55.5 -3.5t45.5 -12t39.5 -22.5t37.5 -35l20 63h55v-221h-61q-29 177 -201 177zM429 769h-95l-118 121h53l113 -61l113 61h53z" />
    <glyph glyph-name="Zcaron" unicode="&#x17d;" horiz-adv-x="647" 
d="M543 223h57v-223h-563v61l426 599h-311l-32 -152h-52v212h509v-61l-426 -599h360zM376 769h-95l-118 121h53l113 -61l113 61h53z" />
    <glyph glyph-name="Uring" unicode="&#x16e;" horiz-adv-x="772" 
d="M592 656l-84 21v43h231v-43l-84 -21v-413q0 -125 -66.5 -189.5t-196.5 -64.5q-134 0 -205 66t-71 189v412l-84 21v43h268v-43l-84 -21v-395q0 -217 198 -217q94 0 136 50.5t42 164.5v397zM330 824q0 32 22 54t53 22q32 0 54 -22t22 -54q0 -31 -22 -52.5t-54 -21.5
q-31 0 -53 21.5t-22 52.5zM384 824q0 -9 6 -15t15 -6q10 0 16.5 6t6.5 15q0 10 -6.5 16.5t-16.5 6.5q-9 0 -15 -6.5t-6 -16.5z" />
    <glyph glyph-name="Ncaron" unicode="&#x147;" horiz-adv-x="801" 
d="M132 656l-84 21v43h191l374 -553v489l-84 21v43h233v-43l-84 -21v-656h-71l-410 599v-535l84 -21v-43h-233v43l84 21v592zM447 769h-95l-118 121h53l113 -61l113 61h53z" />
    <glyph glyph-name="Scaron" unicode="&#x160;" horiz-adv-x="599" 
d="M321 -11q-60 0 -108 18t-80 51l-11 -58h-56v227h61q6 -96 47.5 -139.5t127.5 -43.5q143 0 143 109q0 32 -12.5 56t-35.5 43.5t-56.5 36t-75.5 33.5q-48 19 -84.5 37.5t-61 42t-37.5 54t-13 74.5q0 95 59.5 148t159.5 53q99 0 161 -56l8 45h56v-227h-57q0 97 -35.5 140.5
t-113.5 43.5q-137 0 -137 -125q0 -25 6 -42.5t22.5 -32.5t44.5 -29t72 -33q62 -27 106 -51.5t71.5 -51.5t40.5 -58t13 -70q0 -46 -16.5 -82.5t-46 -61.5t-71 -38t-91.5 -13zM353 769h-95l-118 121h53l113 -61l113 61h53z" />
    <glyph glyph-name="Ccedilla" unicode="&#xc7;" horiz-adv-x="684" 
d="M354 -210q-53 0 -91 28l27 37q29 -20 59 -20q21 0 34 10t13 26q0 30 -54 30q-21 0 -42 -6l-13 22l57 74q-119 9 -190 79q-49 48 -75 120.5t-26 162.5q0 101 33 182.5t93 131.5q76 63 201 63q31 0 55.5 -3.5t45.5 -12t39.5 -22.5t37.5 -35l20 63h55v-221h-61
q-29 177 -201 177q-95 0 -142 -62q-30 -39 -47 -102.5t-17 -139.5q0 -72 15 -133.5t42 -103.5t65.5 -61.5t96.5 -19.5q89 0 142 42.5t67 126.5h55q-22 -114 -84.5 -171t-171.5 -61l-30 -50l1 -3q56 0 80 -16t24 -48q0 -41 -33 -62.5t-80 -21.5z" />
    <glyph glyph-name="uni015E" unicode="&#x15e;" horiz-adv-x="599" 
d="M298 -210q-53 0 -91 28l27 37q29 -20 59 -20q21 0 34 10t13 26q0 30 -54 30q-21 0 -42 -6l-13 22l56 74q-48 5 -87.5 21.5t-66.5 45.5l-11 -58h-56v227h61q6 -96 47.5 -139.5t127.5 -43.5q143 0 143 109q0 32 -12.5 56t-35.5 43.5t-56.5 36t-75.5 33.5q-48 19 -84.5 37.5
t-61 42t-37.5 54t-13 74.5q0 95 59.5 148t159.5 53q99 0 161 -56l8 45h56v-227h-57q0 97 -35.5 140.5t-113.5 43.5q-137 0 -137 -125q0 -25 6 -42.5t22.5 -32.5t44.5 -29t72 -33q62 -27 106 -51.5t71.5 -51.5t40.5 -58t13 -70q0 -45 -15.5 -80t-43 -60t-66.5 -39t-86 -16
l-29 -48l1 -3q56 0 80 -16t24 -48q0 -41 -33 -62.5t-80 -21.5z" />
    <glyph glyph-name="uni0162" unicode="&#x162;" horiz-adv-x="658" 
d="M304 -210q-53 0 -91 28l27 37q29 -20 59 -20q21 0 34 10t13 26q0 30 -54 30q-21 0 -42 -6l-13 22l64 83h-128v43l106 24v593h-165l-31 -150h-52v210h596v-210h-52l-32 150h-164v-593l106 -24v-43h-138l-35 -59l1 -3q56 0 80 -16t24 -48q0 -41 -33 -62.5t-80 -21.5z" />
    <glyph glyph-name="Iogonek" unicode="&#x12e;" horiz-adv-x="374" 
d="M170 -210q-45 0 -72.5 23.5t-27.5 61.5q0 68 90 125h-117v43l94 21v592l-94 21v43h288v-43l-94 -21v-592l94 -21v-43h-125q-64 -50 -64 -105q0 -47 50 -47q18 0 37 5t31 15l15 -22q-36 -56 -105 -56z" />
    <glyph glyph-name="Oogonek" unicode="&#x1ea;" horiz-adv-x="764" 
d="M362 -210q-45 0 -72.5 23.5t-27.5 61.5q0 63 78 117q-124 9 -191 82q-46 48 -71 120.5t-25 157.5q0 88 26 164t74 127q42 45 97.5 66t131.5 21q151 0 232 -84q47 -48 72 -120.5t25 -157.5q0 -88 -26 -164t-74 -127q-80 -86 -225 -87q-52 -46 -52 -95q0 -47 50 -47
q18 0 37 5t31 15l15 -22q-36 -56 -105 -56zM168 372q0 -84 14 -148t40 -105q50 -74 163 -74q106 0 156 66q55 75 55 243q0 83 -14 146t-41 102q-52 74 -162 74q-105 0 -156 -66q-55 -73 -55 -238z" />
    <glyph glyph-name="Eogonek" unicode="&#x118;" horiz-adv-x="685" 
d="M335 -210q-45 0 -72.5 23.5t-27.5 61.5q0 68 90 125h-282v43l94 21v592l-94 21v43h563v-212h-52l-32 154h-285v-262h166l18 102h51v-264h-51l-18 102h-166v-280h302l31 163h58v-223h-257q-64 -50 -64 -105q0 -47 50 -47q18 0 37 5t31 15l15 -22q-36 -56 -105 -56z" />
    <glyph glyph-name="Uogonek" unicode="&#x172;" horiz-adv-x="772" 
d="M387 -210q-45 0 -72.5 23.5t-27.5 61.5q0 62 75 115q-119 8 -182.5 73t-63.5 181v412l-84 21v43h268v-43l-84 -21v-395q0 -217 198 -217q94 0 136 50.5t42 164.5v397l-84 21v43h231v-43l-84 -21v-413q0 -121 -62 -185t-183 -69q-51 -45 -51 -94q0 -47 50 -47q18 0 37 5
t31 15l15 -22q-36 -56 -105 -56z" />
    <glyph glyph-name="Aogonek" unicode="&#x104;" horiz-adv-x="721" 
d="M578 -210q-45 0 -72.5 23.5t-27.5 61.5q0 68 90 125h-118v43l82 21l-59 178h-268l-61 -178l83 -21v-43h-234v43l82 21l240 666h93l237 -666l80 -21v-43h-111q-64 -50 -64 -105q0 -47 50 -47q18 0 37 5t31 15l15 -22q-36 -56 -105 -56zM225 300h229l-108 341h-4z" />
    <glyph glyph-name="Aringacute" unicode="&#x1fa;" horiz-adv-x="721" 
d="M473 242h-268l-61 -178l83 -21v-43h-234v43l82 21l240 641h93l237 -641l80 -21v-43h-275v43l82 21zM225 300h229l-108 326h-4zM281 824q0 32 22 54t53 22q28 0 49 -18q8 2 15 3t14 1q33 0 33 -21q0 -19 -35 -36v-5q0 -31 -22 -52.5t-54 -21.5q-17 0 -32 7t-26 19l-13 -6
h-36l36 31q-4 9 -4 23zM335 824q0 -9 6 -15t15 -6q10 0 16.5 6t6.5 15q0 10 -6.5 16.5t-16.5 6.5q-9 0 -15 -6.5t-6 -16.5z" />
    <glyph glyph-name="AEacute" unicode="&#x1fc;" horiz-adv-x="1057" 
d="M793 238l-18 102h-166v-280h302l31 163h58v-223h-585v43l94 21v178h-252l-98 -178l79 -21v-43h-247v43l94 21l337 602l-84 11v43h640v-212h-52l-32 154h-285v-262h166l18 102h51v-264h-51zM486 659l-197 -359h220v356zM665 847q21 27 38.5 37.5t36.5 10.5q37 0 37 -30
q0 -16 -17.5 -29.5t-55.5 -36.5l-47 -29h-53z" />
    <glyph glyph-name="Rcommaaccent" unicode="&#x156;" horiz-adv-x="706" 
d="M543 382q-18 -14 -42 -24t-59 -17q18 -18 40 -54l133 -225l89 -19v-43h-206v43l-144 280h-122v-259l95 -21v-43h-279v43l84 21v592l-84 21v43h344q48 0 84 -9t65 -29q37 -24 57.5 -66t20.5 -84t-20.5 -82.5t-55.5 -67.5zM375 381q55 0 91 31q20 18 31.5 48.5t11.5 65.5
t-11.5 63.5t-32.5 46.5q-17 14 -39.5 20t-54.5 6h-139v-281h143zM382 -44q26 0 40 -17t14 -48q0 -39 -19.5 -69.5t-61.5 -56.5l-22 27q29 23 40 39.5t13 33.5l-3 2q-2 -2 -7.5 -4t-10.5 -2q-17 0 -28 13t-11 32q0 21 16 35.5t40 14.5z" />
    <glyph glyph-name="Lcommaaccent" unicode="&#x13b;" horiz-adv-x="629" 
d="M237 60h272l34 173h55v-233h-555v43l94 21v592l-94 21v43h298v-43l-104 -21v-596zM335 -44q26 0 40 -17t14 -48q0 -39 -19.5 -69.5t-61.5 -56.5l-22 27q29 23 40 39.5t13 33.5l-3 2q-2 -2 -7.5 -4t-10.5 -2q-17 0 -28 13t-11 32q0 21 16 35.5t40 14.5z" />
    <glyph glyph-name="Gcommaaccent" unicode="&#x122;" horiz-adv-x="753" 
d="M375 55q170 0 170 168v70l-84 21v45h268v-45l-84 -21v-293h-52l-25 79q-44 -48 -90 -68.5t-109 -20.5q-137 0 -219 84q-47 48 -72 119t-25 159q0 89 26.5 165t74.5 127q81 86 219 86q60 0 102.5 -18.5t80.5 -60.5l22 69h55v-221h-61q-29 177 -203 177q-51 0 -85 -16.5
t-59 -51.5q-29 -42 -45 -106t-16 -136q0 -75 17.5 -137.5t49.5 -106.5q26 -35 59.5 -51t84.5 -16zM374 -44q26 0 40 -17t14 -48q0 -39 -19.5 -69.5t-61.5 -56.5l-22 27q29 23 40 39.5t13 33.5l-3 2q-2 -2 -7.5 -4t-10.5 -2q-17 0 -28 13t-11 32q0 21 16 35.5t40 14.5z" />
    <glyph glyph-name="Ncommaaccent" unicode="&#x145;" horiz-adv-x="801" 
d="M132 656l-84 21v43h191l374 -553v489l-84 21v43h233v-43l-84 -21v-656h-71l-410 599v-535l84 -21v-43h-233v43l84 21v592zM401 -44q26 0 40 -17t14 -48q0 -39 -19.5 -69.5t-61.5 -56.5l-22 27q29 23 40 39.5t13 33.5l-3 2q-2 -2 -7.5 -4t-10.5 -2q-17 0 -28 13t-11 32
q0 21 16 35.5t40 14.5z" />
    <glyph glyph-name="Kcommaaccent" unicode="&#x136;" horiz-adv-x="741" 
d="M237 366l280 290l-91 21v43h263v-43l-88 -21l-234 -232l299 -362l84 -19v-43h-279v43l66 20l-237 293l-63 -60v-232l84 -21v-43h-278v43l94 21v592l-94 21v43h278v-43l-84 -21v-290zM386 -44q26 0 40 -17t14 -48q0 -39 -19.5 -69.5t-61.5 -56.5l-22 27q29 23 40 39.5
t13 33.5l-3 2q-2 -2 -7.5 -4t-10.5 -2q-17 0 -28 13t-11 32q0 21 16 35.5t40 14.5z" />
    <glyph glyph-name="uni021A" unicode="&#x21a;" horiz-adv-x="658" 
d="M627 720v-210h-52l-32 150h-164v-593l106 -24v-43h-312v43l106 24v593h-165l-31 -150h-52v210h596zM328 -44q26 0 40 -17t14 -48q0 -39 -19.5 -69.5t-61.5 -56.5l-22 27q29 23 40 39.5t13 33.5l-3 2q-2 -2 -7.5 -4t-10.5 -2q-17 0 -28 13t-11 32q0 21 16 35.5t40 14.5z
" />
    <glyph glyph-name="uni0218" unicode="&#x218;" horiz-adv-x="599" 
d="M321 -11q-60 0 -108 18t-80 51l-11 -58h-56v227h61q6 -96 47.5 -139.5t127.5 -43.5q143 0 143 109q0 32 -12.5 56t-35.5 43.5t-56.5 36t-75.5 33.5q-48 19 -84.5 37.5t-61 42t-37.5 54t-13 74.5q0 95 59.5 148t159.5 53q99 0 161 -56l8 45h56v-227h-57q0 97 -35.5 140.5
t-113.5 43.5q-137 0 -137 -125q0 -25 6 -42.5t22.5 -32.5t44.5 -29t72 -33q62 -27 106 -51.5t71.5 -51.5t40.5 -58t13 -70q0 -46 -16.5 -82.5t-46 -61.5t-71 -38t-91.5 -13zM322 -44q26 0 40 -17t14 -48q0 -39 -19.5 -69.5t-61.5 -56.5l-22 27q29 23 40 39.5t13 33.5l-3 2
q-2 -2 -7.5 -4t-10.5 -2q-17 0 -28 13t-11 32q0 21 16 35.5t40 14.5z" />
    <glyph glyph-name="Edotaccent" unicode="&#x116;" horiz-adv-x="685" 
d="M421 238l-18 102h-166v-280h302l31 163h58v-223h-585v43l94 21v592l-94 21v43h563v-212h-52l-32 154h-285v-262h166l18 102h51v-264h-51zM286 832q0 29 16.5 46t45.5 17t46 -17t17 -46t-17 -45.5t-46 -16.5t-45.5 16.5t-16.5 45.5z" />
    <glyph glyph-name="Dcroat" unicode="&#x110;" horiz-adv-x="771" 
d="M53 397h84v259l-84 21v43h336q149 0 232 -84q47 -48 72 -118t25 -150q0 -85 -26 -158t-74 -123q-42 -45 -100 -66t-138 -21h-327v43l84 21v268h-84v65zM392 60q106 0 156 66q55 70 55 228q0 156 -55 232q-52 74 -166 74h-145v-263h145v-65h-145v-272h155z" />
    <glyph glyph-name="Eth" unicode="&#xd0;" horiz-adv-x="771" 
d="M53 397h84v259l-84 21v43h336q149 0 232 -84q47 -48 72 -118t25 -150q0 -85 -26 -158t-74 -123q-42 -45 -100 -66t-138 -21h-327v43l84 21v266h-84v67zM392 60q106 0 156 66q55 70 55 228q0 156 -55 232q-52 74 -166 74h-145v-263h127v-67h-127v-270h155z" />
    <glyph glyph-name="Idotbelow" unicode="&#x1eca;" horiz-adv-x="374" 
d="M237 64l94 -21v-43h-288v43l94 21v592l-94 21v43h288v-43l-94 -21v-592zM126 -128q0 29 16.5 46t45.5 17t46 -17t17 -46t-17 -45.5t-46 -16.5t-45.5 16.5t-16.5 45.5z" />
    <glyph glyph-name="Hdotbelow" unicode="&#x1e24;" horiz-adv-x="803" 
d="M671 64l84 -21v-43h-268v43l84 21v277h-339v-277l84 -21v-43h-268v43l84 21v592l-84 21v43h268v-43l-84 -21v-257h339v257l-84 21v43h268v-43l-84 -21v-592zM342 -128q0 29 16.5 46t45.5 17t46 -17t17 -46t-17 -45.5t-46 -16.5t-45.5 16.5t-16.5 45.5z" />
    <glyph glyph-name="Odotbelow" unicode="&#x1ecc;" horiz-adv-x="764" 
d="M711 368q0 -88 -26 -164t-74 -127q-81 -87 -231 -87q-153 0 -231 84q-46 48 -71 120.5t-25 157.5q0 88 26 164t74 127q42 45 97.5 66t131.5 21q151 0 232 -84q47 -48 72 -120.5t25 -157.5zM168 372q0 -84 14 -148t40 -105q50 -74 163 -74q106 0 156 66q55 75 55 243
q0 83 -14 146t-41 102q-52 74 -162 74q-105 0 -156 -66q-55 -73 -55 -238zM318 -128q0 29 16.5 46t45.5 17t46 -17t17 -46t-17 -45.5t-46 -16.5t-45.5 16.5t-16.5 45.5z" />
    <glyph glyph-name="Ddotbelow" unicode="&#x1e0c;" horiz-adv-x="766" 
d="M387 60q106 0 156 66q55 70 55 228q0 156 -55 232q-52 74 -166 74h-145v-600h155zM384 720q149 0 232 -84q47 -48 72 -118t25 -150q0 -85 -26 -158t-74 -123q-42 -45 -100 -66t-138 -21h-327v43l84 21v592l-84 21v43h336zM265 -128q0 29 16.5 46t45.5 17t46 -17t17 -46
t-17 -45.5t-46 -16.5t-45.5 16.5t-16.5 45.5z" />
    <glyph glyph-name="Edotbelow" unicode="&#x1eb8;" horiz-adv-x="685" 
d="M421 238l-18 102h-166v-280h302l31 163h58v-223h-585v43l94 21v592l-94 21v43h563v-212h-52l-32 154h-285v-262h166l18 102h51v-264h-51zM291 -128q0 29 16.5 46t45.5 17t46 -17t17 -46t-17 -45.5t-46 -16.5t-45.5 16.5t-16.5 45.5z" />
    <glyph glyph-name="Tdotbelow" unicode="&#x1e6c;" horiz-adv-x="658" 
d="M627 720v-210h-52l-32 150h-164v-593l106 -24v-43h-312v43l106 24v593h-165l-31 -150h-52v210h596zM265 -128q0 29 16.5 46t45.5 17t46 -17t17 -46t-17 -45.5t-46 -16.5t-45.5 16.5t-16.5 45.5z" />
    <glyph glyph-name="Rdotbelow" unicode="&#x1e5a;" horiz-adv-x="706" 
d="M543 382q-18 -14 -42 -24t-59 -17q18 -18 40 -54l133 -225l89 -19v-43h-206v43l-144 280h-122v-259l95 -21v-43h-279v43l84 21v592l-84 21v43h344q48 0 84 -9t65 -29q37 -24 57.5 -66t20.5 -84t-20.5 -82.5t-55.5 -67.5zM375 381q55 0 91 31q20 18 31.5 48.5t11.5 65.5
t-11.5 63.5t-32.5 46.5q-17 14 -39.5 20t-54.5 6h-139v-281h143zM319 -128q0 29 16.5 46t45.5 17t46 -17t17 -46t-17 -45.5t-46 -16.5t-45.5 16.5t-16.5 45.5z" />
    <glyph glyph-name="Zdotbelow" unicode="&#x1e92;" horiz-adv-x="647" 
d="M543 223h57v-223h-563v61l426 599h-311l-32 -152h-52v212h509v-61l-426 -599h360zM274 -128q0 29 16.5 46t45.5 17t46 -17t17 -46t-17 -45.5t-46 -16.5t-45.5 16.5t-16.5 45.5z" />
    <glyph glyph-name="Udotbelow" unicode="&#x1ee4;" horiz-adv-x="772" 
d="M592 656l-84 21v43h231v-43l-84 -21v-413q0 -125 -66.5 -189.5t-196.5 -64.5q-134 0 -205 66t-71 189v412l-84 21v43h268v-43l-84 -21v-395q0 -217 198 -217q94 0 136 50.5t42 164.5v397zM343 -128q0 29 16.5 46t45.5 17t46 -17t17 -46t-17 -45.5t-46 -16.5t-45.5 16.5
t-16.5 45.5z" />
    <glyph glyph-name="Sdotbelow" unicode="&#x1e62;" horiz-adv-x="599" 
d="M321 -11q-60 0 -108 18t-80 51l-11 -58h-56v227h61q6 -96 47.5 -139.5t127.5 -43.5q143 0 143 109q0 32 -12.5 56t-35.5 43.5t-56.5 36t-75.5 33.5q-48 19 -84.5 37.5t-61 42t-37.5 54t-13 74.5q0 95 59.5 148t159.5 53q99 0 161 -56l8 45h56v-227h-57q0 97 -35.5 140.5
t-113.5 43.5q-137 0 -137 -125q0 -25 6 -42.5t22.5 -32.5t44.5 -29t72 -33q62 -27 106 -51.5t71.5 -51.5t40.5 -58t13 -70q0 -46 -16.5 -82.5t-46 -61.5t-71 -38t-91.5 -13zM259 -128q0 29 16.5 46t45.5 17t46 -17t17 -46t-17 -45.5t-46 -16.5t-45.5 16.5t-16.5 45.5z" />
    <glyph glyph-name="Hbar" unicode="&#x126;" horiz-adv-x="813" 
d="M676 561h84v-65h-84v-432l84 -21v-43h-268v43l84 21v277h-339v-277l84 -21v-43h-268v43l84 21v432h-83v65h83v95l-84 21v43h268v-43l-84 -21v-95h339v95l-84 21v43h268v-43l-84 -21v-95zM576 399v97h-339v-97h339z" />
    <glyph glyph-name="Ldot" unicode="&#x13f;" horiz-adv-x="629" 
d="M237 60h272l34 173h55v-233h-555v43l94 21v592l-94 21v43h298v-43l-104 -21v-596zM331 360q0 30 17 47.5t46 17.5t46.5 -18t17.5 -47t-17.5 -46t-46.5 -17q-30 0 -46.5 16.5t-16.5 46.5z" />
    <glyph glyph-name="Oslash" unicode="&#xd8;" horiz-adv-x="761" 
d="M709 368q0 -88 -26 -164t-74 -127q-81 -87 -231 -87q-123 0 -198 54l-38 -54h-71l67 94q-42 48 -64.5 117.5t-22.5 150.5q0 88 26 164t74 127q42 45 97.5 66t131.5 21q112 0 185 -46l32 46h71l-58 -82q0 -2 2 -2q47 -48 72 -120.5t25 -157.5zM594 354q0 139 -38 218
l-329 -463q26 -32 64 -48t92 -16q106 0 156 66q55 75 55 243zM166 372q0 -127 30 -206l325 457q-50 53 -144 53q-105 0 -156 -66q-55 -73 -55 -238z" />
    <glyph glyph-name="Oslashacute" unicode="&#x1fe;" horiz-adv-x="761" 
d="M709 368q0 -88 -26 -164t-74 -127q-81 -87 -231 -87q-123 0 -198 54l-38 -54h-71l67 94q-42 48 -64.5 117.5t-22.5 150.5q0 88 26 164t74 127q42 45 97.5 66t131.5 21q112 0 185 -46l32 46h71l-58 -82q0 -2 2 -2q47 -48 72 -120.5t25 -157.5zM594 354q0 139 -38 218
l-329 -463q26 -32 64 -48t92 -16q106 0 156 66q55 75 55 243zM166 372q0 -127 30 -206l325 457q-50 53 -144 53q-105 0 -156 -66q-55 -73 -55 -238zM412 847q21 27 38.5 37.5t36.5 10.5q37 0 37 -30q0 -16 -17.5 -29.5t-55.5 -36.5l-47 -29h-53z" />
    <glyph glyph-name="Tcaron" unicode="&#x164;" horiz-adv-x="658" 
d="M627 720v-210h-52l-32 150h-164v-593l106 -24v-43h-312v43l106 24v593h-165l-31 -150h-52v210h596zM378 769h-95l-118 121h53l113 -61l113 61h53z" />
    <glyph glyph-name="Tbar" unicode="&#x166;" horiz-adv-x="664" 
d="M630 720v-210h-52l-32 150h-164v-239h178v-65h-178v-289l106 -24v-43h-312v43l106 24v289h-178v65h178v239h-165l-31 -150h-52v210h596z" />
    <glyph glyph-name="Lslash" unicode="&#x141;" horiz-adv-x="629" 
d="M237 433l108 64v-69l-108 -64v-304h272l34 173h55v-233h-555v43l94 21v242l-80 -47v68l80 47v282l-94 21v43h298v-43l-104 -21v-223z" />
    <glyph glyph-name="uni01C4" unicode="&#x1c4;" horiz-adv-x="1413" 
d="M387 60q106 0 156 66q55 70 55 228q0 156 -55 232q-52 74 -166 74h-145v-600h155zM384 720q149 0 232 -84q47 -48 72 -118t25 -150q0 -85 -26 -158t-74 -123q-42 -45 -100 -66t-138 -21h-327v43l84 21v592l-84 21v43h336zM1309 223h57v-223h-563v61l426 599h-311
l-32 -152h-52v212h509v-61l-426 -599h360zM1142 769h-95l-118 121h53l113 -61l113 61h53z" />
    <glyph glyph-name="sterling" unicode="&#xa3;" horiz-adv-x="606" 
d="M75 389h124q-21 44 -30.5 77.5t-9.5 65.5q0 79 54 124t148 45q81 0 128 -33.5t47 -91.5q0 -32 -14 -50t-40 -18q-23 0 -38 14t-15 36q0 17 10 33t26 24q-16 21 -39.5 30.5t-61.5 9.5q-61 0 -89.5 -24t-28.5 -76q0 -32 10 -72t32 -94h173v-63h-154q5 -30 7 -48t2 -33
q0 -55 -22 -119q27 -15 47.5 -24.5t37 -15.5t30 -8.5t26.5 -2.5q35 0 54.5 16t27.5 54h45q-11 -82 -39.5 -118.5t-80.5 -36.5q-15 0 -30 3.5t-34.5 13t-46 26.5l-64.5 43q-31 -45 -63.5 -65.5t-70.5 -20.5q-45 0 -71.5 24t-26.5 65q0 44 29.5 70t78.5 26q21 0 48 -4.5
t49 -12.5q3 12 4.5 29.5t1.5 37.5q0 29 -4 52t-15 49h-152v63zM138 41q51 0 77 66q-17 8 -38 13t-36 5q-23 0 -35.5 -12t-12.5 -32q0 -40 45 -40z" />
    <glyph glyph-name="at" unicode="@" horiz-adv-x="808" 
d="M409 449q77 0 101 -55l32 37h40l-37 -246q-4 -23 -4 -45q0 -64 50 -64q25 0 47 16t38 43.5t25.5 65t9.5 80.5q0 63 -20.5 114t-58 87.5t-90.5 56t-119 19.5q-71 0 -132.5 -27.5t-106.5 -76t-70.5 -114t-25.5 -141.5q0 -142 81 -220t228 -78q139 0 246 69l19 -31
q-55 -37 -123.5 -56t-143.5 -19q-81 0 -145.5 23t-110 66.5t-69.5 105t-24 139.5q0 84 29.5 156t80.5 125.5t120.5 84t149.5 30.5q74 0 134.5 -22.5t104 -63t67 -98t23.5 -126.5q0 -53 -13.5 -97.5t-37 -77.5t-56 -51.5t-70.5 -18.5q-42 0 -67.5 18t-31.5 50
q-23 -35 -60.5 -54t-82.5 -19q-69 0 -105.5 42t-36.5 120q0 54 16.5 100.5t45.5 80t68 53t85 19.5zM408 410q-31 0 -56 -16t-43 -45t-27.5 -70.5t-9.5 -92.5q0 -60 18.5 -86.5t60.5 -26.5q64 0 100 58.5t36 164.5q0 61 -18.5 87.5t-60.5 26.5z" />
    <glyph glyph-name="trademark" unicode="&#x2122;" horiz-adv-x="843" 
d="M341 730v-95h-24l-14 63h-69v-262l43 -11v-19h-141v19l44 11v262h-70l-14 -63h-24v95h269zM663 730h111v-19l-33 -10v-266l33 -10v-19h-116v19l32 10v261l-92 -290h-53l-89 290v-261l28 -10v-19h-100v19l38 10v266l-38 10v19h112l82 -278h4z" />
    <glyph glyph-name="ordfeminine" unicode="&#xaa;" horiz-adv-x="371" 
d="M54 492q0 43 39.5 67.5t129.5 38.5q-3 30 -6.5 47t-9.5 28q-16 28 -46 28q-16 0 -28.5 -5.5t-16.5 -15.5q8 -5 11.5 -12t3.5 -13q0 -14 -10.5 -22t-26.5 -8q-13 0 -21.5 8.5t-8.5 24.5q0 17 10 30.5t26 22.5t35.5 14t39.5 5q47 0 74 -27q34 -34 34 -121v-80
q0 -27 3.5 -37.5t15.5 -10.5h25v-16q-38 -16 -62 -16q-20 0 -26 12.5t-6 47.5h-4q-16 -28 -42.5 -44t-57.5 -16q-35 0 -55 18.5t-20 51.5zM157 459q12 0 26 6.5t24 18.5q17 20 17 57q0 9 -0.5 18t-1.5 17q-30 -6 -50.5 -13t-33 -15.5t-17.5 -19t-5 -25.5q0 -44 41 -44z" />
    <glyph glyph-name="ordmasculine" unicode="&#xba;" horiz-adv-x="369" 
d="M320 579q0 -35 -10.5 -67.5t-30.5 -53.5q-33 -36 -96 -36q-62 0 -94 35q-19 20 -29 50t-10 65q0 36 10.5 68.5t30.5 53.5q33 36 95 36t95 -35q19 -20 29 -50.5t10 -65.5zM114 578q0 -59 20 -93q16 -29 51 -29q33 0 52 25t19 93q0 59 -20 93q-17 29 -52 29q-34 0 -50 -25
q-20 -32 -20 -93z" />
    <glyph glyph-name="degree" unicode="&#xb0;" horiz-adv-x="361" 
d="M181 458q-60 0 -97 37.5t-37 97.5q0 29 10 54t28 43.5t42.5 29t53.5 10.5q30 0 54.5 -10t42 -27.5t27.5 -42.5t10 -55q0 -29 -10.5 -54t-28.5 -43.5t-42.5 -29t-52.5 -10.5zM183 494q37 0 59.5 27t22.5 72t-24 72.5t-62 27.5q-36 0 -59 -27.5t-23 -71.5t24 -72t62 -28z
" />
    <glyph glyph-name="servicemark" unicode="&#x2120;" horiz-adv-x="785" 
d="M188 406q-56 0 -85 31l-5 -26h-25v102h27q3 -42 21 -59.5t59 -17.5q32 0 45 10t13 34q0 26 -16.5 42.5t-59.5 33.5q-26 10 -42.5 19.5t-27 20t-14.5 23.5t-4 30q0 42 26.5 66.5t72.5 24.5q44 0 72 -25l4 20h25v-102h-26q0 42 -15.5 60t-51.5 18q-30 0 -43 -11.5
t-13 -40.5q0 -11 2.5 -18.5t9.5 -14.5t20 -13.5t33 -14.5q58 -23 78.5 -46t20.5 -58q0 -41 -27 -64.5t-74 -23.5zM609 735h110v-19l-33 -10v-266l33 -10v-19h-116v19l33 10v266l-92 -295h-54l-93 295v-266l33 -10v-19h-100v19l33 10v266l-33 10v19h112l82 -278h4z" />
    <glyph glyph-name="copyright" unicode="&#xa9;" horiz-adv-x="842" 
d="M422 -10q-78 0 -145.5 28.5t-117.5 78.5t-78.5 118t-28.5 146t28.5 145.5t78 117t117.5 78t146 28.5t145 -28.5t116.5 -78t78 -117t28.5 -145.5t-28.5 -146t-78 -118t-116.5 -78.5t-145 -28.5zM422 30q69 0 128 25.5t102.5 69.5t68 104.5t24.5 131.5q0 70 -24.5 130
t-68 104.5t-102.5 69.5t-128 25t-128 -25t-102.5 -69t-68 -104.5t-24.5 -130.5q0 -71 24.5 -131.5t68 -105t102.5 -69.5t128 -25zM419 525q-52 0 -75 -32q-17 -21 -25.5 -53.5t-8.5 -70.5q0 -35 8 -66t22 -53q27 -43 86 -43q93 0 110 90h29q-24 -128 -145 -128
q-72 0 -115 42q-29 27 -44 65.5t-15 83.5q0 50 19 94.5t53 71.5q40 33 106 33q32 0 52.5 -8.5t41.5 -30.5l10 33h29v-121h-32q-15 93 -106 93z" />
    <glyph glyph-name="registered" unicode="&#xae;" horiz-adv-x="628" 
d="M314 230q-53 0 -99 19t-79.5 53t-52.5 79.5t-19 99.5t19 99.5t52.5 79t79.5 52t99 18.5t99 -18.5t79.5 -52t52.5 -79t19 -99.5t-19 -99.5t-52.5 -79.5t-79.5 -53t-99 -19zM314 267q98 0 153 58t55 156q0 97 -55 154.5t-153 57.5q-48 0 -86.5 -15t-65.5 -42.5t-41.5 -67
t-14.5 -87.5q0 -49 14.5 -88.5t41.5 -67.5t65.5 -43t86.5 -15zM386 492q-7 -5 -15.5 -8.5t-20.5 -5.5l14 -20l47 -80l32 -7v-15h-79v15l-51 100h-38v-92l43 -8v-15h-114v15l30 8v211l-30 8v15h128q38 0 59.5 -19t21.5 -48q0 -15 -7.5 -29.5t-19.5 -24.5zM321 497
q20 0 33.5 12.5t13.5 34.5q0 20 -11.5 31.5t-37.5 11.5h-44v-90h46z" />
    <glyph glyph-name="zerosuperior" unicode="&#x2070;" horiz-adv-x="360" 
d="M54 564q0 85 37 130q16 19 36.5 27t52.5 8t52.5 -8t36.5 -27q37 -45 37 -130q0 -44 -9.5 -78t-27.5 -55q-29 -35 -89 -35t-89 35q-18 21 -27.5 55t-9.5 78zM248 563q0 71 -21 107q-10 15 -20 21t-27 6t-28 -6t-19 -21q-21 -36 -21 -107t21 -107q8 -15 19 -21t28 -6t27 6
t20 21q21 36 21 107z" />
    <glyph glyph-name="onesuperior" unicode="&#xb9;" horiz-adv-x="297" 
d="M128 669h-60v31q8 0 19 1.5t21.5 4t19.5 6t13 8.5h39v-293l48 -9v-26h-160v26l60 9v242z" />
    <glyph glyph-name="twosuperior" unicode="&#xb2;" horiz-adv-x="318" 
d="M226 449l11 52h28v-100h-217v30q0 23 12 42.5t29.5 37t38.5 33.5t38.5 33t29.5 35.5t12 41.5q0 44 -61 44q-55 0 -64 -36q30 0 30 -27q0 -28 -29 -28q-31 0 -31 37q0 39 28 62.5t75 23.5q48 0 76.5 -23.5t28.5 -63.5q0 -27 -12 -47.5t-30.5 -37t-39.5 -29.5l-39.5 -25.5
t-30.5 -25.5t-12 -29h129z" />
    <glyph glyph-name="threesuperior" unicode="&#xb3;" horiz-adv-x="316" 
d="M258 646q0 -30 -18 -49.5t-50 -24.5v-4q73 -14 73 -77q0 -42 -30.5 -68t-81.5 -26q-47 0 -75 23t-28 61q0 39 31 39q28 0 28 -28q0 -27 -25 -27q8 -36 61 -36q63 0 63 55q0 32 -20.5 51t-56.5 19v30q34 0 55 18.5t21 48.5q0 49 -59 49q-26 0 -42.5 -9t-19.5 -24
q14 0 22 -7t8 -20t-8 -20.5t-21 -7.5q-33 0 -33 40q0 35 28 56.5t74 21.5q47 0 75.5 -23t28.5 -61z" />
    <glyph glyph-name="foursuperior" unicode="&#x2074;" horiz-adv-x="304" 
d="M167 484h-131l-5 31l136 205h52v-203h49l-4 -33h-45v-58l35 -9v-25h-130v25l43 9v58zM71 517h96v147z" />
    <glyph glyph-name="fivesuperior" unicode="&#x2075;" horiz-adv-x="308" 
d="M229 671h-119l-13 -92q26 22 63 22q47 0 75 -27.5t28 -74.5q0 -48 -31 -77.5t-82 -29.5q-43 0 -70.5 21t-27.5 53q0 18 10 30t25 12q11 0 18.5 -8t7.5 -19q0 -12 -7.5 -20t-18.5 -8q3 -14 20 -23t40 -9q31 0 45.5 18t14.5 57q0 74 -59 74q-20 0 -36 -6t-24 -16l-25 9
l26 163h130l8 14h22z" />
    <glyph glyph-name="sixsuperior" unicode="&#x2076;" horiz-adv-x="338" 
d="M112 559q25 36 75 36q44 0 71.5 -27.5t27.5 -71.5q0 -46 -30.5 -72.5t-82.5 -26.5q-60 0 -88 38t-28 119q0 87 30.5 131.5t89.5 44.5q42 0 67.5 -20.5t25.5 -54.5q0 -38 -31 -38q-14 0 -21.5 7.5t-7.5 19.5q0 28 26 28q-6 27 -53 27q-41 0 -58.5 -28t-17.5 -91v-12t1 -9
h4zM229 496q0 68 -55 68q-56 0 -56 -68q0 -69 56 -69q55 0 55 69z" />
    <glyph glyph-name="sevensuperior" unicode="&#x2077;" horiz-adv-x="283" 
d="M145 425q0 -15 -6.5 -24t-20.5 -9q-15 0 -21 8t-6 25q0 23 8.5 54.5t23 65.5t34.5 66.5t43 57.5h-122l-8 -44h-29v95h209v-27q-22 -26 -41 -59t-33.5 -68.5t-22.5 -71.5t-8 -69z" />
    <glyph glyph-name="eightsuperior" unicode="&#x2078;" horiz-adv-x="321" 
d="M256 658q0 -52 -53 -82q36 -19 52 -39.5t16 -47.5q0 -42 -32 -67t-85 -25q-48 0 -74.5 22t-26.5 62q0 29 15.5 50.5t49.5 39.5q-27 18 -38.5 35.5t-11.5 41.5q0 38 26 60t72 22q43 0 66.5 -19t23.5 -53zM138 558q-22 -15 -33.5 -32.5t-11.5 -42.5q0 -56 62 -56
q64 0 64 49q0 11 -3.5 20t-13 18t-25 19.5t-39.5 24.5zM182 590q17 9 28 25.5t11 37.5q0 47 -55 47q-52 0 -52 -42q0 -21 15 -36t53 -32z" />
    <glyph glyph-name="ninesuperior" unicode="&#x2079;" horiz-adv-x="337" 
d="M225 568q-25 -36 -75 -36q-44 0 -71.5 27.5t-27.5 71.5q0 46 30.5 72.5t82.5 26.5q60 0 88 -38.5t28 -119.5q0 -85 -30.5 -130t-91.5 -45q-42 0 -69 20.5t-27 55.5q0 37 31 37q29 0 29 -28q0 -12 -7 -19.5t-19 -7.5q3 -13 18 -20t38 -7q42 0 60 27.5t18 91.5v13.5t-1 7.5
h-4zM108 631q0 -68 55 -68q56 0 56 68q0 69 -56 69q-55 0 -55 -69z" />
    <glyph glyph-name="zeroinferior" unicode="&#x2080;" horiz-adv-x="362" 
d="M55 158q0 85 37 130q16 19 36.5 27t52.5 8t52.5 -8t36.5 -27q37 -45 37 -130q0 -44 -9.5 -78t-27.5 -55q-29 -35 -89 -35t-89 35q-18 21 -27.5 55t-9.5 78zM249 157q0 71 -21 107q-10 15 -20 21t-27 6t-28 -6t-19 -21q-21 -36 -21 -107t21 -107q8 -15 19 -21t28 -6t27 6
t20 21q21 36 21 107z" />
    <glyph glyph-name="oneinferior" unicode="&#x2081;" horiz-adv-x="297" 
d="M128 277h-60v31q8 0 19 1.5t21.5 4t19.5 6t13 8.5h39v-293l48 -9v-26h-160v26l60 9v242z" />
    <glyph glyph-name="twoinferior" unicode="&#x2082;" horiz-adv-x="317" 
d="M226 48l11 52h28v-100h-217v30q0 23 12 42.5t29.5 37t38.5 33.5t38.5 33t29.5 35.5t12 41.5q0 44 -61 44q-55 0 -64 -36q30 0 30 -27q0 -28 -29 -28q-31 0 -31 37q0 39 28 62.5t75 23.5q48 0 76.5 -23.5t28.5 -63.5q0 -27 -12 -47.5t-30.5 -37t-39.5 -29.5l-39.5 -25.5
t-30.5 -25.5t-12 -29h129z" />
    <glyph glyph-name="threeinferior" unicode="&#x2083;" horiz-adv-x="316" 
d="M258 239q0 -30 -18 -49.5t-50 -24.5v-4q73 -14 73 -77q0 -42 -30.5 -68t-81.5 -26q-47 0 -75 23t-28 61q0 39 31 39q28 0 28 -28q0 -27 -25 -27q8 -36 61 -36q63 0 63 55q0 32 -20.5 51t-56.5 19v30q34 0 55 18.5t21 48.5q0 49 -59 49q-26 0 -42.5 -9t-19.5 -24
q14 0 22 -7t8 -20t-8 -20.5t-21 -7.5q-33 0 -33 40q0 35 28 56.5t74 21.5q47 0 75.5 -23t28.5 -61z" />
    <glyph glyph-name="fourinferior" unicode="&#x2084;" horiz-adv-x="304" 
d="M167 92h-131l-5 31l136 205h52v-203h49l-4 -33h-45v-58l35 -9v-25h-137v25l50 9v58zM71 125h96v147z" />
    <glyph glyph-name="fiveinferior" unicode="&#x2085;" horiz-adv-x="310" 
d="M229 269h-119l-13 -92q26 22 63 22q47 0 75 -27.5t28 -74.5q0 -48 -31 -77.5t-82 -29.5q-43 0 -70.5 21t-27.5 53q0 18 10 30t25 12q11 0 18.5 -8t7.5 -19q0 -12 -7.5 -20t-18.5 -8q3 -14 20 -23t40 -9q31 0 45.5 18t14.5 57q0 74 -59 74q-20 0 -36 -6t-24 -16l-25 9
l26 163h130l8 14h22z" />
    <glyph glyph-name="sixinferior" unicode="&#x2086;" horiz-adv-x="337" 
d="M111 152q25 36 75 36q44 0 71.5 -27.5t27.5 -71.5q0 -46 -30.5 -72.5t-82.5 -26.5q-60 0 -88 38t-28 119q0 87 30.5 131.5t89.5 44.5q42 0 67.5 -20.5t25.5 -54.5q0 -38 -31 -38q-14 0 -21.5 7.5t-7.5 19.5q0 28 26 28q-6 27 -53 27q-41 0 -58.5 -28t-17.5 -91v-12t1 -9
h4zM228 89q0 68 -55 68q-56 0 -56 -68q0 -69 56 -69q55 0 55 69z" />
    <glyph glyph-name="seveninferior" unicode="&#x2087;" horiz-adv-x="284" 
d="M145 23q0 -15 -6.5 -24t-20.5 -9q-15 0 -21 8t-6 25q0 23 8.5 54.5t23 65.5t34.5 66.5t43 57.5h-122l-8 -44h-29v95h209v-27q-22 -26 -41 -59t-33.5 -68.5t-22.5 -71.5t-8 -69z" />
    <glyph glyph-name="eightinferior" unicode="&#x2088;" horiz-adv-x="321" 
d="M257 251q0 -52 -53 -82q36 -19 52 -39.5t16 -47.5q0 -42 -32 -67t-85 -25q-48 0 -74.5 22t-26.5 62q0 29 15.5 50.5t49.5 39.5q-27 18 -38.5 35.5t-11.5 41.5q0 38 26 60t72 22q43 0 66.5 -19t23.5 -53zM139 151q-22 -15 -33.5 -32.5t-11.5 -42.5q0 -56 62 -56
q64 0 64 49q0 11 -3.5 20t-13 18t-25 19.5t-39.5 24.5zM183 183q17 9 28 25.5t11 37.5q0 47 -55 47q-52 0 -52 -42q0 -21 15 -36t53 -32z" />
    <glyph glyph-name="nineinferior" unicode="&#x2089;" horiz-adv-x="336" 
d="M225 161q-25 -36 -75 -36q-44 0 -71.5 27.5t-27.5 71.5q0 46 30.5 72.5t82.5 26.5q60 0 88 -38.5t28 -119.5q0 -85 -30.5 -130t-91.5 -45q-42 0 -69 20.5t-27 55.5q0 37 31 37q29 0 29 -28q0 -12 -7 -19.5t-19 -7.5q3 -13 18 -20t38 -7q42 0 60 27.5t18 91.5v13.5t-1 7.5
h-4zM108 224q0 -68 55 -68q56 0 56 68q0 69 -56 69q-55 0 -55 -69z" />
    <glyph glyph-name="percent" unicode="%" horiz-adv-x="679" 
d="M506 730h54l-386 -740h-54zM36 564q0 85 37 130q16 19 36.5 27t52.5 8t52.5 -8t36.5 -27q37 -45 37 -130q0 -44 -9.5 -78t-27.5 -55q-29 -35 -89 -35t-89 35q-18 21 -27.5 55t-9.5 78zM230 563q0 71 -21 107q-10 15 -20 21t-27 6t-28 -6t-19 -21q-21 -36 -21 -107
t21 -107q8 -15 19 -21t28 -6t27 6t20 21q21 36 21 107zM390 158q0 85 37 130q16 19 36.5 27t52.5 8t52.5 -8t36.5 -27q37 -45 37 -130q0 -44 -9.5 -78t-27.5 -55q-29 -35 -89 -35t-89 35q-18 21 -27.5 55t-9.5 78zM584 157q0 71 -21 107q-10 15 -20 21t-27 6t-28 -6t-19 -21
q-21 -36 -21 -107t21 -107q8 -15 19 -21t28 -6t27 6t20 21q21 36 21 107z" />
    <glyph glyph-name="perthousand" unicode="&#x2030;" horiz-adv-x="988" 
d="M506 730h54l-386 -740h-54zM36 564q0 85 37 130q16 19 36.5 27t52.5 8t52.5 -8t36.5 -27q37 -45 37 -130q0 -44 -9.5 -78t-27.5 -55q-29 -35 -89 -35t-89 35q-18 21 -27.5 55t-9.5 78zM230 563q0 71 -21 107q-10 15 -20 21t-27 6t-28 -6t-19 -21q-21 -36 -21 -107
t21 -107q8 -15 19 -21t28 -6t27 6t20 21q21 36 21 107zM390 158q0 85 37 130q16 19 36.5 27t52.5 8t52.5 -8t36.5 -27q37 -45 37 -130q0 -44 -9.5 -78t-27.5 -55q-29 -35 -89 -35t-89 35q-18 21 -27.5 55t-9.5 78zM584 157q0 71 -21 107q-10 15 -20 21t-27 6t-28 -6t-19 -21
q-21 -36 -21 -107t21 -107q8 -15 19 -21t28 -6t27 6t20 21q21 36 21 107zM703 158q0 85 37 130q16 19 36.5 27t52.5 8t52.5 -8t36.5 -27q37 -45 37 -130q0 -44 -9.5 -78t-27.5 -55q-29 -35 -89 -35t-89 35q-18 21 -27.5 55t-9.5 78zM897 157q0 71 -21 107q-10 15 -20 21
t-27 6t-28 -6t-19 -21q-21 -36 -21 -107t21 -107q8 -15 19 -21t28 -6t27 6t20 21q21 36 21 107z" />
    <glyph glyph-name="onehalf" unicode="&#xbd;" horiz-adv-x="641" 
d="M478 730h54l-386 -740h-54zM108 669h-60v31q8 0 19 1.5t21.5 4t19.5 6t13 8.5h39v-293l48 -9v-26h-160v26l60 9v242zM557 48l11 52h28v-100h-217v30q0 23 12 42.5t29.5 37t38.5 33.5t38.5 33t29.5 35.5t12 41.5q0 44 -61 44q-55 0 -64 -36q30 0 30 -27q0 -28 -29 -28
q-31 0 -31 37q0 39 28 62.5t75 23.5q48 0 76.5 -23.5t28.5 -63.5q0 -27 -12 -47.5t-30.5 -37t-39.5 -29.5l-39.5 -25.5t-30.5 -25.5t-12 -29h129z" />
    <glyph glyph-name="onethird" unicode="&#x2153;" horiz-adv-x="638" 
d="M478 730h54l-386 -740h-54zM108 669h-60v31q8 0 19 1.5t21.5 4t19.5 6t13 8.5h39v-293l48 -9v-26h-160v26l60 9v242zM592 239q0 -30 -18 -49.5t-50 -24.5v-4q73 -14 73 -77q0 -42 -30.5 -68t-81.5 -26q-47 0 -75 23t-28 61q0 39 31 39q28 0 28 -28q0 -27 -25 -27
q8 -36 61 -36q63 0 63 55q0 32 -20.5 51t-56.5 19v30q34 0 55 18.5t21 48.5q0 49 -59 49q-26 0 -42.5 -9t-19.5 -24q14 0 22 -7t8 -20t-8 -20.5t-21 -7.5q-33 0 -33 40q0 35 28 56.5t74 21.5q47 0 75.5 -23t28.5 -61z" />
    <glyph glyph-name="onequarter" unicode="&#xbc;" horiz-adv-x="611" 
d="M478 730h54l-386 -740h-54zM108 669h-60v31q8 0 19 1.5t21.5 4t19.5 6t13 8.5h39v-293l48 -9v-26h-160v26l60 9v242zM475 92h-131l-5 31l136 205h52v-203h49l-4 -33h-45v-58l35 -9v-25h-137v25l50 9v58zM379 125h96v147z" />
    <glyph glyph-name="oneeighth" unicode="&#x215b;" horiz-adv-x="636" 
d="M478 730h54l-386 -740h-54zM108 669h-60v31q8 0 19 1.5t21.5 4t19.5 6t13 8.5h39v-293l48 -9v-26h-160v26l60 9v242zM583 251q0 -52 -53 -82q36 -19 52 -39.5t16 -47.5q0 -42 -32 -67t-85 -25q-48 0 -74.5 22t-26.5 62q0 29 15.5 50.5t49.5 39.5q-27 18 -38.5 35.5
t-11.5 41.5q0 38 26 60t72 22q43 0 66.5 -19t23.5 -53zM465 151q-22 -15 -33.5 -32.5t-11.5 -42.5q0 -56 62 -56q64 0 64 49q0 11 -3.5 20t-13 18t-25 19.5t-39.5 24.5zM509 183q17 9 28 25.5t11 37.5q0 47 -55 47q-52 0 -52 -42q0 -21 15 -36t53 -32z" />
    <glyph glyph-name="twothirds" unicode="&#x2154;" horiz-adv-x="656" 
d="M496 730h54l-386 -740h-54zM610 239q0 -30 -18 -49.5t-50 -24.5v-4q73 -14 73 -77q0 -42 -30.5 -68t-81.5 -26q-47 0 -75 23t-28 61q0 39 31 39q28 0 28 -28q0 -27 -25 -27q8 -36 61 -36q63 0 63 55q0 32 -20.5 51t-56.5 19v30q34 0 55 18.5t21 48.5q0 49 -59 49
q-26 0 -42.5 -9t-19.5 -24q14 0 22 -7t8 -20t-8 -20.5t-21 -7.5q-33 0 -33 40q0 35 28 56.5t74 21.5q47 0 75.5 -23t28.5 -61zM222 449l11 52h28v-100h-217v30q0 23 12 42.5t29.5 37t38.5 33.5t38.5 33t29.5 35.5t12 41.5q0 44 -61 44q-55 0 -64 -36q30 0 30 -27
q0 -28 -29 -28q-31 0 -31 37q0 39 28 62.5t75 23.5q48 0 76.5 -23.5t28.5 -63.5q0 -27 -12 -47.5t-30.5 -37t-39.5 -29.5l-39.5 -25.5t-30.5 -25.5t-12 -29h129z" />
    <glyph glyph-name="threequarters" unicode="&#xbe;" horiz-adv-x="623" 
d="M490 730h54l-386 -740h-54zM487 92h-131l-5 31l136 205h52v-203h49l-4 -33h-45v-58l35 -9v-25h-137v25l50 9v58zM391 125h96v147zM252 646q0 -30 -18 -49.5t-50 -24.5v-4q73 -14 73 -77q0 -42 -30.5 -68t-81.5 -26q-47 0 -75 23t-28 61q0 39 31 39q28 0 28 -28
q0 -27 -25 -27q8 -36 61 -36q63 0 63 55q0 32 -20.5 51t-56.5 19v30q34 0 55 18.5t21 48.5q0 49 -59 49q-26 0 -42.5 -9t-19.5 -24q14 0 22 -7t8 -20t-8 -20.5t-21 -7.5q-33 0 -33 40q0 35 28 56.5t74 21.5q47 0 75.5 -23t28.5 -61z" />
    <glyph glyph-name="threeeighths" unicode="&#x215c;" horiz-adv-x="648" 
d="M490 730h54l-386 -740h-54zM252 646q0 -30 -18 -49.5t-50 -24.5v-4q73 -14 73 -77q0 -42 -30.5 -68t-81.5 -26q-47 0 -75 23t-28 61q0 39 31 39q28 0 28 -28q0 -27 -25 -27q8 -36 61 -36q63 0 63 55q0 32 -20.5 51t-56.5 19v30q34 0 55 18.5t21 48.5q0 49 -59 49
q-26 0 -42.5 -9t-19.5 -24q14 0 22 -7t8 -20t-8 -20.5t-21 -7.5q-33 0 -33 40q0 35 28 56.5t74 21.5q47 0 75.5 -23t28.5 -61zM595 251q0 -52 -53 -82q36 -19 52 -39.5t16 -47.5q0 -42 -32 -67t-85 -25q-48 0 -74.5 22t-26.5 62q0 29 15.5 50.5t49.5 39.5q-27 18 -38.5 35.5
t-11.5 41.5q0 38 26 60t72 22q43 0 66.5 -19t23.5 -53zM477 151q-22 -15 -33.5 -32.5t-11.5 -42.5q0 -56 62 -56q64 0 64 49q0 11 -3.5 20t-13 18t-25 19.5t-39.5 24.5zM521 183q17 9 28 25.5t11 37.5q0 47 -55 47q-52 0 -52 -42q0 -21 15 -36t53 -32z" />
    <glyph glyph-name="fiveeighths" unicode="&#x215d;" horiz-adv-x="634" 
d="M485 730h54l-386 -740h-54zM580 251q0 -52 -53 -82q36 -19 52 -39.5t16 -47.5q0 -42 -32 -67t-85 -25q-48 0 -74.5 22t-26.5 62q0 29 15.5 50.5t49.5 39.5q-27 18 -38.5 35.5t-11.5 41.5q0 38 26 60t72 22q43 0 66.5 -19t23.5 -53zM462 151q-22 -15 -33.5 -32.5
t-11.5 -42.5q0 -56 62 -56q64 0 64 49q0 11 -3.5 20t-13 18t-25 19.5t-39.5 24.5zM506 183q17 9 28 25.5t11 37.5q0 47 -55 47q-52 0 -52 -42q0 -21 15 -36t53 -32zM216 671h-119l-13 -92q26 22 63 22q47 0 75 -27.5t28 -74.5q0 -48 -31 -77.5t-82 -29.5q-43 0 -70.5 21
t-27.5 53q0 18 10 30t25 12q11 0 18.5 -8t7.5 -19q0 -12 -7.5 -20t-18.5 -8q3 -14 20 -23t40 -9q31 0 45.5 18t14.5 57q0 74 -59 74q-20 0 -36 -6t-24 -16l-25 9l26 163h130l8 14h22z" />
    <glyph glyph-name="seveneighths" unicode="&#x215e;" horiz-adv-x="616" 
d="M467 730h54l-386 -740h-54zM562 251q0 -52 -53 -82q36 -19 52 -39.5t16 -47.5q0 -42 -32 -67t-85 -25q-48 0 -74.5 22t-26.5 62q0 29 15.5 50.5t49.5 39.5q-27 18 -38.5 35.5t-11.5 41.5q0 38 26 60t72 22q43 0 66.5 -19t23.5 -53zM444 151q-22 -15 -33.5 -32.5
t-11.5 -42.5q0 -56 62 -56q64 0 64 49q0 11 -3.5 20t-13 18t-25 19.5t-39.5 24.5zM488 183q17 9 28 25.5t11 37.5q0 47 -55 47q-52 0 -52 -42q0 -21 15 -36t53 -32zM141 425q0 -15 -6.5 -24t-20.5 -9q-15 0 -21 8t-6 25q0 23 8.5 54.5t23 65.5t34.5 66.5t43 57.5h-122
l-8 -44h-29v95h209v-27q-22 -26 -41 -59t-33.5 -68.5t-22.5 -71.5t-8 -69z" />
    <glyph glyph-name="less" unicode="&#x3c;" horiz-adv-x="471" 
d="M35 331v58l369 195v-75l-298 -149l298 -149v-76z" />
    <glyph glyph-name="greater" unicode="&#x3e;" horiz-adv-x="471" 
d="M67 135v76l298 149l-298 149v75l369 -195v-58z" />
    <glyph glyph-name="eth" unicode="&#xf0;" horiz-adv-x="569" 
d="M139 210q0 -165 133 -165t133 165q0 163 -133 163t-133 -163zM426 351q-4 69 -29 131.5t-65 110.5l-133 -58l-23 51l121 53q-14 17 -31.5 36t-35.5 36l52 19q13 -9 29 -24.5l42 -42.5l89 39l25 -48l-75 -33q35 -43 59.5 -82.5t40 -79t22.5 -80t7 -85.5q0 -147 -65 -225.5
t-188 -78.5q-54 0 -98 15.5t-74.5 44.5t-47 69.5t-16.5 91.5q0 49 15.5 89.5t43.5 69t67 44.5t87 16q55 0 102 -21t75 -58h4z" />
    <glyph glyph-name="ampersand" unicode="&#x26;" horiz-adv-x="767" 
d="M629 325q0 -61 -18 -122.5t-50 -109.5q10 -21 34 -35t51 -14q24 0 48.5 12t39.5 32l26 -37q-43 -61 -125 -61q-71 0 -130 50q-37 -26 -79.5 -38t-99.5 -12q-123 0 -191.5 52t-68.5 146q0 31 8.5 57t26.5 50t47 46t71 45q-55 88 -55 167q0 39 12.5 71t35.5 55.5t55 36
t71 12.5q35 0 65 -10.5t51.5 -29.5t34 -44.5t12.5 -56.5q0 -115 -173 -203l191 -243q26 38 40 85t14 99l-77 19v41h209v-41zM338 48q38 0 67 8t55 26l-204 261q-42 -23 -66 -63t-24 -91q0 -69 44 -105t128 -36zM249 576q0 -35 11.5 -70.5t37.5 -75.5q72 39 103 74.5t31 77.5
t-26.5 67.5t-71.5 25.5q-85 0 -85 -99z" />
    </font>
</defs>
</svg>
