<?xml version="1.0" encoding="iso-8859-1"?>
<!-- Generator: Adobe Illustrator 19.0.0, SVG Export Plug-In . SVG Version: 6.00 Build 0)  -->
<svg version="1.1" id="Capa_1" xmlns="http://www.w3.org/2000/svg" xmlns:xlink="http://www.w3.org/1999/xlink" x="0px" y="0px"
	 viewBox="0 0 512 512" style="enable-background:new 0 0 512 512;" xml:space="preserve">
<g>
	<g>
		<path d="M407,182h-75V15c0-8.284-6.716-15-15-15H195c-8.284,0-15,6.716-15,15v167h-75c-12.699,0-19.644,14.857-11.523,24.603
			l150,180c5.977,7.172,16.974,7.193,22.983,0.075l152-180C426.672,196.953,419.746,182,407,182z M255.076,353.661L137.025,212H195
			c8.284,0,15-6.716,15-15V30h92v167c0,8.284,6.716,15,15,15h57.7L255.076,353.661z"/>
	</g>
</g>
<g>
	<g>
		<path d="M497,302h-60c-8.284,0-15,6.716-15,15v105H90V317c0-8.284-6.716-15-15-15H15c-8.284,0-15,6.716-15,15v150
			c0,24.813,20.187,45,45,45h422c24.813,0,45-20.187,45-45V317C512,308.716,505.284,302,497,302z M482,467c0,8.271-6.729,15-15,15
			H45c-8.271,0-15-6.729-15-15V332h30v105c0,8.284,6.716,15,15,15h362c8.284,0,15-6.716,15-15V332h30V467z"/>
	</g>
</g>
<g>
</g>
<g>
</g>
<g>
</g>
<g>
</g>
<g>
</g>
<g>
</g>
<g>
</g>
<g>
</g>
<g>
</g>
<g>
</g>
<g>
</g>
<g>
</g>
<g>
</g>
<g>
</g>
<g>
</g>
</svg>
