<?xml version="1.0" encoding="iso-8859-1"?>
<!-- Generator: Adobe Illustrator 21.0.0, SVG Export Plug-In . SVG Version: 6.00 Build 0)  -->
<svg xmlns="http://www.w3.org/2000/svg" xmlns:xlink="http://www.w3.org/1999/xlink" version="1.1" id="Capa_1" x="0px" y="0px" viewBox="0 0 512 512" style="enable-background:new 0 0 512 512;" xml:space="preserve" width="512" height="512">
<g>
	<g>
		<circle style="fill:#B5E237;" cx="256" cy="256" r="256"/>
		<path style="fill:#95D600;" d="M512,256c0,141.38-114.62,256-256,256S0,397.38,0,256c0-46.22,12.25-89.57,33.68-127    C77.8,206.07,160.84,258,256,258s178.21-51.93,222.32-129C499.75,166.43,512,209.78,512,256z"/>
		<path style="fill:#85AF12;" d="M481.26,377.7v0.01C437.97,457.68,353.32,512,256,512S74.03,457.68,30.74,377.71v-0.01H481.26z"/>
	</g>
	<g>
		<g>
			<path style="fill:#D0F6FF;" d="M426.73,245.24v201.51c-1.72,1.54-3.46,3.06-5.23,4.55c-0.48,0.41-0.96,0.82-1.44,1.22     c-0.41,0.35-0.83,0.69-1.25,1.04c-0.54,0.45-1.09,0.9-1.64,1.34c-2.14,1.74-4.31,3.44-6.5,5.1c-0.54,0.42-1.09,0.84-1.64,1.24     c-0.49,0.37-0.98,0.73-1.48,1.1c-0.79,0.58-1.58,1.15-2.37,1.72c-0.91,0.66-1.83,1.31-2.76,1.95c-1.96,1.38-3.95,2.72-5.95,4.04     c-0.59,0.39-1.18,0.78-1.78,1.16c-0.88,0.57-1.77,1.14-2.66,1.69c-0.95,0.6-1.9,1.19-2.86,1.78c-1.34,0.82-2.7,1.63-4.07,2.43     c-1.05,0.61-2.1,1.22-3.16,1.82c-0.1,0.06-0.21,0.12-0.31,0.17c-0.94,0.54-1.88,1.06-2.83,1.57c-1.32,0.73-2.65,1.44-3.98,2.14     c-1.19,0.62-2.38,1.24-3.58,1.84c-0.42,0.22-0.85,0.43-1.28,0.64c-1.22,0.61-2.44,1.21-3.67,1.8c-1.07,0.51-2.14,1.01-3.21,1.5     c-0.6,0.28-1.2,0.55-1.8,0.82c-1.23,0.56-2.47,1.11-3.71,1.65c-0.74,0.32-1.48,0.63-2.22,0.94c-0.74,0.31-1.48,0.62-2.22,0.92     c-4.45,1.83-8.96,3.53-13.53,5.11H172.4c-12.17-4.21-23.93-9.3-35.2-15.22c-20.83-10.92-39.97-24.64-56.92-40.64V245.24     c0-7.05,5.72-12.77,12.77-12.77h320.9C421,232.47,426.73,238.19,426.73,245.24z"/>
			<path style="fill:#8FC9F7;" d="M426.73,245.24v201.51c-25.08,22.47-54.62,40.06-87.13,51.28H256V232.47h157.95     C421,232.47,426.73,238.19,426.73,245.24z"/>
			<path style="fill:#474F6F;" d="M400.515,273.2v184.106c0,5.409-4.388,9.796-9.789,9.796H116.279     c-5.409,0-9.789-4.388-9.789-9.796V273.2c0-5.409,4.38-9.789,9.789-9.789h274.448C396.128,263.411,400.515,267.791,400.515,273.2     z"/>
			<path style="fill:#323B5A;" d="M400.515,273.2v184.106c0,5.409-4.388,9.796-9.789,9.796H256.135V263.411h134.592     C396.128,263.411,400.515,267.791,400.515,273.2z"/>
		</g>
		<path style="fill:#8FC9F7;" d="M374.82,482.81c-11.27,5.92-23.03,11.01-35.22,15.22C313.4,507.08,285.28,512,256,512    s-57.4-4.92-83.6-13.97c-12.17-4.21-23.93-9.3-35.2-15.22H374.82z"/>
		<path style="fill:#0F9BE8;" d="M374.82,482.81c-11.27,5.92-23.03,11.01-35.22,15.22C313.4,507.08,285.28,512,256,512v-29.19    H374.82z"/>
		<g>
			<path style="fill:#0F9BE8;" d="M312.893,482.806c0,7.708-6.25,13.958-13.958,13.958h-85.869c-7.708,0-13.958-6.25-13.958-13.958     H312.893z"/>
			<path style="fill:#0066E8;" d="M312.893,482.806c0,7.708-6.25,13.958-13.958,13.958h-42.942v-13.958H312.893z"/>
		</g>
	</g>
	<g>
		<path style="fill:#FFFFFF;" d="M225.757,328.819v87.604h-28.993v-87.604H225.757z"/>
		<path style="fill:#FFFFFF;" d="M279.37,328.82h-41.11v87.6h28.99v-22.74h12.12c22.74,0,35.87-12.25,35.87-33.49    C315.24,340.19,302.11,328.82,279.37,328.82z M277.87,371.68h-10.62v-20.87h10.62c6.25,0,9.87,3.75,9.87,10.25    C287.74,367.81,284.12,371.68,277.87,371.68z"/>
	</g>
	<path style="fill:#474F6F;" d="M295.12,138.54c-5.92,10-11.88,19.96-17.75,29.98c-5.88,10.02-11.67,20.08-17.23,30.28   c-0.88,1.6-2.43,2.41-4.01,2.44c-0.04,0.01-0.09,0.01-0.13,0.01c-1.62,0-3.24-0.81-4.14-2.45c-11.13-20.39-23.15-40.27-34.98-60.26   c-10.6-17.91-7.84-41.53,8.27-56.46c8.67-8.04,19.83-12.05,30.98-12.02c11.06,0.03,22.11,4.04,30.72,12.02   C302.96,97.01,305.72,120.63,295.12,138.54z"/>
	<path style="fill:#323B5A;" d="M295.12,138.54c-5.92,10-11.88,19.96-17.75,29.98c-5.88,10.02-11.67,20.08-17.23,30.28   c-0.88,1.6-2.43,2.41-4.01,2.44V70.06c11.06,0.03,22.11,4.04,30.72,12.02C302.96,97.01,305.72,120.63,295.12,138.54z"/>
	<path style="fill:#D0F6FF;" d="M279.37,328.82h-23.24v87.6h11.12v-22.74h12.12c22.74,0,35.87-12.25,35.87-33.49   C315.24,340.19,302.11,328.82,279.37,328.82z M277.87,371.68h-10.62v-20.87h10.62c6.25,0,9.87,3.75,9.87,10.25   C287.74,367.81,284.12,371.68,277.87,371.68z"/>
	<ellipse style="fill:#0F9BE8;" cx="256.133" cy="117.43" rx="20.615" ry="20.612"/>
	<path style="fill:#0066E8;" d="M276.75,117.43c0,11.383-9.229,20.612-20.618,20.612V96.818   C267.521,96.818,276.75,106.047,276.75,117.43z"/>
</g>















</svg>
