<?xml version="1.0" encoding="iso-8859-1"?>
<!-- Generator: Adobe Illustrator 19.0.0, SVG Export Plug-In . SVG Version: 6.00 Build 0)  -->
<svg version="1.1" id="Capa_1" xmlns="http://www.w3.org/2000/svg" xmlns:xlink="http://www.w3.org/1999/xlink" x="0px" y="0px"
	 viewBox="0 0 512 512" style="enable-background:new 0 0 512 512;" xml:space="preserve">
<g>
	<g>
		<path d="M432,64h-64c-8.832,0-16,7.168-16,16v64c0,8.832,7.168,16,16,16h64c8.832,0,16-7.168,16-16V80
			C448,71.168,440.832,64,432,64z M416,128h-32V96h32V128z"/>
	</g>
</g>
<g>
	<g>
		<path d="M496,0H304c-8.832,0-16,7.168-16,16v192c0,8.832,7.168,16,16,16h192c8.832,0,16-7.168,16-16V16C512,7.168,504.832,0,496,0
			z M480,192H320V32h160V192z"/>
	</g>
</g>
<g>
	<g>
		<path d="M144,64H80c-8.832,0-16,7.168-16,16v64c0,8.832,7.168,16,16,16h64c8.832,0,16-7.168,16-16V80
			C160,71.168,152.832,64,144,64z M128,128H96V96h32V128z"/>
	</g>
</g>
<g>
	<g>
		<path d="M208,0H16C7.168,0,0,7.168,0,16v192c0,8.832,7.168,16,16,16h192c8.832,0,16-7.168,16-16V16C224,7.168,216.832,0,208,0z
			 M192,192H32V32h160V192z"/>
	</g>
</g>
<g>
	<g>
		<path d="M144,352H80c-8.832,0-16,7.168-16,16v64c0,8.832,7.168,16,16,16h64c8.832,0,16-7.168,16-16v-64
			C160,359.168,152.832,352,144,352z M128,416H96v-32h32V416z"/>
	</g>
</g>
<g>
	<g>
		<path d="M400,416h-16v-16c0-8.832-7.168-16-16-16c-8.832,0-16,7.168-16,16v16h-16c-8.832,0-16,7.168-16,16v64
			c0,8.832,7.168,16,16,16c8.832,0,16-7.168,16-16v-48h32v48c0,8.832,7.168,16,16,16c8.832,0,16-7.168,16-16v-64
			C416,423.168,408.832,416,400,416z"/>
	</g>
</g>
<g>
	<g>
		<path d="M496,288h-64c-8.832,0-16,7.168-16,16v64c0,8.832,7.168,16,16,16c8.832,0,16-7.168,16-16v-48h48c8.832,0,16-7.168,16-16
			C512,295.168,504.832,288,496,288z"/>
	</g>
</g>
<g>
	<g>
		<path d="M368,288h-64c-8.832,0-16,7.168-16,16v64c0,8.832,7.168,16,16,16c8.832,0,16-7.168,16-16v-48h48c8.832,0,16-7.168,16-16
			C384,295.168,376.832,288,368,288z"/>
	</g>
</g>
<g>
	<g>
		<path d="M208,288H16c-8.832,0-16,7.168-16,16v192c0,8.832,7.168,16,16,16h192c8.832,0,16-7.168,16-16V304
			C224,295.168,216.832,288,208,288z M192,480H32V320h160V480z"/>
	</g>
</g>
<g>
	<g>
		<path d="M496,384c-8.832,0-16,7.168-16,16v96c0,8.832,7.168,16,16,16c8.832,0,16-7.168,16-16v-96C512,391.168,504.832,384,496,384
			z"/>
	</g>
</g>
<g>
</g>
<g>
</g>
<g>
</g>
<g>
</g>
<g>
</g>
<g>
</g>
<g>
</g>
<g>
</g>
<g>
</g>
<g>
</g>
<g>
</g>
<g>
</g>
<g>
</g>
<g>
</g>
<g>
</g>
</svg>
