<?xml version="1.0" encoding="iso-8859-1"?>
<!-- Generator: Adobe Illustrator 19.0.0, SVG Export Plug-In . SVG Version: 6.00 Build 0)  -->
<svg version="1.1" id="Capa_1" xmlns="http://www.w3.org/2000/svg" xmlns:xlink="http://www.w3.org/1999/xlink" x="0px" y="0px"
	 viewBox="0 0 512 512" style="enable-background:new 0 0 512 512;" xml:space="preserve">
<path style="fill:#91E0FF;" d="M256,512C114.508,512,0,397.503,0,256C0,114.508,114.497,0,256,0c141.492,0,256,114.497,256,256
	C512,397.492,397.503,512,256,512z"/>
<g>
	<path style="fill:#61CEF3;" d="M256,0v512c141.503,0,256-114.508,256-256C512,114.497,397.492,0,256,0z"/>
	<path style="fill:#61CEF3;" d="M380.799,146.461c29.769-8.825,58.547-20.843,85.934-35.907
		c-5.749-8.292-12.018-16.281-18.787-23.931c-23.504,12.556-48.081,22.718-73.439,30.395c-8.603-35.675-20.481-70.2-35.364-103.259
		c-12.317-4.216-24.979-7.495-37.903-9.787c18.739,37.174,33.892,77.541,44.242,120.671c-24.318,5.432-49.224,8.652-74.481,9.563
		V0.447C266.024,0.161,261.025,0,256,0s-10.024,0.161-15,0.447v133.748c-25.166-0.908-50.034-4.105-74.395-9.549
		c10.032-41.753,24.85-82.264,44.188-120.68c-12.918,2.289-25.573,5.564-37.884,9.775c-14.947,33.265-26.768,67.851-35.322,103.285
		c-25.539-7.733-49.967-17.816-73.535-30.4c-6.767,7.648-13.034,15.634-18.781,23.923c26.84,14.754,55.501,26.87,85.995,35.914
		c-5.848,31.081-9.21,62.697-10.017,94.539H0.447C0.161,245.976,0,250.975,0,256s0.161,10.024,0.447,15h120.802
		c0.806,31.841,4.169,63.457,10.017,94.539c-29.292,8.688-58.052,20.554-85.995,35.914c5.747,8.289,12.014,16.275,18.781,23.923
		c23.539-12.569,47.964-22.658,73.535-30.4c8.554,35.434,20.375,70.019,35.322,103.284c12.311,4.211,24.967,7.486,37.884,9.775
		c-19.338-38.416-34.156-78.927-44.188-120.681c24.361-5.444,49.229-8.641,74.395-9.549v133.748c4.976,0.286,9.975,0.447,15,0.447
		s10.024-0.161,15-0.447V377.795c25.228,0.91,50.106,4.124,74.398,9.545c-10.032,41.759-24.851,82.274-44.191,120.695
		c12.918-2.289,25.573-5.564,37.884-9.775c14.949-33.271,26.772-67.864,35.326-103.304c25.39,7.68,49.997,17.852,73.528,30.422
		c6.77-7.651,13.039-15.64,18.787-23.932c-27.406-15.075-56.205-27.099-85.996-35.926c5.846-31.075,9.207-62.685,10.013-94.52
		h120.802c0.286-4.976,0.447-9.975,0.447-15s-0.161-10.024-0.447-15H390.755C389.957,209.179,386.626,177.55,380.799,146.461z
		 M241,347.793c-27.273,0.917-54.228,4.336-80.634,10.218c-5.278-28.62-8.327-57.714-9.108-87.011H241V347.793z M241,241h-89.742
		c0.781-29.297,3.83-58.391,9.108-87.011c26.406,5.882,53.362,9.301,80.634,10.218V241z M351.638,357.991
		c-26.327-5.854-53.294-9.288-80.638-10.206V271h89.742C359.961,300.29,356.914,329.377,351.638,357.991z M271,241v-76.784
		c27.36-0.919,54.342-4.356,80.683-10.216c5.256,28.622,8.292,57.722,9.064,87H271z"/>
</g>
<path style="fill:#23A3E1;" d="M511.553,271c0.286-4.976,0.447-9.975,0.447-15s-0.161-10.024-0.447-15H390.755
	c-0.798-31.821-4.129-63.45-9.956-94.539c29.769-8.825,58.547-20.843,85.934-35.907c-5.749-8.292-12.018-16.281-18.787-23.931
	c-23.504,12.556-48.081,22.718-73.439,30.395c-8.603-35.675-20.481-70.201-35.364-103.259c-12.317-4.216-24.979-7.495-37.903-9.787
	c18.739,37.174,33.892,77.541,44.242,120.671c-24.318,5.432-49.224,8.652-74.481,9.563V0.447C266.024,0.161,261.025,0,256,0v512
	c5.025,0,10.024-0.161,15-0.447V377.795c25.228,0.91,50.106,4.124,74.398,9.545c-10.032,41.759-24.851,82.274-44.191,120.695
	c12.918-2.289,25.573-5.564,37.884-9.775c14.949-33.271,26.772-67.864,35.326-103.304c25.39,7.68,49.997,17.852,73.528,30.422
	c6.77-7.651,13.039-15.64,18.787-23.932c-27.406-15.075-56.205-27.099-85.996-35.926c5.846-31.075,9.207-62.685,10.013-94.52
	L511.553,271L511.553,271z M351.638,357.991c-26.327-5.854-53.294-9.288-80.638-10.206V271h89.742
	C359.961,300.29,356.914,329.377,351.638,357.991z M271,241v-76.784c27.36-0.919,54.342-4.356,80.683-10.216
	c5.256,28.622,8.292,57.722,9.064,87H271z"/>
<g>
</g>
<g>
</g>
<g>
</g>
<g>
</g>
<g>
</g>
<g>
</g>
<g>
</g>
<g>
</g>
<g>
</g>
<g>
</g>
<g>
</g>
<g>
</g>
<g>
</g>
<g>
</g>
<g>
</g>
</svg>
