<?xml version="1.0" encoding="iso-8859-1"?>
<!-- Generator: Adobe Illustrator 19.0.0, SVG Export Plug-In . SVG Version: 6.00 Build 0)  -->
<svg version="1.1" id="Capa_1" xmlns="http://www.w3.org/2000/svg" xmlns:xlink="http://www.w3.org/1999/xlink" x="0px" y="0px"
	 viewBox="0 0 308.4 308.4" style="enable-background:new 0 0 308.4 308.4;" xml:space="preserve">
<g>
	<g>
		<path d="M273.6,22.8C258.4,7.6,238,0,218,0s-40.4,8-55.6,23.2L15.2,170.4c-4.8,4.8-4.8,12.4,0,17.2s12.4,4.8,17.2,0L179.6,40
			C190.4,29.2,204,24,218,24s27.6,5.2,38.4,16s16,24.4,16,38.4s-5.2,27.6-16,38.4L98.8,274.4c-6.4,6.4-15.2,9.6-23.6,9.6
			s-17.2-3.2-23.6-9.6c-6.4-6.4-9.6-15.2-9.6-23.6c0-8.4,3.2-16.8,9.6-23.6L204,74.4c2.4-2.4,5.2-3.6,8.4-3.6s6,1.2,8.4,3.6
			c2.4,2.4,3.6,5.2,3.6,8.4s-0.8,6-3.2,8.4L78.4,234c-4.8,4.8-4.8,12.4,0,17.2s12.4,4.8,17.2,0L238,108.4l0.4-0.4l0.4-0.4
			c6.8-6.8,10-16,10-24.8c0-9.2-3.2-18.4-10.4-25.6c-7.2-6.8-16.4-10.4-25.6-10.4s-18.4,3.2-25.6,10.4L34.4,210
			c-11.2,11.2-16.8,26-16.8,40.8s5.6,29.6,16.8,40.8c11.2,11.2,26,16.8,40.8,16.8s29.6-5.6,40.8-16.8L273.6,134
			c15.6-15.2,23.2-35.6,23.2-55.6S288.8,38,273.6,22.8z"/>
	</g>
</g>
<g>
</g>
<g>
</g>
<g>
</g>
<g>
</g>
<g>
</g>
<g>
</g>
<g>
</g>
<g>
</g>
<g>
</g>
<g>
</g>
<g>
</g>
<g>
</g>
<g>
</g>
<g>
</g>
<g>
</g>
</svg>
