<svg height="512pt" viewBox="-53 0 511 512" width="512pt" xmlns="http://www.w3.org/2000/svg"><path d="m315.386719 379v32h48c11.046875 0 20 8.953125 20 20s-8.953125 20-20 20h-48v41c0 11.046875-8.953125 20-20 20-11.042969 0-20-8.953125-20-20v-113c0-27.570312 22.429687-50 50-50h38c11.046875 0 20 8.953125 20 20s-8.953125 20-20 20h-38c-5.511719 0-10 4.484375-10 10zm73.429687-283.859375-77.570312-77.566406c-11.332032-11.332031-26.398438-17.574219-42.425782-17.574219h-188.320312c-44.113281 0-80 35.886719-80 80v190c0 11.046875 8.953125 20 20 20s20-8.953125 20-20v-190c0-22.054688 17.945312-40 40-40h188.320312c5.339844 0 10.363282 2.082031 14.140626 5.859375l77.570312 77.566406c3.777344 3.777344 5.855469 8.800781 5.855469 14.140625v132.433594c0 11.046875 8.957031 20 20 20 11.046875 0 20-8.953125 20-20v-132.433594c0-16.023437-6.238281-31.089844-17.570313-42.425781zm-253.429687 316.859375h-35c-11.042969 0-20 8.953125-20 20s8.957031 20 20 20h13.984375c-4.535156 11.992188-16.21875 20-29.984375 20-17.644531 0-32-14.355469-32-32v-38c0-17.644531 14.355469-32 32-32 11.265625 0 21.5 5.757812 27.367187 15.398438 5.742188 9.4375 18.046875 12.429687 27.484375 6.683593 9.433594-5.742187 12.425781-18.046875 6.683594-27.480469-13.1875-21.667968-36.191406-34.601562-61.535156-34.601562-39.699219 0-72 32.300781-72 72v38c0 39.699219 32.300781 72 72 72 16.722656 0 32.96875-5.683594 45.75-16 12.824219-10.355469 21.65625-24.953125 24.867187-41.097656.253906-1.285156.382813-2.59375.382813-3.902344v-19c0-11.046875-8.953125-20-20-20zm80-83c-11.042969 0-20 8.953125-20 20v143c0 11.046875 8.957031 20 20 20 11.046875 0 20-8.953125 20-20v-143c0-11.046875-8.953125-20-20-20zm0 0"/></svg>