<svg id="Capa_1" enable-background="new 0 0 512 512" height="512" viewBox="0 0 512 512" width="512" xmlns="http://www.w3.org/2000/svg"><g><circle cx="256" cy="256" fill="#7be2f6" r="241.007"/><g><path d="m256 14.993v482.014c133.104 0 241.007-107.903 241.007-241.007s-107.903-241.007-241.007-241.007z" fill="#55d0f9"/></g><g fill="none"><path d="m174.553 129.715c-4.671 11.163-8.687 22.905-12.027 35.069h78.474v-123.18c-27.853 20.151-50.57 50.162-66.447 88.111z"/><path d="m151.342 280.608-29.93 2.047c-2.019-29.52-.605-59.295 4.001-87.871h-87.062c-5.502 19.676-8.351 40.226-8.351 61.216s2.849 41.54 8.351 61.216h53.25v30h-42.504c11.144 25.255 26.991 48.484 47.097 68.59 29.04 29.04 64.594 49.192 103.363 59.117-23.062-22.632-41.461-51.596-54.954-86.658l27.998-10.775c15.697 40.785 38.647 71.993 68.399 93.092v-123.366h-45.386v-30h45.386v-122.432h-85.183c-4.874 27.742-6.454 56.887-4.475 85.824z"/><path d="m349.485 347.216h-78.485v123.201c29.247-21.132 52.747-53.065 68.708-93.698 3.731-9.498 6.988-19.364 9.777-29.503z"/><path d="m146.878 118.136c13.524-32.324 31.611-59.716 53.437-81.258-39.065 9.854-74.892 30.086-104.121 59.316-20.106 20.106-35.953 43.334-47.097 68.59h82.441c4.045-16.248 9.169-31.9 15.34-46.648z"/><path d="m473.649 194.784h-67.68v-30h56.934c-11.144-25.255-26.991-48.484-47.097-68.59-29.194-29.194-64.97-49.411-103.98-59.278 25.988 25.619 46.525 59.461 60.524 100.235l-28.374 9.742c-11.518-33.551-33.222-76.729-72.976-105.334v123.226h57.329v30h-57.329v122.432h85.212c5.594-31.828 6.812-65.433 3.35-98.537l29.837-3.119c3.559 34.037 2.537 68.625-2.783 101.656h87.032c5.503-19.677 8.352-40.227 8.352-61.217s-2.849-41.54-8.351-61.216z"/><path d="m367.631 387.688c-13.768 35.05-32.711 64.534-55.913 87.426 39.052-9.857 74.867-30.086 104.088-59.307 20.106-20.106 35.953-43.334 47.097-68.59h-82.408c-3.484 13.974-7.779 27.524-12.864 40.471z"/></g><g><path d="m260.03.049c-1.342-.021-2.684-.049-4.03-.049-68.38 0-132.667 26.629-181.02 74.98-48.351 48.353-74.98 112.64-74.98 181.02s26.629 132.667 74.98 181.02c48.353 48.351 112.64 74.98 181.02 74.98 1.346 0 2.688-.028 4.03-.049zm-163.836 96.145c29.229-29.23 65.057-49.462 104.121-59.316-21.827 21.541-39.913 48.933-53.437 81.258-6.171 14.749-11.295 30.401-15.34 46.648h-82.441c11.144-25.255 26.991-48.484 47.097-68.59zm144.806 221.022h-45.386v30h45.386v123.366c-29.752-21.099-52.703-52.307-68.399-93.092l-27.998 10.775c13.494 35.061 31.892 64.026 54.954 86.658-38.769-9.924-74.323-30.077-103.363-59.117-20.106-20.106-35.953-43.334-47.097-68.59h42.504v-30h-53.25c-5.502-19.676-8.351-40.226-8.351-61.216s2.849-41.54 8.351-61.216h87.063c-4.606 28.576-6.02 58.351-4.001 87.871l29.93-2.047c-1.98-28.938-.4-58.083 4.474-85.824h85.183zm0-152.432h-78.474c3.34-12.164 7.356-23.907 12.027-35.069 15.877-37.949 38.594-67.96 66.447-88.111z" fill="#55d0f9"/><path d="m437.02 74.98c-48.353-48.351-112.64-74.98-181.02-74.98v512c68.38 0 132.667-26.629 181.02-74.98 48.351-48.353 74.98-112.64 74.98-181.02s-26.629-132.667-74.98-181.02zm-166.02 395.437v-123.201h78.485c-2.789 10.14-6.046 20.005-9.777 29.503-15.961 40.633-39.461 72.566-68.708 93.698zm144.806-54.611c-29.221 29.221-65.036 49.45-104.088 59.307 23.202-22.891 42.145-52.375 55.913-87.426 5.086-12.947 9.38-26.497 12.864-40.472h82.408c-11.144 25.256-26.991 48.485-47.097 68.591zm-29.189-98.59c5.32-33.031 6.342-67.619 2.783-101.656l-29.837 3.119c3.462 33.104 2.244 66.71-3.35 98.537h-85.213v-122.432h57.329v-30h-57.329v-123.225c39.754 28.606 61.458 71.784 72.977 105.334l28.374-9.742c-13.999-40.774-34.536-74.616-60.524-100.235 39.01 9.868 74.786 30.084 103.98 59.279 20.106 20.106 35.953 43.334 47.097 68.59h-56.934v30h67.68c5.501 19.675 8.35 40.225 8.35 61.215s-2.849 41.54-8.351 61.216z" fill="#00b9eb"/></g><g><path d="m143.61 265.973c-.001 0-.001 0-.002 0-36.947 0-67.007 30.099-67.007 67.096s30.059 67.096 67.007 67.096h.004c36.946-.002 67.003-30.1 67.003-67.095-.001-36.997-30.058-67.096-67.005-67.097z" fill="#17799c"/><ellipse cx="367.149" cy="179.785" fill="#0b495d" rx="53.26" ry="53.331"/></g></g></svg>