<?xml version="1.0" encoding="iso-8859-1"?>
<!-- Generator: Adobe Illustrator 19.0.0, SVG Export Plug-In . SVG Version: 6.00 Build 0)  -->
<svg version="1.1" id="Capa_1" xmlns="http://www.w3.org/2000/svg" xmlns:xlink="http://www.w3.org/1999/xlink" x="0px" y="0px"
	 viewBox="0 0 512 512" style="enable-background:new 0 0 512 512;" xml:space="preserve">
<g>
	<g>
		<path d="M215,0H15C6.716,0,0,6.716,0,15v200c0,8.284,6.716,15,15,15h200c8.284,0,15-6.716,15-15V15C230,6.716,223.284,0,215,0z
			 M200,200H30V30h170V200z"/>
	</g>
</g>
<g>
	<g>
		<path d="M145,70H85c-8.284,0-15,6.716-15,15v60c0,8.284,6.716,15,15,15h60c8.284,0,15-6.716,15-15V85
			C160,76.716,153.284,70,145,70z"/>
	</g>
</g>
<g>
	<g>
		<path d="M497,0H297c-8.284,0-15,6.716-15,15v200c0,8.284,6.716,15,15,15h200c8.284,0,15-6.716,15-15V15C512,6.716,505.284,0,497,0
			z M482,200H312V30h170V200z"/>
	</g>
</g>
<g>
	<g>
		<path d="M427,70h-60c-8.284,0-15,6.716-15,15v60c0,8.284,6.716,15,15,15h60c8.284,0,15-6.716,15-15V85
			C442,76.716,435.284,70,427,70z"/>
	</g>
</g>
<g>
	<g>
		<path d="M215,282H15c-8.284,0-15,6.716-15,15v200c0,8.284,6.716,15,15,15h200c8.284,0,15-6.716,15-15V297
			C230,288.716,223.284,282,215,282z M200,482H30V312h170V482z"/>
	</g>
</g>
<g>
	<g>
		<path d="M145,352H85c-8.284,0-15,6.716-15,15v60c0,8.284,6.716,15,15,15h60c8.284,0,15-6.716,15-15v-60
			C160,358.716,153.284,352,145,352z"/>
	</g>
</g>
<g>
	<g>
		<path d="M497,422.637h-85V367c0-8.284-6.716-15-15-15s-15,6.716-15,15v70.637c0,8.284,6.716,15,15,15h85V482h-85
			c-8.284,0-15,6.716-15,15s6.716,15,15,15h100c8.284,0,15-6.716,15-15v-59.363C512,429.353,505.284,422.637,497,422.637z"/>
	</g>
</g>
<g>
	<g>
		<path d="M497,282c-8.284,0-15,6.716-15,15v70c0,8.284,6.716,15,15,15s15-6.716,15-15v-70C512,288.716,505.284,282,497,282z"/>
	</g>
</g>
<g>
	<g>
		<path d="M367,282h-70c-8.284,0-15,6.716-15,15v70c0,8.284,6.716,15,15,15s15-6.716,15-15v-55h55c8.284,0,15-6.716,15-15
			S375.284,282,367,282z"/>
	</g>
</g>
<g>
	<g>
		<path d="M297,422.637c-8.284,0-15,6.716-15,15V497c0,8.284,6.716,15,15,15s15-6.716,15-15v-59.363
			C312,429.353,305.284,422.637,297,422.637z"/>
	</g>
</g>
<g>
</g>
<g>
</g>
<g>
</g>
<g>
</g>
<g>
</g>
<g>
</g>
<g>
</g>
<g>
</g>
<g>
</g>
<g>
</g>
<g>
</g>
<g>
</g>
<g>
</g>
<g>
</g>
<g>
</g>
</svg>
