<?xml version="1.0" encoding="iso-8859-1"?>
<!-- Generator: Adobe Illustrator 19.0.0, SVG Export Plug-In . SVG Version: 6.00 Build 0)  -->
<svg version="1.1" id="Capa_1" xmlns="http://www.w3.org/2000/svg" xmlns:xlink="http://www.w3.org/1999/xlink" x="0px" y="0px"
	 viewBox="0 0 512 512" style="enable-background:new 0 0 512 512;" xml:space="preserve">
<path style="fill:#FD3018;" d="M437.02,74.98C388.667,26.629,324.38,0,256,0C187.619,0,123.332,26.629,74.98,74.98
	C26.629,123.332,0,187.619,0,256s26.629,132.668,74.98,181.02C123.332,485.371,187.619,512,256,512
	c68.38,0,132.667-26.629,181.02-74.98C485.371,388.668,512,324.381,512,256C512,187.62,485.371,123.332,437.02,74.98z"/>
<path style="fill:#E61E14;" d="M437.02,74.981C388.666,26.629,324.379,0,256,0h-0.001v512H256c68.38,0,132.667-26.628,181.02-74.979
	C485.371,388.668,512,324.381,512,256C512,187.62,485.371,123.333,437.02,74.981z"/>
<path style="fill:#F2F2F2;" d="M359.277,137.723H152.721c-8.284,0-15,6.716-15,15V359.28c0,8.284,6.716,15,15,15h206.557
	c8.284,0,15-6.716,15-15V152.723C374.277,144.439,367.561,137.723,359.277,137.723z"/>
<path style="fill:#D9D9D9;" d="M359.277,137.723H256V374.28h103.277c8.284,0,15-6.716,15-15V152.723
	C374.277,144.439,367.561,137.723,359.277,137.723z"/>
<g>
</g>
<g>
</g>
<g>
</g>
<g>
</g>
<g>
</g>
<g>
</g>
<g>
</g>
<g>
</g>
<g>
</g>
<g>
</g>
<g>
</g>
<g>
</g>
<g>
</g>
<g>
</g>
<g>
</g>
</svg>
