<?xml version="1.0" encoding="iso-8859-1"?>
<!-- Generator: Adobe Illustrator 19.0.0, SVG Export Plug-In . SVG Version: 6.00 Build 0)  -->
<svg version="1.1" id="Capa_1" xmlns="http://www.w3.org/2000/svg" xmlns:xlink="http://www.w3.org/1999/xlink" x="0px" y="0px"
	 viewBox="0 0 512 512" style="enable-background:new 0 0 512 512;" xml:space="preserve">
<g>
	<g>
		<path d="M301,90V60c0-33.084-26.916-60-60-60H90H75H0v512h90V302h91v30c0,33.084,26.916,60,60,60h271V90H301z M60,482H30V30h30
			V482z M241,362c-16.542,0-30-13.458-30-30v-30h30c16.542,0,30,13.458,30,30S257.542,362,241,362z M271,280.072
			c-8.833-5.123-19.075-8.072-30-8.072H90V30h151c16.542,0,30,13.458,30,30V280.072z M482,362H292.928
			c5.123-8.833,8.072-19.075,8.072-30V120h181V362z"/>
	</g>
</g>
<g>
</g>
<g>
</g>
<g>
</g>
<g>
</g>
<g>
</g>
<g>
</g>
<g>
</g>
<g>
</g>
<g>
</g>
<g>
</g>
<g>
</g>
<g>
</g>
<g>
</g>
<g>
</g>
<g>
</g>
</svg>
