<?xml version="1.0" encoding="iso-8859-1"?>
<!-- Generator: Adobe Illustrator 19.0.0, SVG Export Plug-In . SVG Version: 6.00 Build 0)  -->
<svg version="1.1" id="Layer_1" xmlns="http://www.w3.org/2000/svg" xmlns:xlink="http://www.w3.org/1999/xlink" x="0px" y="0px"
	 viewBox="0 0 512 512" style="enable-background:new 0 0 512 512;" xml:space="preserve">
<circle style="fill:#FF405F;" cx="256" cy="256" r="256"/>
<path style="fill:#FB788A;" d="M256,0C114.615,0,0,114.615,0,256s114.615,256,256,256V0z"/>
<path style="fill:#FBDB80;" d="M197.939,505.384c-4.326-18.656-6.615-38.092-6.615-58.062c0-141.385,114.615-256,256-256
	c19.971,0,39.406,2.289,58.061,6.615L197.939,505.384z"/>
<path style="fill:#FBBA00;" d="M197.938,505.385C216.594,509.711,236.029,512,256,512c141.385,0,256-114.615,256-256
	c0-19.971-2.289-39.407-6.616-58.062L197.938,505.385z"/>
<g>
</g>
<g>
</g>
<g>
</g>
<g>
</g>
<g>
</g>
<g>
</g>
<g>
</g>
<g>
</g>
<g>
</g>
<g>
</g>
<g>
</g>
<g>
</g>
<g>
</g>
<g>
</g>
<g>
</g>
</svg>
