<svg height="512pt" viewBox="0 0 512 512" width="512pt" xmlns="http://www.w3.org/2000/svg"><path d="m244 472h-183.308594c-8.535156 0-13.6875-4.765625-15.996094-7.605469-3.992187-4.90625-5.535156-11.289062-4.238281-17.519531 20.769531-99.761719 108.8125-172.617188 210.445313-174.980469 1.691406.0625 3.390625.105469 5.097656.105469 74.988281 0 136-61.011719 136-136s-61.011719-136-136-136c-74.992188 0-136 61.011719-136 136 0 44.507812 21.492188 84.09375 54.644531 108.917969-30.371093 9.996093-58.871093 25.546875-83.816406 46.0625-45.730469 37.617187-77.527344 90.085937-89.53125 147.742187-3.761719 18.066406.746094 36.621094 12.363281 50.90625 11.558594 14.21875 28.703125 22.371094 47.03125 22.371094h183.308594c11.046875 0 20-8.953125 20-20s-8.953125-20-20-20zm-84-336c0-52.933594 43.066406-96 96-96s96 43.066406 96 96c0 52.175781-41.839844 94.757812-93.726562 95.972656-.746094-.085937-1.503907-.140625-2.273438-.140625-1.5625 0-3.128906.023438-4.6875.050781-50.765625-2.453124-91.3125-44.519531-91.3125-95.882812zm307.984375 206.355469v-16.371094c0-32.523437-26.917969-58.984375-60-58.984375-33.085937 0-60 26.460938-60 58.984375v16.375c-24.742187 2.984375-43.984375 24.09375-43.984375 49.625v100c0 11.046875 8.953125 20 20 20h168c11.046875 0 20-8.953125 20-20v-100c0-25.542969-19.257812-46.660156-44.015625-49.628906zm-60-35.355469c11.027344 0 20 8.519531 20 18.984375v16h-40v-16c0-10.464844 8.96875-18.984375 20-18.984375zm64.015625 164.984375h-128v-80c0-5.511719 4.484375-10 10-10h108c5.511719 0 10 4.488281 10 10zm0 0"/></svg>